<?xml version="1.0" encoding="utf-8"?>
<!-- Generator: Adobe Illustrator 21.1.0, SVG Export Plug-In . SVG Version: 6.00 Build 0)  -->
<svg version="1.1" xmlns="http://www.w3.org/2000/svg" xmlns:xlink="http://www.w3.org/1999/xlink" x="0px" y="0px"
	 viewBox="0 0 1920 1080" style="enable-background:new 0 0 1920 1080;" xml:space="preserve">
<style type="text/css">
	.st0{fill:#808285;}
	.st1{fill:#FFFFFF;}
	.st2{fill:url(#SVGID_1_);}
	.st3{opacity:0.8;}
	.st4{fill:#F4FAFF;}
	.st5{opacity:0.4;}
	.st6{fill:url(#SVGID_2_);}
	.st7{opacity:0.8;fill:none;stroke:#F4FAFF;stroke-width:2;stroke-miterlimit:10;}
	.st8{fill:url(#SVGID_3_);}
	.st9{fill:url(#SVGID_4_);}
	.st10{fill:url(#SVGID_5_);}
	.st11{fill:url(#SVGID_6_);}
	.st12{fill:url(#SVGID_7_);}
	.st13{fill:url(#SVGID_8_);}
	.st14{fill:url(#SVGID_9_);}
	.st15{fill:url(#SVGID_10_);}
	.st16{fill:#D89A00;}
	.st17{fill:url(#SVGID_11_);}
	.st18{fill:url(#SVGID_12_);}
	.st19{fill:url(#SVGID_13_);}
	.st20{fill:url(#SVGID_14_);}
	.st21{fill:url(#SVGID_15_);}
	.st22{fill:#562000;}
	.st23{fill:url(#SVGID_16_);}
	.st24{filter:url(#Adobe_OpacityMaskFilter);}
	.st25{opacity:0.4;mask:url(#SVGID_17_);}
	.st26{fill:#F2F2F2;}
	.st27{filter:url(#Adobe_OpacityMaskFilter_1_);}
	.st28{mask:url(#SVGID_18_);}
	.st29{opacity:0.14;}
	.st30{opacity:0.56;fill:none;stroke:#FFFFFF;stroke-width:1.5;stroke-miterlimit:10;}
	.st31{opacity:0.25;}
	.st32{fill:#EAEAE8;}
	.st33{opacity:0.7;}
	.st34{fill:url(#SVGID_19_);}
	.st35{opacity:0.2;}
	.st36{opacity:0.82;}
	.st37{fill:url(#SVGID_20_);}
	.st38{opacity:0.39;}
	.st39{fill:url(#SVGID_21_);}
	.st40{opacity:0.64;}
	.st41{fill:url(#SVGID_22_);}
	.st42{fill:#54731D;}
	.st43{fill:#8CA847;}
	.st44{fill:#D5E5A3;}
	.st45{opacity:0.24;}
	.st46{fill:url(#SVGID_23_);}
	.st47{opacity:0.7;fill:url(#SVGID_24_);}
	.st48{fill:url(#SVGID_25_);}
	.st49{opacity:0.78;}
	.st50{fill:url(#SVGID_26_);}
	.st51{opacity:0.94;}
	.st52{fill:url(#SVGID_27_);}
	.st53{fill:none;stroke:#FDFDFD;stroke-miterlimit:10;}
	.st54{fill:#C68D81;}
	.st55{filter:url(#Adobe_OpacityMaskFilter_2_);}
	.st56{opacity:0.7;mask:url(#SVGID_28_);}
	.st57{fill:#D6D6D6;}
	.st58{opacity:0.17;fill:#D6D6D6;}
	.st59{fill:#FEEA9A;}
	.st60{opacity:0.73;fill:url(#SVGID_29_);}
	.st61{fill:url(#SVGID_30_);}
	.st62{opacity:0.41;}
	.st63{fill:url(#SVGID_31_);}
	.st64{display:none;}
	.st65{display:inline;fill:url(#SVGID_32_);}
	.st66{fill:url(#SVGID_33_);}
	.st67{opacity:0.6;}
	.st68{fill:url(#SVGID_34_);}
	.st69{fill:url(#SVGID_35_);}
	.st70{fill:#DBDBDB;}
	.st71{fill:none;}
	.st72{fill:url(#SVGID_36_);}
	.st73{fill:url(#SVGID_37_);}
	.st74{fill:url(#SVGID_38_);}
	.st75{fill:url(#SVGID_39_);}
	.st76{fill:url(#SVGID_40_);}
	.st77{fill:url(#SVGID_41_);}
	.st78{fill:url(#SVGID_42_);}
	.st79{filter:url(#Adobe_OpacityMaskFilter_3_);}
	.st80{opacity:0.55;}
	.st81{opacity:0.7;mask:url(#SVGID_43_);}
	.st82{filter:url(#Adobe_OpacityMaskFilter_4_);}
	.st83{opacity:0.4;mask:url(#SVGID_44_);}
	.st84{filter:url(#Adobe_OpacityMaskFilter_5_);}
	.st85{opacity:0.3;mask:url(#SVGID_45_);}
	.st86{fill:#F4F4D4;}
	.st87{filter:url(#Adobe_OpacityMaskFilter_6_);}
	.st88{opacity:0.2;mask:url(#SVGID_46_);}
	.st89{fill:#707070;}
	.st90{filter:url(#Adobe_OpacityMaskFilter_7_);}
	.st91{opacity:0.25;mask:url(#SVGID_47_);}
	.st92{fill:#606060;}
	.st93{filter:url(#Adobe_OpacityMaskFilter_8_);}
	.st94{opacity:0.2;mask:url(#SVGID_48_);}
</style>
<symbol  id="Stipple" viewBox="-35.7 -22.8 71.5 45.5">
	<g>
		<g>
			<g>
				<ellipse class="st0" cx="-1.5" cy="7" rx="0.6" ry="0.7"/>
				<ellipse class="st0" cx="-26.6" cy="20.9" rx="0.6" ry="0.7"/>
				<ellipse class="st0" cx="12.6" cy="11" rx="0.6" ry="0.7"/>
				<ellipse class="st0" cx="-21.6" cy="18.2" rx="0.6" ry="0.7"/>
				<ellipse class="st0" cx="-6.2" cy="19.9" rx="0.6" ry="0.7"/>
				<ellipse class="st0" cx="-17.4" cy="10.4" rx="0.6" ry="0.7"/>
				<ellipse class="st0" cx="-6.2" cy="12.4" rx="0.6" ry="0.7"/>
				<ellipse class="st0" cx="4.8" cy="12.9" rx="0.6" ry="0.7"/>
				<ellipse class="st0" cx="14.1" cy="18.7" rx="0.6" ry="0.7"/>
				<ellipse class="st0" cx="25.2" cy="15" rx="0.6" ry="0.7"/>
				<ellipse class="st0" cx="26.3" cy="6.7" rx="0.6" ry="0.7"/>
				<ellipse class="st0" cx="34" cy="5.1" rx="0.6" ry="0.7"/>
				<ellipse class="st0" cx="32.1" cy="-7.6" rx="0.6" ry="0.7"/>
				<ellipse class="st0" cx="33.4" cy="-15.2" rx="0.6" ry="0.7"/>
				<ellipse class="st0" cx="11.8" cy="0.4" rx="0.6" ry="0.7"/>
				<ellipse class="st0" cx="9.6" cy="-6.3" rx="0.6" ry="0.7"/>
				<ellipse class="st0" cx="20.3" cy="-12.3" rx="0.6" ry="0.7"/>
				<ellipse class="st0" cx="16.6" cy="-19.8" rx="0.6" ry="0.7"/>
				<ellipse class="st0" cx="-22.7" cy="3.9" rx="0.6" ry="0.7"/>
				<ellipse class="st0" cx="-27.9" cy="-1.9" rx="0.6" ry="0.7"/>
				<ellipse class="st0" cx="-10.2" cy="-1.3" rx="0.6" ry="0.7"/>
				<ellipse class="st0" cx="1.8" cy="-5.4" rx="0.6" ry="0.7"/>
				<ellipse class="st0" cx="-9.4" cy="-10.9" rx="0.6" ry="0.7"/>
				<ellipse class="st0" cx="-4.2" cy="-14.3" rx="0.6" ry="0.7"/>
				<ellipse class="st0" cx="1.6" cy="-21.3" rx="0.6" ry="0.7"/>
				<ellipse class="st0" cx="-18.4" cy="-5.3" rx="0.6" ry="0.7"/>
				<ellipse class="st0" cx="-14.4" cy="-22.1" rx="0.6" ry="0.7"/>
				<ellipse class="st0" cx="-24.2" cy="-13.6" rx="0.6" ry="0.7"/>
				<circle class="st0" cx="-23.1" cy="20.7" r="0.3"/>
				<circle class="st0" cx="-18.3" cy="21.7" r="0.3"/>
				<circle class="st0" cx="-26.3" cy="17.4" r="0.3"/>
				<circle class="st0" cx="-27.2" cy="-4.1" r="0.3"/>
				<circle class="st0" cx="-35.4" cy="-0.3" r="0.3"/>
				<circle class="st0" cx="-32.2" cy="2.7" r="0.3"/>
				<circle class="st0" cx="-25.7" cy="4.4" r="0.3"/>
				<circle class="st0" cx="-21.4" cy="-0.8" r="0.3"/>
				<circle class="st0" cx="-24.9" cy="-6.3" r="0.3"/>
				<circle class="st0" cx="-24.9" cy="-10.3" r="0.3"/>
				<circle class="st0" cx="-14.9" cy="-7.6" r="0.3"/>
				<circle class="st0" cx="-17.9" cy="-12.3" r="0.3"/>
				<circle class="st0" cx="-18.3" cy="2.8" r="0.3"/>
				<circle class="st0" cx="-20.7" cy="5.9" r="0.3"/>
				<circle class="st0" cx="-22.7" cy="8.9" r="0.3"/>
				<circle class="st0" cx="-32.9" cy="-12.1" r="0.3"/>
				<circle class="st0" cx="-30.7" cy="-17.1" r="0.3"/>
				<circle class="st0" cx="-34.7" cy="-21.1" r="0.3"/>
				<circle class="st0" cx="-22.7" cy="-18.1" r="0.3"/>
				<circle class="st0" cx="-19.4" cy="-15.8" r="0.3"/>
				<circle class="st0" cx="-18.4" cy="-18.8" r="0.3"/>
				<circle class="st0" cx="-14.2" cy="-13.8" r="0.3"/>
				<circle class="st0" cx="-9.2" cy="-14.6" r="0.3"/>
				<circle class="st0" cx="-8.9" cy="-7.1" r="0.3"/>
				<circle class="st0" cx="-3.2" cy="-7.8" r="0.3"/>
				<circle class="st0" cx="2.1" cy="-13.4" r="0.3"/>
				<circle class="st0" cx="-1.4" cy="-18.3" r="0.3"/>
				<circle class="st0" cx="4.4" cy="-9" r="0.3"/>
				<circle class="st0" cx="-1.2" cy="-4.6" r="0.3"/>
				<circle class="st0" cx="-13.3" cy="-3.9" r="0.3"/>
				<circle class="st0" cx="-20.1" cy="15.2" r="0.3"/>
				<circle class="st0" cx="-27.8" cy="11" r="0.3"/>
				<circle class="st0" cx="-12.7" cy="-0.9" r="0.3"/>
				<circle class="st0" cx="-13.3" cy="3.9" r="0.3"/>
				<circle class="st0" cx="-7.7" cy="0.9" r="0.3"/>
				<circle class="st0" cx="-6.2" cy="4.9" r="0.3"/>
				<circle class="st0" cx="-4.7" cy="-2.6" r="0.3"/>
				<circle class="st0" cx="-12.1" cy="9.2" r="0.3"/>
				<circle class="st0" cx="-7.9" cy="9.6" r="0.3"/>
				<circle class="st0" cx="-3.9" cy="8.4" r="0.3"/>
				<circle class="st0" cx="-1.4" cy="3.4" r="0.3"/>
				<circle class="st0" cx="1.1" cy="3.9" r="0.3"/>
				<circle class="st0" cx="3.6" cy="-1.6" r="0.3"/>
				<circle class="st0" cx="6.3" cy="-2.6" r="0.3"/>
				<circle class="st0" cx="3.8" cy="8.1" r="0.3"/>
				<circle class="st0" cx="7.1" cy="9.7" r="0.3"/>
				<circle class="st0" cx="7.8" cy="5.4" r="0.3"/>
				<circle class="st0" cx="7.6" cy="2.4" r="0.3"/>
				<circle class="st0" cx="11.6" cy="6.9" r="0.3"/>
				<circle class="st0" cx="15.1" cy="5.2" r="0.3"/>
				<circle class="st0" cx="16.6" cy="1.1" r="0.3"/>
				<circle class="st0" cx="16.6" cy="-6.3" r="0.3"/>
				<circle class="st0" cx="-9.7" cy="16.1" r="0.3"/>
				<circle class="st0" cx="-3.4" cy="20.2" r="0.3"/>
				<circle class="st0" cx="-3.2" cy="16.1" r="0.3"/>
				<circle class="st0" cx="0.3" cy="12.2" r="0.3"/>
				<circle class="st0" cx="6.1" cy="16.1" r="0.3"/>
				<circle class="st0" cx="7.8" cy="20.9" r="0.3"/>
				<circle class="st0" cx="10.1" cy="16.4" r="0.3"/>
				<circle class="st0" cx="14.1" cy="14.9" r="0.3"/>
				<circle class="st0" cx="21.1" cy="22.4" r="0.3"/>
				<circle class="st0" cx="19.8" cy="19.4" r="0.3"/>
				<circle class="st0" cx="20" cy="14.6" r="0.3"/>
				<circle class="st0" cx="32.6" cy="20.2" r="0.3"/>
				<circle class="st0" cx="32.1" cy="17.2" r="0.3"/>
				<circle class="st0" cx="35.3" cy="14.7" r="0.3"/>
				<circle class="st0" cx="20" cy="9.8" r="0.3"/>
				<circle class="st0" cx="20.1" cy="4.4" r="0.3"/>
				<circle class="st0" cx="24.1" cy="5.9" r="0.3"/>
				<circle class="st0" cx="29.8" cy="7.4" r="0.3"/>
				<circle class="st0" cx="28.6" cy="3.4" r="0.3"/>
				<circle class="st0" cx="30.8" cy="3.4" r="0.3"/>
				<circle class="st0" cx="8.1" cy="-21.6" r="0.3"/>
				<circle class="st0" cx="8.8" cy="-16.1" r="0.3"/>
				<circle class="st0" cx="12.6" cy="-18.1" r="0.3"/>
				<circle class="st0" cx="19.8" cy="-4.8" r="0.3"/>
				<circle class="st0" cx="22.3" cy="-7.6" r="0.3"/>
				<circle class="st0" cx="21.4" cy="-15.8" r="0.3"/>
				<circle class="st0" cx="16.8" cy="-14.9" r="0.3"/>
				<circle class="st0" cx="17.4" cy="-9.6" r="0.3"/>
				<circle class="st0" cx="12.1" cy="-10.6" r="0.3"/>
				<circle class="st0" cx="12.8" cy="-14.1" r="0.3"/>
				<circle class="st0" cx="35.4" cy="-16.5" r="0.3"/>
				<circle class="st0" cx="28.3" cy="-13.8" r="0.3"/>
				<circle class="st0" cx="28.8" cy="-6.3" r="0.3"/>
				<circle class="st0" cx="34.1" cy="-6.6" r="0.3"/>
				<circle class="st0" cx="24.8" cy="-0.6" r="0.3"/>
				<circle class="st0" cx="20.1" cy="-0.6" r="0.3"/>
			</g>
		</g>
	</g>
</symbol>
<symbol  id="Stipple_2" viewBox="-35.7 -22.8 71.5 45.5">
	<g>
		<g>
			<g>
				<ellipse class="st1" cx="-1.5" cy="7" rx="0.6" ry="0.7"/>
				<ellipse class="st1" cx="-26.6" cy="20.9" rx="0.6" ry="0.7"/>
				<ellipse class="st1" cx="12.6" cy="11" rx="0.6" ry="0.7"/>
				<ellipse class="st1" cx="-21.6" cy="18.2" rx="0.6" ry="0.7"/>
				<ellipse class="st1" cx="-6.2" cy="19.9" rx="0.6" ry="0.7"/>
				<ellipse class="st1" cx="-17.4" cy="10.4" rx="0.6" ry="0.7"/>
				<ellipse class="st1" cx="-6.2" cy="12.4" rx="0.6" ry="0.7"/>
				<ellipse class="st1" cx="4.8" cy="12.9" rx="0.6" ry="0.7"/>
				<ellipse class="st1" cx="14.1" cy="18.7" rx="0.6" ry="0.7"/>
				<ellipse class="st1" cx="25.2" cy="15" rx="0.6" ry="0.7"/>
				<ellipse class="st1" cx="26.3" cy="6.7" rx="0.6" ry="0.7"/>
				<ellipse class="st1" cx="34" cy="5.1" rx="0.6" ry="0.7"/>
				<ellipse class="st1" cx="32.1" cy="-7.6" rx="0.6" ry="0.7"/>
				<ellipse class="st1" cx="33.4" cy="-15.2" rx="0.6" ry="0.7"/>
				<ellipse class="st1" cx="11.8" cy="0.4" rx="0.6" ry="0.7"/>
				<ellipse class="st1" cx="9.6" cy="-6.3" rx="0.6" ry="0.7"/>
				<ellipse class="st1" cx="20.3" cy="-12.3" rx="0.6" ry="0.7"/>
				<ellipse class="st1" cx="16.6" cy="-19.8" rx="0.6" ry="0.7"/>
				<ellipse class="st1" cx="-22.7" cy="3.9" rx="0.6" ry="0.7"/>
				<ellipse class="st1" cx="-27.9" cy="-1.9" rx="0.6" ry="0.7"/>
				<ellipse class="st1" cx="-10.2" cy="-1.3" rx="0.6" ry="0.7"/>
				<ellipse class="st1" cx="1.8" cy="-5.4" rx="0.6" ry="0.7"/>
				<ellipse class="st1" cx="-9.4" cy="-10.9" rx="0.6" ry="0.7"/>
				<ellipse class="st1" cx="-4.2" cy="-14.3" rx="0.6" ry="0.7"/>
				<ellipse class="st1" cx="1.6" cy="-21.3" rx="0.6" ry="0.7"/>
				<ellipse class="st1" cx="-18.4" cy="-5.3" rx="0.6" ry="0.7"/>
				<ellipse class="st1" cx="-14.4" cy="-22.1" rx="0.6" ry="0.7"/>
				<ellipse class="st1" cx="-24.2" cy="-13.6" rx="0.6" ry="0.7"/>
				<circle class="st1" cx="-23.1" cy="20.7" r="0.3"/>
				<circle class="st1" cx="-18.3" cy="21.7" r="0.3"/>
				<circle class="st1" cx="-26.3" cy="17.4" r="0.3"/>
				<circle class="st1" cx="-27.2" cy="-4.1" r="0.3"/>
				<circle class="st1" cx="-35.4" cy="-0.3" r="0.3"/>
				<circle class="st1" cx="-32.2" cy="2.7" r="0.3"/>
				<circle class="st1" cx="-25.7" cy="4.4" r="0.3"/>
				<circle class="st1" cx="-21.4" cy="-0.8" r="0.3"/>
				<circle class="st1" cx="-24.9" cy="-6.3" r="0.3"/>
				<circle class="st1" cx="-24.9" cy="-10.3" r="0.3"/>
				<circle class="st1" cx="-14.9" cy="-7.6" r="0.3"/>
				<circle class="st1" cx="-17.9" cy="-12.3" r="0.3"/>
				<circle class="st1" cx="-18.3" cy="2.8" r="0.3"/>
				<circle class="st1" cx="-20.7" cy="5.9" r="0.3"/>
				<circle class="st1" cx="-22.7" cy="8.9" r="0.3"/>
				<circle class="st1" cx="-32.9" cy="-12.1" r="0.3"/>
				<circle class="st1" cx="-30.7" cy="-17.1" r="0.3"/>
				<circle class="st1" cx="-34.7" cy="-21.1" r="0.3"/>
				<circle class="st1" cx="-22.7" cy="-18.1" r="0.3"/>
				<circle class="st1" cx="-19.4" cy="-15.8" r="0.3"/>
				<circle class="st1" cx="-18.4" cy="-18.8" r="0.3"/>
				<circle class="st1" cx="-14.2" cy="-13.8" r="0.3"/>
				<circle class="st1" cx="-9.2" cy="-14.6" r="0.3"/>
				<circle class="st1" cx="-8.9" cy="-7.1" r="0.3"/>
				<circle class="st1" cx="-3.2" cy="-7.8" r="0.3"/>
				<circle class="st1" cx="2.1" cy="-13.4" r="0.3"/>
				<circle class="st1" cx="-1.4" cy="-18.3" r="0.3"/>
				<circle class="st1" cx="4.4" cy="-9" r="0.3"/>
				<circle class="st1" cx="-1.2" cy="-4.6" r="0.3"/>
				<circle class="st1" cx="-13.3" cy="-3.9" r="0.3"/>
				<circle class="st1" cx="-20.1" cy="15.2" r="0.3"/>
				<circle class="st1" cx="-27.8" cy="11" r="0.3"/>
				<circle class="st1" cx="-12.7" cy="-0.9" r="0.3"/>
				<circle class="st1" cx="-13.3" cy="3.9" r="0.3"/>
				<circle class="st1" cx="-7.7" cy="0.9" r="0.3"/>
				<circle class="st1" cx="-6.2" cy="4.9" r="0.3"/>
				<circle class="st1" cx="-4.7" cy="-2.6" r="0.3"/>
				<circle class="st1" cx="-12.1" cy="9.2" r="0.3"/>
				<circle class="st1" cx="-7.9" cy="9.6" r="0.3"/>
				<circle class="st1" cx="-3.9" cy="8.4" r="0.3"/>
				<circle class="st1" cx="-1.4" cy="3.4" r="0.3"/>
				<circle class="st1" cx="1.1" cy="3.9" r="0.3"/>
				<circle class="st1" cx="3.6" cy="-1.6" r="0.3"/>
				<circle class="st1" cx="6.3" cy="-2.6" r="0.3"/>
				<circle class="st1" cx="3.8" cy="8.1" r="0.3"/>
				<circle class="st1" cx="7.1" cy="9.7" r="0.3"/>
				<circle class="st1" cx="7.8" cy="5.4" r="0.3"/>
				<circle class="st1" cx="7.6" cy="2.4" r="0.3"/>
				<circle class="st1" cx="11.6" cy="6.9" r="0.3"/>
				<circle class="st1" cx="15.1" cy="5.2" r="0.3"/>
				<circle class="st1" cx="16.6" cy="1.1" r="0.3"/>
				<circle class="st1" cx="16.6" cy="-6.3" r="0.3"/>
				<circle class="st1" cx="-9.7" cy="16.1" r="0.3"/>
				<circle class="st1" cx="-3.4" cy="20.2" r="0.3"/>
				<circle class="st1" cx="-3.2" cy="16.1" r="0.3"/>
				<circle class="st1" cx="0.3" cy="12.2" r="0.3"/>
				<circle class="st1" cx="6.1" cy="16.1" r="0.3"/>
				<circle class="st1" cx="7.8" cy="20.9" r="0.3"/>
				<circle class="st1" cx="10.1" cy="16.4" r="0.3"/>
				<circle class="st1" cx="14.1" cy="14.9" r="0.3"/>
				<circle class="st1" cx="21.1" cy="22.4" r="0.3"/>
				<circle class="st1" cx="19.8" cy="19.4" r="0.3"/>
				<circle class="st1" cx="20" cy="14.6" r="0.3"/>
				<circle class="st1" cx="32.6" cy="20.2" r="0.3"/>
				<circle class="st1" cx="32.1" cy="17.2" r="0.3"/>
				<circle class="st1" cx="35.3" cy="14.7" r="0.3"/>
				<circle class="st1" cx="20" cy="9.8" r="0.3"/>
				<circle class="st1" cx="20.1" cy="4.4" r="0.3"/>
				<circle class="st1" cx="24.1" cy="5.9" r="0.3"/>
				<circle class="st1" cx="29.8" cy="7.4" r="0.3"/>
				<circle class="st1" cx="28.6" cy="3.4" r="0.3"/>
				<circle class="st1" cx="30.8" cy="3.4" r="0.3"/>
				<circle class="st1" cx="8.1" cy="-21.6" r="0.3"/>
				<circle class="st1" cx="8.8" cy="-16.1" r="0.3"/>
				<circle class="st1" cx="12.6" cy="-18.1" r="0.3"/>
				<circle class="st1" cx="19.8" cy="-4.8" r="0.3"/>
				<circle class="st1" cx="22.3" cy="-7.6" r="0.3"/>
				<circle class="st1" cx="21.4" cy="-15.8" r="0.3"/>
				<circle class="st1" cx="16.8" cy="-14.9" r="0.3"/>
				<circle class="st1" cx="17.4" cy="-9.6" r="0.3"/>
				<circle class="st1" cx="12.1" cy="-10.6" r="0.3"/>
				<circle class="st1" cx="12.8" cy="-14.1" r="0.3"/>
				<circle class="st1" cx="35.4" cy="-16.5" r="0.3"/>
				<circle class="st1" cx="28.3" cy="-13.8" r="0.3"/>
				<circle class="st1" cx="28.8" cy="-6.3" r="0.3"/>
				<circle class="st1" cx="34.1" cy="-6.6" r="0.3"/>
				<circle class="st1" cx="24.8" cy="-0.6" r="0.3"/>
				<circle class="st1" cx="20.1" cy="-0.6" r="0.3"/>
			</g>
		</g>
	</g>
</symbol>
<g id="Martini_c">
	<g>
		<linearGradient id="SVGID_1_" gradientUnits="userSpaceOnUse" x1="226.2742" y1="511.8846" x2="223.294" y2="906.2704">
			<stop  offset="0.7455" style="stop-color:#FFFFFF;stop-opacity:0.2"/>
			<stop  offset="1" style="stop-color:#FFFFFF;stop-opacity:0.4"/>
		</linearGradient>
		<path class="st2" d="M160,497.7c9.4,15.6,25.8,37.9,33,55.1c18.5,43.8,19.3,102.2,20.4,110.7c3.4,27.9,2.8,97.8,2.7,116
			c0,19.2-9,79.7-19.4,98.6c-7.6,13.8,11.7,22.7,34,22.9c23.8,0.2,42.3-5.8,29.7-26.3c-8.6-14-15.7-78.1-15.9-97.1
			c-0.3-39-6.2-148.4,18.5-226.6c3.6-11.4,21-39.3,29.8-54.8"/>
	</g>
	<g>
		<path class="st1" d="M414.2,285.3c0.1-0.2,0.3-0.5,0.4-0.7C414.6,284.9,414.5,285.1,414.2,285.3z"/>
	</g>
	<g class="st3">
		<path class="st4" d="M422.7,285.5c0-2.7-90.2-5.8-201.5-5.8s-201.5-2-201.5,5.8c0,0,0,0.1,0,0.1L422.7,285.5
			c-0.2,0.3-0.5,0.7-0.7,1.1C422.4,286.3,422.7,285.9,422.7,285.5z"/>
	</g>
	<g class="st3">
		<path class="st4" d="M414.6,284.6C414.6,284.6,414.6,284.6,414.6,284.6C414.6,284.6,414.6,284.6,414.6,284.6L414.6,284.6z"/>
	</g>
	<g class="st5">
		<path class="st4" d="M221.2,293.3c-107.1-0.2-194.7,0-201.1-6.9c2.2,3.9,7.1,11.9,14,22.5c9,13.8,327.2,20.8,371.1,4.9
			c7.8-12.6,13.8-22.2,16.9-27.2C413.4,293.3,326.7,293.4,221.2,293.3z"/>
	</g>
	<g>
		<linearGradient id="SVGID_2_" gradientUnits="userSpaceOnUse" x1="19.6401" y1="289.4158" x2="422.6852" y2="289.4158">
			<stop  offset="0.1226" style="stop-color:#B85D48"/>
			<stop  offset="0.4422" style="stop-color:#EC6346"/>
			<stop  offset="0.5567" style="stop-color:#ED674D"/>
			<stop  offset="0.7252" style="stop-color:#EF7261"/>
			<stop  offset="0.9263" style="stop-color:#F38381"/>
			<stop  offset="1" style="stop-color:#F58B8F"/>
		</linearGradient>
		<path class="st6" d="M19.6,285.6C19.6,285.6,19.6,285.7,19.6,285.6c0.1,0.3,0.2,0.5,0.4,0.7c6.5,6.9,94,6.8,201.1,6.9
			c105.6,0.1,192.2,0,200.8-6.6c0.3-0.4,0.5-0.8,0.7-1.1L19.6,285.6z"/>
	</g>
	<g class="st3">
		<path class="st4" d="M19.6,285.6C19.6,285.6,19.6,285.7,19.6,285.6c0.1,0.3,0.2,0.5,0.4,0.7c6.5,6.9,94,6.8,201.1,6.9
			c105.6,0.1,192.2,0,200.8-6.6c0.3-0.4,0.5-0.8,0.7-1.1L19.6,285.6z"/>
	</g>
	<path class="st7" d="M422.7,285.5c-0.2,0.3-0.5,0.7-0.7,1.1C422.4,286.3,422.7,285.9,422.7,285.5c0-2.7-90.2-5.8-201.5-5.8
		s-201.5-2-201.5,5.8c0,0,0,0.1,0,0.1"/>
	<path class="st7" d="M19.6,285.6C19.6,285.6,19.6,285.7,19.6,285.6c0.1,0.3,0.2,0.5,0.4,0.7c6.5,6.9,94,6.8,201.1,6.9
		c105.6,0.1,192.2,0,200.8-6.6c0.3-0.4,0.5-0.8,0.7-1.1"/>
	<linearGradient id="SVGID_3_" gradientUnits="userSpaceOnUse" x1="226.3283" y1="494.9365" x2="234.2779" y2="761.2469">
		<stop  offset="0" style="stop-color:#000000;stop-opacity:0.1"/>
		<stop  offset="1.862801e-02" style="stop-color:#333333;stop-opacity:0.1458"/>
		<stop  offset="4.714007e-02" style="stop-color:#7B7B7B;stop-opacity:0.2158"/>
		<stop  offset="7.278500e-02" style="stop-color:#B3B3B3;stop-opacity:0.2788"/>
		<stop  offset="9.461406e-02" style="stop-color:#DDDDDD;stop-opacity:0.3324"/>
		<stop  offset="0.1118" style="stop-color:#F6F6F6;stop-opacity:0.3745"/>
		<stop  offset="0.1221" style="stop-color:#FFFFFF;stop-opacity:0.4"/>
		<stop  offset="1" style="stop-color:#FFFFFF;stop-opacity:0"/>
	</linearGradient>
	<path class="st8" d="M206.7,555c-5.6-25.6,38.9-17.5,37.9,0c-0.4,7.3-3.7,79.3-3.7,94.1s3.6,128.4,3.6,128.4
		c-0.3-39-6.2-148.4,18.5-226.6c3.6-11.4,21-39.3,29.8-54.8L160,497.7c9.4,15.6,25.8,37.9,33,55.1c18.5,43.8,19.3,102.2,20.4,110.7
		c1.8,15.3,2.5,43.1,2.7,68.2c0-1.3,1.8-68.9,1.9-99.3C218,601.6,208.7,563.9,206.7,555z"/>
	<g>
		<linearGradient id="SVGID_4_" gradientUnits="userSpaceOnUse" x1="219.688" y1="321.6499" x2="223.2938" y2="567.7439">
			<stop  offset="0" style="stop-color:#F58B8F"/>
			<stop  offset="5.830022e-02" style="stop-color:#E57F7D"/>
			<stop  offset="0.1534" style="stop-color:#D17065"/>
			<stop  offset="0.2553" style="stop-color:#C36555"/>
			<stop  offset="0.368" style="stop-color:#BB5F4B"/>
			<stop  offset="0.5123" style="stop-color:#B85D48"/>
			<stop  offset="1" style="stop-color:#C16B08"/>
		</linearGradient>
		<path class="st9" d="M34,308.9c36.5,56.6,126,188.8,126,188.8s27.6,17.7,66.4,18.5c38.8,0.8,66.4-20,66.4-20
			s75.8-123.3,112.3-182.3C361.2,329.7,43,322.7,34,308.9z"/>
	</g>
	<g>
		
			<radialGradient id="SVGID_5_" cx="221.4934" cy="294.62" r="254.672" gradientTransform="matrix(1.0378 0 0 0.5109 -5.5941 144.1022)" gradientUnits="userSpaceOnUse">
			<stop  offset="0" style="stop-color:#F58B8F;stop-opacity:0.6"/>
			<stop  offset="0.2041" style="stop-color:#F8A9AC;stop-opacity:0.4775"/>
			<stop  offset="0.5645" style="stop-color:#FCD7D9;stop-opacity:0.2613"/>
			<stop  offset="0.8416" style="stop-color:#FEF4F5;stop-opacity:9.502286e-02"/>
			<stop  offset="1" style="stop-color:#FFFFFF;stop-opacity:0"/>
		</radialGradient>
		<path class="st10" d="M34,308.9c36.5,56.6,126,188.8,126,188.8s27.6,17.7,66.4,18.5c38.8,0.8,66.4-20,66.4-20
			s75.8-123.3,112.3-182.3C361.2,329.7,43,322.7,34,308.9z"/>
	</g>
	<g>
		<linearGradient id="SVGID_6_" gradientUnits="userSpaceOnUse" x1="229.5432" y1="869.606" x2="229.5432" y2="908.2125">
			<stop  offset="0" style="stop-color:#FFFFFF;stop-opacity:0"/>
			<stop  offset="1" style="stop-color:#FFFFFF;stop-opacity:0.8"/>
		</linearGradient>
		<path class="st11" d="M258.1,870.1c-8.2,3.1-19.3,6.5-28.5,6.4c-12-0.1-23.7-3.3-30-5.3c-1,2.6-2,5-3.1,6.9
			c-7.6,13.8,11.7,22.7,34,22.9c23.8,0.2,42.3-5.8,29.7-26.3C259.5,873.4,258.8,871.9,258.1,870.1z"/>
	</g>
	<g>
		
			<radialGradient id="SVGID_7_" cx="257.2829" cy="921.7369" r="138.4624" gradientTransform="matrix(0.9852 -0.3141 0.2262 0.6588 -200.5923 395.3292)" gradientUnits="userSpaceOnUse">
			<stop  offset="0" style="stop-color:#FFFFFF;stop-opacity:0.4"/>
			<stop  offset="0.8788" style="stop-color:#FFFFFF;stop-opacity:0.2"/>
		</radialGradient>
		<path class="st12" d="M261.7,877l-0.2,0c9.7,18.6-8.3,24-31.1,23.9c-21.1-0.1-39.5-8.1-34.9-20.7C103.3,891.4,84,917.6,85.7,940.5
			c2.8,37.8,83.2,46.8,136.6,46.2c62.9-0.7,150.9-15.9,151.2-63.1C373.7,898.6,312.6,874.7,261.7,877z"/>
	</g>
	<g>
		
			<radialGradient id="SVGID_8_" cx="257.2829" cy="921.7369" r="138.4624" gradientTransform="matrix(0.9852 -0.3141 0.2262 0.6588 -200.5923 395.3292)" gradientUnits="userSpaceOnUse">
			<stop  offset="0" style="stop-color:#000000;stop-opacity:0.4"/>
			<stop  offset="0.8788" style="stop-color:#000000;stop-opacity:0.2"/>
		</radialGradient>
		<path class="st13" d="M261.7,877l-0.2,0c0.1,0.1,0.1,0.2,0.2,0.3c47.4-1.5,103.1,20.6,103,43.7c-0.3,44.3-82.9,58.6-141.9,59.2
			c-50.2,0.5-125.7-7.9-128.3-43.4c-1.5-21.3,16.3-45.6,100.9-56.3c0.1-0.2,0.1-0.3,0.1-0.5C103.3,891.4,84,917.6,85.7,940.5
			c2.8,37.8,83.2,46.8,136.6,46.2c62.9-0.7,150.9-15.9,151.2-63.1C373.7,898.6,312.6,874.7,261.7,877z"/>
	</g>
	<g>
		
			<linearGradient id="SVGID_9_" gradientUnits="userSpaceOnUse" x1="-119.8241" y1="269.7314" x2="-133.7254" y2="287.3397" gradientTransform="matrix(-1 0 0 1 209.7231 0)">
			<stop  offset="0.1848" style="stop-color:#503A16"/>
			<stop  offset="0.4124" style="stop-color:#542A08"/>
			<stop  offset="0.6166" style="stop-color:#562000"/>
			<stop  offset="0.6906" style="stop-color:#71401C"/>
			<stop  offset="0.8516" style="stop-color:#B69162"/>
			<stop  offset="1" style="stop-color:#F9E0A7"/>
		</linearGradient>
		<polygon class="st14" points="345,275.4 327,285.6 341.3,286 346.5,284.2 349.5,283.6 347.8,273.8 		"/>
	</g>
	
		<linearGradient id="SVGID_10_" gradientUnits="userSpaceOnUse" x1="-161.482" y1="223.4375" x2="-205.2999" y2="278.9401" gradientTransform="matrix(-1 0 0 1 209.7231 0)">
		<stop  offset="0" style="stop-color:#C16B08"/>
		<stop  offset="0.1344" style="stop-color:#D18006"/>
		<stop  offset="0.349" style="stop-color:#E59C04"/>
		<stop  offset="0.5652" style="stop-color:#F3B002"/>
		<stop  offset="0.7819" style="stop-color:#FCBC01"/>
		<stop  offset="1" style="stop-color:#FFC001"/>
	</linearGradient>
	<polygon class="st15" points="381.2,286 372.6,267.6 374.9,249.7 380.9,238 401.1,228.1 418.7,230.8 429,244 427.8,263.6 
		426.5,269.9 440.4,252.2 442.8,238 437.5,223.3 419.5,212.7 399.9,210.7 379.9,217.2 364.3,228.9 353.8,248.1 350.9,267.8 
		354,285.8 	"/>
	<g>
		<path class="st16" d="M418.7,271.7c-13.6-13.1-14.4-31-8.2-37.9l-11.9-3l-21.8,10.3l-3.4,20.6l8.8,19.2l20.2,4.5L418.7,271.7z"/>
	</g>
	<g>
		
			<linearGradient id="SVGID_11_" gradientUnits="userSpaceOnUse" x1="-252.7029" y1="214.8294" x2="-171.8086" y2="278.5506" gradientTransform="matrix(-1 0 0 1 209.7231 0)">
			<stop  offset="0" style="stop-color:#F9E0A7"/>
			<stop  offset="0.1017" style="stop-color:#FAD984"/>
			<stop  offset="0.2377" style="stop-color:#FCD25C"/>
			<stop  offset="0.3781" style="stop-color:#FDCB3B"/>
			<stop  offset="0.5217" style="stop-color:#FEC622"/>
			<stop  offset="0.6698" style="stop-color:#FEC30F"/>
			<stop  offset="0.8253" style="stop-color:#FFC105"/>
			<stop  offset="1" style="stop-color:#FFC001"/>
		</linearGradient>
		<path class="st17" d="M390.8,290.4c2.5,3.7,24.9,7.1,38.9,8.6c14,1.4,44.5-11.5,48.7-38.9c4.2-27.4-11.4-40-26.5-53.9
			c-15.4-14.2-67.5-8.5-77.2,6.7l47.2,2.4l20.4,18.6l-2.9,25.2l-26.8,21.9L390.8,290.4z"/>
	</g>
	<g>
		
			<linearGradient id="SVGID_12_" gradientUnits="userSpaceOnUse" x1="-186.9234" y1="234.7041" x2="-210.6513" y2="259.5619" gradientTransform="matrix(-1 0 0 1 209.7231 0)">
			<stop  offset="0" style="stop-color:#503A16"/>
			<stop  offset="0.1571" style="stop-color:#542A08"/>
			<stop  offset="0.2982" style="stop-color:#562000"/>
			<stop  offset="0.4335" style="stop-color:#71401C"/>
			<stop  offset="0.7283" style="stop-color:#B69162"/>
			<stop  offset="1" style="stop-color:#F9E0A7"/>
		</linearGradient>
		<path class="st18" d="M417.1,234.7L393,249.2c0,0-1.3,8.1,0.8,9.8l31.4-17.3l-0.9-5.2L417.1,234.7z"/>
	</g>
	<g>
		
			<linearGradient id="SVGID_13_" gradientUnits="userSpaceOnUse" x1="-249.2699" y1="210.9597" x2="-256.2707" y2="220.9164" gradientTransform="matrix(-1 0 0 1 209.7231 0)">
			<stop  offset="0" style="stop-color:#562000"/>
			<stop  offset="0.2278" style="stop-color:#855831"/>
			<stop  offset="0.492" style="stop-color:#B79263"/>
			<stop  offset="0.7182" style="stop-color:#DBBC88"/>
			<stop  offset="0.8948" style="stop-color:#F1D69F"/>
			<stop  offset="1" style="stop-color:#F9E0A7"/>
		</linearGradient>
		<path class="st19" d="M472.7,215.5l-13.8,7.6c0,0-2.9-0.8-6.9-7.3l14.9-8.4"/>
	</g>
	<g>
		
			<linearGradient id="SVGID_14_" gradientUnits="userSpaceOnUse" x1="-288.9731" y1="170.9667" x2="-272.5146" y2="230.9607" gradientTransform="matrix(-1 0 0 1 209.7231 0)">
			<stop  offset="0" style="stop-color:#503A16"/>
			<stop  offset="7.484684e-02" style="stop-color:#725C33"/>
			<stop  offset="0.2128" style="stop-color:#AC9465"/>
			<stop  offset="0.331" style="stop-color:#D6BD89"/>
			<stop  offset="0.4234" style="stop-color:#EFD79F"/>
			<stop  offset="0.4788" style="stop-color:#F9E0A7"/>
			<stop  offset="0.5042" style="stop-color:#E9CD97"/>
			<stop  offset="0.5815" style="stop-color:#BD9969"/>
			<stop  offset="0.6574" style="stop-color:#986E43"/>
			<stop  offset="0.7303" style="stop-color:#7B4C26"/>
			<stop  offset="0.7994" style="stop-color:#673411"/>
			<stop  offset="0.8632" style="stop-color:#5A2504"/>
			<stop  offset="0.9165" style="stop-color:#562000"/>
		</linearGradient>
		<path class="st20" d="M467.3,192.8L467.3,192.8c-0.3,1.2-0.4,2.5-0.4,3.9c0,10.7,8,21.3,19.1,21.3c11.1,0,19.1-10.6,19.1-21.3
			c0-10.7-7-19.4-18-19.4c-2.3,0-4.5,0.4-6.6,1.1l0,0c9.6-6.8,30.1-2.2,33.6,9.4c3.5,11.6,1,27.7-10.6,31.7
			c-11.6,4-24.3,2.5-32.2-5.1C462.4,205.8,467.3,192.8,467.3,192.8z"/>
	</g>
	<g>
		
			<linearGradient id="SVGID_15_" gradientUnits="userSpaceOnUse" x1="-275.9526" y1="178.1714" x2="-274.1728" y2="231.5673" gradientTransform="matrix(-1 0 0 1 209.7231 0)">
			<stop  offset="3.648919e-02" style="stop-color:#503A16"/>
			<stop  offset="0.4428" style="stop-color:#F9E0A7"/>
			<stop  offset="0.5071" style="stop-color:#EFD79F"/>
			<stop  offset="0.6147" style="stop-color:#D6BD89"/>
			<stop  offset="0.7523" style="stop-color:#AC9465"/>
			<stop  offset="0.9129" style="stop-color:#725C33"/>
			<stop  offset="1" style="stop-color:#503A16"/>
		</linearGradient>
		<path class="st21" d="M487,177.3c8,0,13.8,4.5,16.4,11c-0.7-0.5-15.6-11.4-23.7,2c-6.6,10.9-2.6,22.6,11.4,26.9
			c-1.6,0.5-3.4,0.8-5.2,0.8c-11.1,0-19.1-10.6-19.1-21.3C466.9,185.9,475.9,177.3,487,177.3z"/>
	</g>
	<g>
		<g>
			<path class="st22" d="M465.9,196.6c0-11.2,9.5-20.3,21.1-20.3c11,0,19.1,8.6,19.1,20.3c0,10.8-8.1,22.3-20.1,22.3
				C474,218.9,465.9,207.4,465.9,196.6z M468,196.6c0,9.8,7.3,20.3,18,20.3c10.8,0,18-10.5,18-20.3c0-10.8-7-18.4-17-18.4
				C476.5,178.3,468,186.5,468,196.6z"/>
		</g>
	</g>
	<g>
		
			<linearGradient id="SVGID_16_" gradientUnits="userSpaceOnUse" x1="-234.932" y1="212.8718" x2="-136.2918" y2="290.5715" gradientTransform="matrix(-1 0 0 1 209.7231 0)">
			<stop  offset="0" style="stop-color:#F9E0A7"/>
			<stop  offset="0.1017" style="stop-color:#FAD984"/>
			<stop  offset="0.2377" style="stop-color:#FCD25C"/>
			<stop  offset="0.3781" style="stop-color:#FDCB3B"/>
			<stop  offset="0.5217" style="stop-color:#FEC622"/>
			<stop  offset="0.6698" style="stop-color:#FEC30F"/>
			<stop  offset="0.8253" style="stop-color:#FFC105"/>
			<stop  offset="1" style="stop-color:#FFC001"/>
		</linearGradient>
		<path class="st23" d="M346.8,285.6c-7.2-34.1,7.6-61.2,29.1-73.3s74.7-8.2,76.1,27.2c1.3,35.4-30.8,46.3-51,50.3
			c-22.8,4.5-40.7-16.6-35.8-36c4.9-19.2,30.6-40,50.6-28.5c21,12.1,18.8,25.2,16.9,32.3c-0.5,2-4.8,6-4.8,6s3.3-25.5-10.7-28.9
			c-18.6-4.4-39.7,6-35.2,24.6c2,8.1,1.8,16.1,8.1,20.7c3,2.2,21.4-4.7,32.9-10.3c18.4-9.1,17.9-29.7,11.2-41.4
			c-5.5-9.6-25.5-14.2-40.3-11.2c-14.8,3-29.5,21.4-33.2,29.3c-5.3,11.1-4.2,34.6,2,39.4"/>
	</g>
</g>
<g id="Martini_d">
	<defs>
		<filter id="Adobe_OpacityMaskFilter" filterUnits="userSpaceOnUse" x="374.8" y="198" width="104.4" height="101.1">
			<feColorMatrix  type="matrix" values="1 0 0 0 0  0 1 0 0 0  0 0 1 0 0  0 0 0 1 0"/>
		</filter>
	</defs>
	<mask maskUnits="userSpaceOnUse" x="374.8" y="198" width="104.4" height="101.1" id="SVGID_17_">
		<g class="st24">
			<g>
				
					<use xlink:href="#Stipple"  width="71.5" height="45.5" x="-35.7" y="-22.8" transform="matrix(-1.0213 0 0 -0.9841 352.7903 182.2299)" style="overflow:visible;"/>
				
					<use xlink:href="#Stipple"  width="71.5" height="45.5" x="-35.7" y="-22.8" transform="matrix(-1.0213 0 0 -0.9841 364.1238 206.1617)" style="overflow:visible;"/>
				
					<use xlink:href="#Stipple"  width="71.5" height="45.5" x="-35.7" y="-22.8" transform="matrix(-1.0213 0 0 -0.9841 394.5175 181.337)" style="overflow:visible;"/>
				
					<use xlink:href="#Stipple"  width="71.5" height="45.5" x="-35.7" y="-22.8" transform="matrix(-1.0213 0 0 -0.9841 426.0981 167.071)" style="overflow:visible;"/>
				
					<use xlink:href="#Stipple"  width="71.5" height="45.5" x="-35.7" y="-22.8" transform="matrix(-1.0213 0 0 -0.9841 433.1983 196.8212)" style="overflow:visible;"/>
				
					<use xlink:href="#Stipple"  width="71.5" height="45.5" x="-35.7" y="-22.8" transform="matrix(-1.0213 0 0 -0.9841 467.4922 200.7692)" style="overflow:visible;"/>
				
					<use xlink:href="#Stipple"  width="71.5" height="45.5" x="-35.7" y="-22.8" transform="matrix(-1.0213 0 0 -0.9841 441.8643 233.5896)" style="overflow:visible;"/>
				
					<use xlink:href="#Stipple"  width="71.5" height="45.5" x="-35.7" y="-22.8" transform="matrix(-1.0213 0 0 -0.9841 478.5164 242.6005)" style="overflow:visible;"/>
				
					<use xlink:href="#Stipple"  width="71.5" height="45.5" x="-35.7" y="-22.8" transform="matrix(-1.0213 0 0 -0.9841 476.3781 271.601)" style="overflow:visible;"/>
				
					<use xlink:href="#Stipple"  width="71.5" height="45.5" x="-35.7" y="-22.8" transform="matrix(-1.0213 0 0 -0.9841 468.4647 299.5439)" style="overflow:visible;"/>
				
					<use xlink:href="#Stipple"  width="71.5" height="45.5" x="-35.7" y="-22.8" transform="matrix(-1.0213 0 0 -0.9841 439.0067 290.0787)" style="overflow:visible;"/>
				
					<use xlink:href="#Stipple"  width="71.5" height="45.5" x="-35.7" y="-22.8" transform="matrix(-1.0213 0 0 -0.9841 419.2093 315.0712)" style="overflow:visible;"/>
				
					<use xlink:href="#Stipple"  width="71.5" height="45.5" x="-35.7" y="-22.8" transform="matrix(-1.0213 0 0 -0.9841 388.7389 299.7346)" style="overflow:visible;"/>
				
					<use xlink:href="#Stipple"  width="71.5" height="45.5" x="-35.7" y="-22.8" transform="matrix(-1.0213 0 0 -0.9841 404.515 279.6228)" style="overflow:visible;"/>
			</g>
		</g>
	</mask>
	<g class="st25">
		<path class="st26" d="M390.8,290.4c2.5,3.7,24.9,7.1,38.9,8.6c14,1.4,44.5-11.5,48.7-38.9c4.2-27.4-11.4-40-26.5-53.9
			c-15.4-14.2-67.5-8.5-77.2,6.7l47.2,2.4l20.4,18.6l-2.9,25.2l-26.8,21.9L390.8,290.4z"/>
	</g>
	<defs>
		<filter id="Adobe_OpacityMaskFilter_1_" filterUnits="userSpaceOnUse" x="345" y="206.4" width="107" height="84.2">
			<feColorMatrix  type="matrix" values="1 0 0 0 0  0 1 0 0 0  0 0 1 0 0  0 0 0 1 0"/>
		</filter>
	</defs>
	<mask maskUnits="userSpaceOnUse" x="345" y="206.4" width="107" height="84.2" id="SVGID_18_">
		<g class="st27">
			<g>
				
					<use xlink:href="#Stipple"  width="71.5" height="45.5" x="-35.7" y="-22.8" transform="matrix(-1.0213 0 0 -0.9841 405.8463 206.0519)" style="overflow:visible;"/>
				
					<use xlink:href="#Stipple"  width="71.5" height="45.5" x="-35.7" y="-22.8" transform="matrix(-1.0213 0 0 -0.9841 381.9416 207.2436)" style="overflow:visible;"/>
				
					<use xlink:href="#Stipple"  width="71.5" height="45.5" x="-35.7" y="-22.8" transform="matrix(-1.0213 0 0 -0.9841 341.9189 228.6408)" style="overflow:visible;"/>
				
					<use xlink:href="#Stipple"  width="71.5" height="45.5" x="-35.7" y="-22.8" transform="matrix(-1.0213 0 0 -0.9841 334.4823 264.2602)" style="overflow:visible;"/>
				
					<use xlink:href="#Stipple"  width="71.5" height="45.5" x="-35.7" y="-22.8" transform="matrix(-1.0213 0 0 -0.9841 361.4527 277.4898)" style="overflow:visible;"/>
			</g>
		</g>
	</mask>
	<g class="st28">
		<path class="st26" d="M346.8,285.9c-7.2-34.1,7.6-61.2,29.1-73.3s74.7-8.2,76.1,27.2c1.3,35.4-30.8,46.3-51,50.3
			c-22.8,4.5-40.7-16.6-35.8-36c4.9-19.2,30.6-40,50.6-28.5c21,12.1,18.8,25.2,16.9,32.3c-0.5,2-4.8,6-4.8,6s3.3-25.5-10.7-28.9
			c-18.6-4.4-39.7,6-35.2,24.6c2,8.1,1.8,16.1,8.1,20.7c3,2.2,21.4-4.7,32.9-10.3c18.4-9.1,17.9-29.7,11.2-41.4
			c-5.5-9.6-25.5-14.2-40.3-11.2c-14.8,3-29.5,21.4-33.2,29.3c-5.3,11.1-4.2,34.6,2,39.4"/>
	</g>
</g>
<g id="Coupe_c">
	<g class="st29">
		<path class="st1" d="M1576.1,316.5c-109.4,0-198.2-4.4-198.1,0c0.1,4.4,96.8,8.2,198.1,8.2c109.4,0,197,5,197,0.6
			C1773,321,1685.5,316.5,1576.1,316.5z"/>
	</g>
	<path class="st30" d="M1773,325.4c0-4.4-87.6-8.9-197-8.9c-109.4,0-198.2-4.4-198.1,0"/>
	<g class="st31">
		<path class="st32" d="M1612.5,896.5L1612.5,896.5c16.5,11.6-12,23.1-38.1,23c-23,0-48.7-11.8-43.5-20.5
			c-13.3,4.8-111.3,7.7-111,37.5c0.3,29.8,93,46,156.1,44.6c63.1-1.3,158.9-12.6,159.3-45C1735.5,903.8,1628.8,904.2,1612.5,896.5z"
			/>
	</g>
	<g class="st33">
		
			<radialGradient id="SVGID_19_" cx="1562.4075" cy="985.5291" r="158.4816" gradientTransform="matrix(0.9444 0 0 1 103.3503 0)" gradientUnits="userSpaceOnUse">
			<stop  offset="0" style="stop-color:#FFFFFF;stop-opacity:0.7"/>
			<stop  offset="1" style="stop-color:#FFFFFF;stop-opacity:0.3"/>
		</radialGradient>
		<path class="st34" d="M1722.1,919.2c8.1,4.4,13.2,9.9,13.1,17c-0.3,32.4-96.2,43.6-159.3,45c-63.1,1.3-155.8-14.9-156.1-44.6
			c-0.1-6.7,4.9-12.1,12.7-16.4c-11.7,5.1-19.6,11.8-19.5,20.7c0.3,32,97,49.4,162.8,48c65.8-1.4,165.8-13.5,166.1-48.3
			C1742.1,931.2,1734.2,924.4,1722.1,919.2z"/>
	</g>
	<g class="st35">
		<path class="st32" d="M1612.4,896.5c-1.3-0.9-2.9-1.8-4.7-2.7c-18.1-8.8-17.6-109.8-17.9-134.4c-0.8-66.4,0.7-175.7,30-182.2
			h-94.5c13.9,9.2,21.4,40.7,24.9,58c7.5,36.6,8.4,103.4,8.5,127c0.1,25,4.8,118.8-23.6,133.4c-2.1,1.1-3.5,2.3-4.2,3.5
			c-5.2,8.7,20.5,20.5,43.5,20.5C1600.4,919.6,1628.9,908.1,1612.4,896.5z"/>
	</g>
	<g class="st36">
		<linearGradient id="SVGID_20_" gradientUnits="userSpaceOnUse" x1="1574.9646" y1="798.998" x2="1572.4911" y2="575.1487">
			<stop  offset="0" style="stop-color:#FFFFFF;stop-opacity:0.1"/>
			<stop  offset="0.9084" style="stop-color:#FFFFFF;stop-opacity:0.5"/>
			<stop  offset="0.9858" style="stop-color:#FFFFFF;stop-opacity:0.9"/>
		</linearGradient>
		<path class="st37" d="M1558.7,762.2c0,8.1,0.6,23.6,0.3,41.2c3.2-26.5,1.9-57,1.9-68.9c-0.1-20-4.7-75.8-7.2-107.4
			c-1.8-23.2,41.3-26.7,37.7-0.5c-4.5,32.4-4.7,74.5-4.3,105.6c0.2,13.1,0.1,51.9,3.8,80.6c-1-22.7-1-43.8-1.1-53.4
			c-0.8-66.4,0.7-175.7,30-182.2h-94.5c13.9,9.2,21.4,40.7,24.9,58C1557.7,671.7,1558.6,738.5,1558.7,762.2z"/>
	</g>
	<g class="st38">
		
			<radialGradient id="SVGID_21_" cx="1557.0133" cy="908.6843" r="33.4995" gradientTransform="matrix(0.9444 0 0 1 103.3503 0)" gradientUnits="userSpaceOnUse">
			<stop  offset="0" style="stop-color:#FFFFFF;stop-opacity:0.6"/>
			<stop  offset="1" style="stop-color:#FFFFFF;stop-opacity:0.2"/>
		</radialGradient>
		<path class="st39" d="M1574.4,911.9c-17.6,0-36.8-6.9-42.5-14.1c-0.4,0.4-0.8,0.8-1,1.3c-5.2,8.7,20.5,20.5,43.5,20.5
			c23.6,0,49.3-9.4,41.5-19.8C1610.7,906.7,1592,911.9,1574.4,911.9z"/>
	</g>
	<g class="st40">
		
			<radialGradient id="SVGID_22_" cx="1630.2998" cy="909.4093" r="25.7903" gradientTransform="matrix(0.6678 0 0 0.6979 485.5928 235.7993)" gradientUnits="userSpaceOnUse">
			<stop  offset="0" style="stop-color:#FFFFFF;stop-opacity:0.6"/>
			<stop  offset="1" style="stop-color:#FFFFFF;stop-opacity:0.2"/>
		</radialGradient>
		<path class="st41" d="M1575,875.9c-10.1,0-18.9-11.1-22.2-15.1c-0.2,0.2-0.4,0.5-0.6,0.7c-2.9,4.9,9.6,18.7,22.7,18.7
			c13.5,0,25.4-12.5,20.9-18.3C1593,865.8,1585.1,875.9,1575,875.9z"/>
	</g>
	<g>
		<path class="st42" d="M1683,406.6c-46-82.3,37.2-138.1,90-149.8c40-8.8,153.3,15,135.8,79L1683,406.6z"/>
	</g>
	<g>
		<path class="st43" d="M1908.8,335.7L1683,406.6c-20.8-43.8,16.3-109.2,81-128.9C1828.8,257.9,1902.2,290.4,1908.8,335.7z"/>
	</g>
	<g>
		<path class="st44" d="M1764,271.6c-46.9,17.1-107,70.8-81,134.9c-1.9-32.4,15.8-97.9,74-119.1c71.3-26,143.1,16,151.8,48.2
			C1904.4,280.6,1807.6,255.7,1764,271.6z"/>
	</g>
	<g class="st45">
		
			<radialGradient id="SVGID_23_" cx="1556.2635" cy="346.0468" r="177.8286" gradientTransform="matrix(0.9444 0 0 1 103.3503 0)" gradientUnits="userSpaceOnUse">
			<stop  offset="0" style="stop-color:#FFFFFF;stop-opacity:0.4"/>
			<stop  offset="1" style="stop-color:#FFFFFF"/>
		</radialGradient>
		<path class="st46" d="M1773,325.4c0,4.4-87.6-0.6-197-0.6c-101.3,0-197.9-3.8-198.1-8.2c-5.3,11.8-8.9,24.2-9.6,46.2
			c23.3,19.8,390.7,14.1,409,0l0.3-0.1C1776.7,351,1775.2,338.4,1773,325.4z"/>
	</g>
	<path class="st30" d="M1773,325.4c0,4.4-87.6-0.6-197-0.6c-101.3,0-197.9-3.8-198.1-8.2"/>
	
		<radialGradient id="SVGID_24_" cx="1558.0027" cy="947.3998" r="102.2824" gradientTransform="matrix(0.9444 0 0 0.3493 103.3503 616.4509)" gradientUnits="userSpaceOnUse">
		<stop  offset="0" style="stop-color:#000000;stop-opacity:0.1"/>
		<stop  offset="1" style="stop-color:#FFFFFF;stop-opacity:0.2"/>
	</radialGradient>
	<path class="st47" d="M1496.2,904.3c0,0-21,6.6-27.7,15.2c-12.7,16.4-2.1,40.2,104.1,40.2c117.5,0,123.2-25.3,104.8-42.4
		c-9.4-8.7-34.8-15.3-34.8-15.3s25.4,6.7,32.4,15c11.7,14-4.3,32.6-102.4,32.6c-88.3,0-108-17-101.6-30.2
		C1475,911.2,1496.2,904.3,1496.2,904.3z"/>
	<g>
		<linearGradient id="SVGID_25_" gradientUnits="userSpaceOnUse" x1="1566.1931" y1="343.8602" x2="1603.415" y2="592.0067">
			<stop  offset="0" style="stop-color:#C68D81"/>
			<stop  offset="0.5274" style="stop-color:#AF3E37"/>
		</linearGradient>
		<path class="st48" d="M1777.4,362.8c-18.3,14.1-385.7,19.8-409,0c-0.1,2.3-0.1,4.8-0.1,7.4c-0.1,34.3-2.2,87.4,27,130.7
			s94,70.2,130,76.3c22.1,3.8,64.6,4.8,94.5,0c56.7-9.1,94.8-33.8,122.7-64.2c14.8-16.1,33.5-57,36.1-92c1-13.1,1.2-33.8-0.8-58.3
			L1777.4,362.8z"/>
	</g>
	<g class="st49">
		
			<radialGradient id="SVGID_26_" cx="1553.7471" cy="396.5548" r="272.8532" gradientTransform="matrix(0.9443 -1.478775e-02 8.826810e-03 0.632 100.0104 168.9135)" gradientUnits="userSpaceOnUse">
			<stop  offset="0" style="stop-color:#53010B;stop-opacity:0"/>
			<stop  offset="0.7935" style="stop-color:#53010B;stop-opacity:0.4"/>
			<stop  offset="1" style="stop-color:#53010B;stop-opacity:0"/>
		</radialGradient>
		<path class="st50" d="M1777.4,362.8c-18.3,14.1-385.7,19.8-409,0c-0.1,2.3-0.1,4.8-0.1,7.4c-0.1,34.3-2.2,87.4,27,130.7
			s94,70.2,130,76.3c22.1,3.8,64.6,4.8,94.5,0c56.7-9.1,94.8-33.8,122.7-64.2c14.8-16.1,33.5-57,36.1-92c1-13.1,1.2-33.8-0.8-58.3
			L1777.4,362.8z"/>
	</g>
	<g class="st51">
		<linearGradient id="SVGID_27_" gradientUnits="userSpaceOnUse" x1="1574.371" y1="336.6502" x2="1572.6448" y2="473.0216">
			<stop  offset="0" style="stop-color:#FFFFFF"/>
			<stop  offset="3.602481e-02" style="stop-color:#FAF5F3;stop-opacity:0.964"/>
			<stop  offset="0.161" style="stop-color:#EAD5D0;stop-opacity:0.839"/>
			<stop  offset="0.2938" style="stop-color:#DDBBB3;stop-opacity:0.7062"/>
			<stop  offset="0.4348" style="stop-color:#D3A69D;stop-opacity:0.5652"/>
			<stop  offset="0.5876" style="stop-color:#CC988D;stop-opacity:0.4124"/>
			<stop  offset="0.7612" style="stop-color:#C79084;stop-opacity:0.2388"/>
			<stop  offset="1" style="stop-color:#C68D81;stop-opacity:0"/>
		</linearGradient>
		<path class="st52" d="M1777.4,362.8c-18.3,14.1-385.7,19.8-409,0c-0.1,2.3-0.1,4.8-0.1,7.4c-0.1,34.3-2.2,87.4,27,130.7
			s94,70.2,130,76.3c22.1,3.8,64.6,4.8,94.5,0c56.7-9.1,94.8-33.8,122.7-64.2c14.8-16.1,33.5-57,36.1-92c1-13.1,1.2-33.8-0.8-58.3
			L1777.4,362.8z"/>
	</g>
	<g>
		<g>
			<path class="st53" d="M1374.9,671.2"/>
		</g>
	</g>
	<g>
		<path class="st54" d="M1573.6,366.6c-113.3,0-207.1-7.7-205.2-3.8c3.6,7.7,90.6,13.7,204.7,12.7c129.6-1.1,206.8-8,204.7-12.8
			C1775.9,358.7,1687,366.6,1573.6,366.6z"/>
	</g>
</g>
<g id="Coupe_d">
	<defs>
		<filter id="Adobe_OpacityMaskFilter_2_" filterUnits="userSpaceOnUse" x="1672" y="256.3" width="241" height="121.6">
			<feColorMatrix  type="matrix" values="1 0 0 0 0  0 1 0 0 0  0 0 1 0 0  0 0 0 1 0"/>
		</filter>
	</defs>
	<mask maskUnits="userSpaceOnUse" x="1672" y="256.3" width="241" height="121.6" id="SVGID_28_">
		<g class="st55">
			<g>
				
					<use xlink:href="#Stipple"  width="71.5" height="45.5" x="-35.7" y="-22.8" transform="matrix(1.3789 0 0 -1.3328 1937.6481 357.4331)" style="overflow:visible;"/>
				
					<use xlink:href="#Stipple"  width="71.5" height="45.5" x="-35.7" y="-22.8" transform="matrix(1.3789 0 0 -1.3328 1974.0043 340.2038)" style="overflow:visible;"/>
				
					<use xlink:href="#Stipple"  width="71.5" height="45.5" x="-35.7" y="-22.8" transform="matrix(1.3789 0 0 -1.3328 1962.2991 302.9686)" style="overflow:visible;"/>
				
					<use xlink:href="#Stipple"  width="71.5" height="45.5" x="-35.7" y="-22.8" transform="matrix(1.3789 0 0 -1.3328 1909.729 314.9237)" style="overflow:visible;"/>
				
					<use xlink:href="#Stipple"  width="71.5" height="45.5" x="-35.7" y="-22.8" transform="matrix(1.3789 0 0 -1.3328 1929.3297 254.6022)" style="overflow:visible;"/>
				
					<use xlink:href="#Stipple"  width="71.5" height="45.5" x="-35.7" y="-22.8" transform="matrix(1.3789 0 0 -1.3328 1885.3628 263.9657)" style="overflow:visible;"/>
				
					<use xlink:href="#Stipple"  width="71.5" height="45.5" x="-35.7" y="-22.8" transform="matrix(1.3789 0 0 -1.3328 1859.7311 221.1282)" style="overflow:visible;"/>
				
					<use xlink:href="#Stipple"  width="71.5" height="45.5" x="-35.7" y="-22.8" transform="matrix(1.3789 0 0 -1.3328 1814.2429 248.1068)" style="overflow:visible;"/>
				
					<use xlink:href="#Stipple"  width="71.5" height="45.5" x="-35.7" y="-22.8" transform="matrix(1.3789 0 0 -1.3328 1778.8875 213.7449)" style="overflow:visible;"/>
				
					<use xlink:href="#Stipple"  width="71.5" height="45.5" x="-35.7" y="-22.8" transform="matrix(1.3789 0 0 -1.3328 1739.4597 240.7604)" style="overflow:visible;"/>
				
					<use xlink:href="#Stipple"  width="71.5" height="45.5" x="-35.7" y="-22.8" transform="matrix(1.3789 0 0 -1.3328 1687.3727 246.3097)" style="overflow:visible;"/>
				
					<use xlink:href="#Stipple"  width="71.5" height="45.5" x="-35.7" y="-22.8" transform="matrix(1.3789 0 0 -1.3328 1700.0958 299.9421)" style="overflow:visible;"/>
				
					<use xlink:href="#Stipple"  width="71.5" height="45.5" x="-35.7" y="-22.8" transform="matrix(1.3789 0 0 -1.3328 1649.5076 282.7911)" style="overflow:visible;"/>
				
					<use xlink:href="#Stipple"  width="71.5" height="45.5" x="-35.7" y="-22.8" transform="matrix(1.3789 0 0 -1.3328 1631.5345 319.4869)" style="overflow:visible;"/>
				
					<use xlink:href="#Stipple"  width="71.5" height="45.5" x="-35.7" y="-22.8" transform="matrix(1.3789 0 0 -1.3328 1670.0088 366.004)" style="overflow:visible;"/>
				
					<use xlink:href="#Stipple"  width="71.5" height="45.5" x="-35.7" y="-22.8" transform="matrix(1.3789 0 0 -1.3328 1615.7283 369.1311)" style="overflow:visible;"/>
				
					<use xlink:href="#Stipple"  width="71.5" height="45.5" x="-35.7" y="-22.8" transform="matrix(1.3789 0 0 -1.3328 1611.115 405.7092)" style="overflow:visible;"/>
				
					<use xlink:href="#Stipple"  width="71.5" height="45.5" x="-35.7" y="-22.8" transform="matrix(1.3789 0 0 -1.3328 1648.6718 421.8687)" style="overflow:visible;"/>
			</g>
		</g>
	</mask>
	<g class="st56">
		<path class="st57" d="M1781.1,377.9l130.2-40.8c17.5-64-95.8-87.8-135.8-79c-43.4,9.6-107.1,48.9-103.2,108.1l91.8-3.3
			L1781.1,377.9z"/>
	</g>
	<path class="st58" d="M1766.2,304.7c1.2,6.7,2.8,13.4,4.9,19.9c0.9,2.8,2,5.8,4.2,7.7c2.2,1.9,5.7,3.2,5.6,6.2
		c1.3-1.7,1.1-4.3,0.1-6.2c-1-1.9-2.6-3.4-3.9-5.1c-3.3-4.2-5-9.4-6.7-14.5c-2.1-6.6-4.3-13.1-6.4-19.7c-0.6-2-1.4-3.5-3.1-4
		C1763.6,294,1765.2,298.9,1766.2,304.7z"/>
	<path class="st58" d="M1777.9,291.1c0.1,2.3-0.2,4.6,0.3,6.8c0.6,2.5,2.1,4.6,3.3,6.8c4.5,8.9,2.9,21,9.6,28.2
		c-0.9-3-1.8-6-2.7-8.9c-1.6-5.3-3.2-10.7-4.8-16c-2.1-7-4.3-14-6.8-21C1777.5,288.2,1777.8,289.6,1777.9,291.1z"/>
	<path class="st58" d="M1771.7,291.4c0.3,2.1,0.1,4.3,0.2,6.4c0.7,9.4,9,16.6,9.8,26c1.2-2,0.6-4.7-0.5-6.7c-1.2-2-2.8-3.6-4-5.7
		c-2.3-4.1-2-9.2-2.5-13.9c-0.4-4.1-1.6-8.1-4.8-10.7C1770.6,288.2,1771.5,289.9,1771.7,291.4z"/>
	<path class="st58" d="M1789.9,299.3c1.4,3.3,0.2,7.2,0.3,10.8c0,0.5,0.1,1.1,0.3,1.6c0.8,1.5,3.2,1.1,4-0.3c0.8-1.5,0.5-3.4-0.3-5
		c-0.8-1.5-1.9-2.8-2.6-4.4c-2-4.4-0.7-12-6-13.3C1785.8,293,1788.4,295.6,1789.9,299.3z"/>
	<path class="st58" d="M1743.2,306.5c2.9,7.2,4.3,15.1,4,23c-0.1,2.5-0.4,5.1,0.3,7.5c0.7,2.4,2.6,4.6,5,4.6
		c-1.6-9.4-3.2-18.9-4.8-28.3c-0.5-3.1-1.1-6.4-2.7-9c-1.2-2.1-3-3.5-5.1-3.8C1740.9,302.3,1742.4,304.4,1743.2,306.5z"/>
	<path class="st58" d="M1796.1,290.9c2.9,7.2,4.3,15.1,4,23c-0.1,2.5-0.4,5.1,0.3,7.5c0.7,2.4,2.6,4.6,5,4.6
		c-1.6-9.4-3.2-18.9-4.8-28.3c-0.5-3.1-1.1-6.4-2.7-9c-1.2-2.1-3-3.5-5.1-3.8C1793.8,286.7,1795.2,288.8,1796.1,290.9z"/>
	<path class="st58" d="M1787.5,338.1c2.9,7.2,4.3,15.1,4,23c-0.1,2.5-0.4,5.1,0.3,7.5c0.7,2.4,2.6,4.6,5,4.6
		c-1.6-9.4-3.2-18.9-4.8-28.3c-0.5-3.1-1.1-6.4-2.7-9c-1.2-2.1-3-3.5-5.1-3.8C1785.2,333.9,1786.7,336,1787.5,338.1z"/>
	<path class="st58" d="M1809.1,296.9c1,2.7,1.1,5.6,1.3,8.5c0.2,4.6,0.5,9.1,0.7,13.7c0.3-6.8,0.5-13.8-0.6-20.5
		c-0.9-5.8-3.3-14.7-8.5-17.2C1801.6,287.1,1807.2,291.6,1809.1,296.9z"/>
	<path class="st58" d="M1833.4,339.5c1,2.7,1.1,5.6,1.3,8.5c0.2,4.6,0.5,9.1,0.7,13.7c0.3-6.8,0.5-13.8-0.6-20.5
		c-0.9-5.8-3.3-14.7-8.5-17.2C1825.9,329.8,1831.4,334.2,1833.4,339.5z"/>
	<path class="st58" d="M1804.6,353.6c-0.5-2.3-1.4-4.6-2.2-6.8c-3.4-8.7-6-17.8-7.9-27.1c5.7,10.2,10.2,21.2,13.5,32.6
		C1811.4,364.7,1807,365.8,1804.6,353.6z"/>
	<path class="st58" d="M1818.9,365.5c1-2.2,0.6-4.9-0.9-6.7c-0.5-0.7-1.2-1.2-1.7-1.9c-1.4-1.9-1.5-4.5-1.8-6.9
		c-0.7-4.7-2.6-9.2-5.5-12.8c1.8,0.1,3.2,1.7,4.3,3.2c2,2.7,4,5.3,6,8c2,2.7,4,5.5,4.5,8.8c0.4,3.4-1.4,7.3-4.6,7.7"/>
	<path class="st58" d="M1818.8,328c2.6,8,5.4,16.1,10.2,22.8c-3.4-9.8-6.8-19.7-8.5-30c-0.7-4.4-1.1-9.1-3.5-12.6
		C1813.6,313.3,1817,322.5,1818.8,328z"/>
	<path class="st58" d="M1821.7,297.9c0.4,1.8,0.8,3.7,1.2,5.6c1.1,5.7,2.2,11.3,3.4,17c2.7-5.8,1-12.8-1.2-18.8s-4.9-12.2-4.3-18.7
		c0.1-1.2-3.8,0-4.1,0.3C1818,288.2,1820.4,292.8,1821.7,297.9z"/>
	<path class="st58" d="M1830.1,302.9c0.9,2.5,2.4,4.7,3.1,7.3c0.5,1.8,0.6,3.8,1,5.6c0.9,3.8,3.1,7,5.3,10.2
		c-2.3-3.4-1.8-15.6-2.8-20.1c-1.5-6.6-3.3-13.9-6.5-19.7C1827.1,289.9,1828.4,298.3,1830.1,302.9z"/>
	<path class="st58" d="M1858.2,316.5c0.2,0.3,0.1-0.9-0.1-0.5c-0.2,0.4,0,1.1,0.2,1.5c3.8,9,4.2,21.8,4.3,33.6
		c-3.4-9.2-4.9-22.6-5.8-33.9c-0.4-5.4,0.3-10.8-0.1-16.1c-0.1-1.9-3.1-11.3-3.2-10.1c-0.3,3.9,0.3,7.9,0.8,11.8
		c0.7,5.7,1.4,11.4,2.1,17.1"/>
	<path class="st58" d="M1863.3,305.2c0.7,1.1,1.8,1.8,2.7,2.7c1.8,1.9,2.5,4.7,3.1,7.4c1.1,4.5,2.1,9.1,3.2,13.6
		c-1.4-6,0.3-13-1.4-19.4c-1.7-6.4-4.7-12.7-8.9-17.7C1862.6,295.6,1861,301.9,1863.3,305.2z"/>
	<path class="st58" d="M1883.6,334.9c-1.2-0.6-2.6-1-3.6-2c-0.6-0.7-0.9-1.6-1.1-2.5c-1.7-6.2-2.6-12.7-2.7-19.2
		c1.5,3.7,3,7.3,4.9,10.8c2.1,3.7,4.7,7.2,6.4,11.1c1.8,4,3,9.2,0.6,12.9C1887.1,342.9,1887.6,337.1,1883.6,334.9z"/>
	<path class="st58" d="M1758,318.9c-0.3-8.8-6-16.9-5.6-25.7c1,4.4,3.6,8.3,5.5,12.4c1.9,4.1,3.2,9,1.5,13.2
		c-0.9-0.5-1.7-0.9-2.6-1.4"/>
	<path class="st58" d="M1887.1,309.8c1.2,5.7,2.6,11.3,4.1,16.9c0.9,3.5,1.9,7.2,4,10c-0.8-7.6-2.5-15.1-5-22.3
		c-0.6-1.7-1.5-3.7-3.3-4"/>
	<path class="st58" d="M1847.4,322.8c-0.3-3.6-0.6-7.2-1.9-10.5c-1.5-3.9-4.4-7.5-4-11.7c0.3,1.7,0.6,3.3,0.9,5
		c2.3-0.1,3.6,2.7,4.3,5c4,13.5,6.4,27.5,7.1,41.6c0.5,8.9-3.8-0.7-4.2-4.9C1848.8,339.1,1848.1,330.9,1847.4,322.8z"/>
	<path class="st58" d="M1733.1,319.2c2.1,5.6,4.3,11.3,5.6,17.2c0.7,3.2,1.2,6.5,2.7,9.5c2.2-3.5,1.5-8.1,0.2-12.1
		c-1.3-3.9-3.3-7.7-3.6-11.9c-0.1-1.7,0.1-3.4-0.2-5.1c-0.6-4.3-3.8-7.9-7.8-8.6C1729.5,311.8,1731.7,315.6,1733.1,319.2z"/>
	<path class="st58" d="M1741.1,362.1c-2.1-6.6-4.3-13.1-6.4-19.7c-0.6-2-1.4-3.5-3.1-4c2.7,5,4.3,9.9,5.3,15.7
		c0.6,3.2,1.2,6.3,2,9.4c0.9,0,1.8-0.1,2.7-0.1C1741.4,363.1,1741.2,362.6,1741.1,362.1z"/>
	<path class="st58" d="M1761.7,348.8c-1.8-6.1-3.8-12.2-5.8-18.2c0.1,0.4,0.1,0.8,0.1,1.2c0.1,2.3-0.2,4.6,0.3,6.8
		c0.6,2.5,2.1,4.6,3.3,6.8c2.6,5.2,3.2,11.5,4.5,17.3c0.6,0,1.2,0,1.8,0C1764.4,358.2,1763.1,353.5,1761.7,348.8z"/>
	<path class="st58" d="M1755.8,330.7c-0.2-1-0.4-1.9-1-2.8C1755.2,328.8,1755.5,329.7,1755.8,330.7z"/>
	<path class="st58" d="M1762,326.2c0.3,0.3,0.6,0.6,0.9,1C1762.6,326.8,1762.3,326.5,1762,326.2z"/>
	<path class="st58" d="M1782.5,366.8c-2.4-8.1-4.9-16.2-8.6-23.7c-2.9-5.8-6.6-11.2-11-16c3,3.6,3.7,8.9,4.8,13.7
		c1.5,6.4,4.2,12.5,6.8,18.5c0.4,0.8,0.8,2.1,1.3,3.6c2.6,0.2,4,0.5,4.2,0.9c0.3,0.6-0.8,1.3-3.2,2c1.4,4,3,8.4,4.7,9.6
		C1787,379.1,1783.2,369.3,1782.5,366.8z"/>
	<path class="st58" d="M1751.1,352.1c-2.5,2.7-1.8,7.2-0.7,11.1c2-0.1,4-0.1,5.8-0.2C1754.6,359.4,1753,355.6,1751.1,352.1z"/>
	<path class="st58" d="M1733,362.7c-1.1-3-2.7-5.9-4-8.9c-4.3-10.7-3.8-24.2-11.9-32c-0.8-0.8-1.6-1.2-2.7-0.8
		c0.3,6,7.1,11,8.8,17.2c0.9,3.2,0.9,6.7,1.4,10c0.6,3.2,1.6,6.2,2.7,9.3c0.8,2.2,1.5,4.3,2.3,6.5c1.3-0.1,2.6-0.1,3.8-0.2
		C1733.2,363.5,1733.1,363.1,1733,362.7z"/>
	<path class="st58" d="M1715.6,353.7c0.4,3.6,1,7.3,1.9,10.8c1.1,0,2.2-0.1,3.3-0.1C1719.5,360.6,1717.7,357,1715.6,353.7z"/>
	<path class="st58" d="M1706.9,351.3c-1.4-2.6-2.7-5.2-3.7-8c-0.5,3.3,0.2,7.1,1.5,10.4c1.4,3.8,3.6,7.3,5,11.1
		c0.8,0,1.7-0.1,2.5-0.1C1710.9,360.1,1709.1,355.5,1706.9,351.3z"/>
	<path class="st58" d="M1697.1,355.4c-1.5,3-2.1,6.5-1.9,10c1.4-0.1,2.8-0.1,4.2-0.2C1698.7,362,1698.1,358.6,1697.1,355.4z"/>
</g>
<g id="High_Ball_c">
	<g>
		<path class="st59" d="M875,285.3c-45.6,0-114.9-5.8-123.2-17.4l9,625.1c14.4,20.6,78,32.2,122.7,32.2
			c43.7,0,117.2-20.1,130.3-35.8l1.8-624.1C1012.8,281,935.8,285.3,875,285.3z"/>
	</g>
	<linearGradient id="SVGID_29_" gradientUnits="userSpaceOnUse" x1="756.0382" y1="741.7672" x2="1013.6713" y2="741.7672">
		<stop  offset="0" style="stop-color:#CE8A01"/>
		<stop  offset="0.5103" style="stop-color:#FFA001"/>
		<stop  offset="1" style="stop-color:#CE8A01"/>
	</linearGradient>
	<path class="st60" d="M811.3,837c15.5-1.9,31.4-1.6,46.6-5.4c19.6-4.9,36.8-16.4,52.7-28.6c38.5-29.5,72.5-64.4,100.6-103.4
		c1.4-1.9,2.8-4.1,2.4-6.4c-0.5-2.7-3.4-4.2-5.9-5.4c-55.9-25.5-117.2-39.6-178.9-41.2c-4.4-0.1-8.9-0.2-13.1-1.7
		c-4-1.5-7.4-4.2-11-6.4c-14.4-8.7-33.7-8.9-48.3-0.5c-2.9,29.2,20.1,56.7,16.7,85.9c-1.5,12.8-8,24.5-11.3,37
		c-4.9,18.7-2.6,38.4-0.2,57.6c1,7.8,2,15.8,5.8,22.7C780.8,866,792.5,839.3,811.3,837z"/>
	<linearGradient id="SVGID_30_" gradientUnits="userSpaceOnUse" x1="783.9634" y1="423.3169" x2="987.8905" y2="621.4996">
		<stop  offset="0" style="stop-color:#FFB801"/>
		<stop  offset="0.5103" style="stop-color:#FED22E"/>
		<stop  offset="1" style="stop-color:#FFB801"/>
	</linearGradient>
	<path class="st61" d="M755.5,452.6c9.3-4.1,20.4-4.1,29.7-0.1c2.3,1,4.5,2.2,6.9,2.4c5.2,0.3,9.3-4,13.5-6.9
		c7.8-5.4,18.4-6.5,27.2-2.9l180.6,106.6v43.5L759.3,494L755.5,452.6z"/>
	<g class="st62">
		<path class="st59" d="M875,285.3c-45.6,0-114.9-5.8-123.2-17.4l9,625.1c14.4,20.6,78,32.2,122.7,32.2
			c43.7,0,117.2-20.1,130.3-35.8l1.8-624.1C1012.8,281,935.8,285.3,875,285.3z"/>
	</g>
	<g>
		<linearGradient id="SVGID_31_" gradientUnits="userSpaceOnUse" x1="761.2568" y1="457.5703" x2="1010.0137" y2="699.32">
			<stop  offset="0" style="stop-color:#FFB801"/>
			<stop  offset="0.5103" style="stop-color:#FFA001"/>
			<stop  offset="1" style="stop-color:#FFB801"/>
		</linearGradient>
		<path class="st63" d="M1013.8,697.5c-2.4,2.8-6,1.1-9.8,0.5s-7.3-2.6-11.1-2.3c-3.8,0.3-7.5,2.8-11.1,1.7c-3.5-1.1-5.1-5.1-8-7.3
			c-5.1-3.7-12.2-0.9-18.6-0.5c-11.9,0.9-22.4-7-31.4-14.6s-18.8-16-30.7-16.4c-6-0.2-11.9,1.6-17.9,1.9
			c-19.1,0.9-35.8-14.7-41.3-32.5c-1.7-5.3-2.7-11.3-7-15c-2.4-2.1-5.5-3.2-8.6-4.2c-10.4-3.2-21.2-5.1-32.1-5.4
			c-1.9-0.1-4-0.1-5.7-0.9c-1.6-0.8-2.8-2.2-3.9-3.6c-6.4-7.8-12.9-15.7-19.3-23.5l-2.2-122.8c3.5,4.8,9.7,7.7,15.7,7.1
			c3.2-0.3,6.3-1.4,9.5-0.9c6.2,1,9.6,7.7,15,10.8c5,2.8,11.3,2.2,16.6,4.3c15.4,6.2,15.2,31,30.9,36.5c4.5,1.6,9.5,1.2,13.9,2.9
			c10,3.9,13.4,17.1,23.3,21.3c11.2,4.7,25.9-4,35.8,3c3.2,2.3,5.1,5.8,7.6,8.8c14.3,16.7,42.9,11.1,61.5,23.2
			c3.3,2.2,6.3,4.9,9.9,6.7c5.9,2.9,13.1,3,19.1,0.2L1013.8,697.5z"/>
	</g>
	<g class="st64">
		<linearGradient id="SVGID_32_" gradientUnits="userSpaceOnUse" x1="802.6783" y1="491.6859" x2="764.5916" y2="586.903">
			<stop  offset="0" style="stop-color:#FFB801;stop-opacity:0.1"/>
			<stop  offset="1" style="stop-color:#CE8A01;stop-opacity:0.5"/>
		</linearGradient>
		<path class="st65" d="M911.6,644.3c-2.3,2.7-5.7,1.1-9.2,0.5c-3.5-0.6-6.9-2.5-10.5-2.2c-3.6,0.3-7.1,2.8-10.5,1.7
			c-3.3-1.1-4.8-5-7.6-7.1c-4.8-3.6-11.6-0.9-17.6-0.4c-11.2,0.8-21.2-6.8-29.7-14.2c-8.5-7.4-17.8-15.5-29-16
			c-5.7-0.2-11.2,1.6-16.9,1.9c-18.1,0.9-33.9-14.4-39.1-31.7c-1.6-5.2-2.6-11-6.6-14.6c-2.3-2-5.2-3.1-8.1-4.1
			c-9.8-3.2-20-4.9-30.3-5.3c-1.8-0.1-3.7-0.1-5.4-0.9c-1.5-0.8-2.7-2.2-3.7-3.5c-6.1-7.6-12.2-15.3-18.3-22.9L667,405.9
			c3.3,4.7,9.2,7.5,14.9,6.9c3-0.3,6-1.4,9-0.9c5.9,1,9,7.5,14.2,10.5c4.7,2.7,10.7,2.1,15.7,4.2c14.5,6.1,14.4,30.2,29.2,35.6
			c4.2,1.5,9,1.2,13.1,2.9c9.5,3.8,12.7,16.6,22.1,20.7c10.6,4.6,24.5-3.9,33.8,2.9c3,2.2,4.8,5.7,7.2,8.5
			c13.5,16.2,40.6,10.8,58.1,22.6c3.2,2.1,6,4.7,9.3,6.5c5.5,2.9,12.4,2.9,18,0.2L911.6,644.3z"/>
	</g>
	<g>
		<linearGradient id="SVGID_33_" gradientUnits="userSpaceOnUse" x1="873.9482" y1="717.5915" x2="955.7399" y2="828.0634">
			<stop  offset="0" style="stop-color:#FFA001"/>
			<stop  offset="0.5103" style="stop-color:#E69501"/>
			<stop  offset="1" style="stop-color:#CE8A01"/>
		</linearGradient>
		<path class="st66" d="M970.9,838.6l42.9-1.5V697.5c-4.4,7.8-25.7,12.8-39.9,12.6c-4.4,0-8.6-1.2-12.9-1.8c-8.3-1.1-16.7,0-25,1
			c-9.1,1.2-18.2,2.4-27.2,3.5c-4.1,0.5-8.3,1.1-12.3,0c-4.7-1.2-8.6-4.4-13-6.7c-13.4-6.9-29.7-3.8-44.9-4c-4.5-0.1-9.2-0.5-12.9-3
			c-4.8-3.2-7-9.3-11.6-12.7c-8.5-6.3-23.3-3-28.7-12c-1.4-2.4-1.8-5.2-2.7-7.8c-4.9-13.6-23.2-19.3-25.9-33.5l1.1,136.5
			c10.3,2.9,18.3,11.3,22.5,20.9c1.6,3.7,2.8,7.6,5.6,10.5c9.8,9.9,30.4-0.8,39.9,9.4c2.5,2.7,3.7,6.5,6.6,8.9
			c4.6,3.9,11.5,2.8,17.6,3.2c14.8,1,27.1,12,41.8,13.8c5.8,0.7,11.8-0.1,17.6,0.9c12,1.9,23.9,11,35.2,6.4
			c3.5-1.5,6.4-4.2,10.1-5.5C958.5,836.9,969.8,835,970.9,838.6"/>
	</g>
	<g class="st67">
		
			<radialGradient id="SVGID_34_" cx="872.1701" cy="714.4459" r="142.5043" fx="1011.4525" fy="744.5771" gradientTransform="matrix(1.057 0 0 0.6125 -45.26 269.4493)" gradientUnits="userSpaceOnUse">
			<stop  offset="0" style="stop-color:#FEEA9A"/>
			<stop  offset="1" style="stop-color:#FFB801"/>
		</radialGradient>
		<path class="st68" d="M780.1,681.7c1,2.6,1.4,5.4,3,7.8c5.9,9,22.1,5.7,31.3,12c5.1,3.5,7.4,9.5,12.7,12.7c4,2.5,9.2,2.9,14.1,3
			c16.6,0.2,34.4-2.9,49,4c4.7,2.2,9,5.5,14.2,6.7c4.4,1,9,0.5,13.5,0c9.9-1.2,19.8-5.4,29.8-6.6c9.1-1.1,18.3,0.9,27.3,2
			c4.7,0.6,9.4,1.7,14.1,1.8c7.4,0.1,16.6-6,24.8-13.1v-14.4c-4.4,7.8-25.7,12.8-39.9,12.6c-4.4,0-8.6-1.2-12.9-1.8
			c-8.3-1.1-16.7,0-25,1c-9.1,1.2-18.2,2.4-27.2,3.5c-4.1,0.5-8.3,1.1-12.3,0c-4.7-1.2-8.6-4.4-13-6.7c-13.4-6.9-29.7-3.8-44.9-4
			c-4.5-0.1-9.2-0.5-12.9-3c-4.8-3.2-7-9.3-11.6-12.7c-8.5-6.3-23.3-3-28.7-12c-1.4-2.4-1.8-5.2-2.7-7.8
			c-4.9-13.6-23.2-19.3-25.9-33.5l0.2,24.5C764.1,665.9,776.1,671.6,780.1,681.7z"/>
	</g>
	<g>
		<linearGradient id="SVGID_35_" gradientUnits="userSpaceOnUse" x1="889.4423" y1="867.1706" x2="891.1815" y2="894.6085">
			<stop  offset="0" style="stop-color:#FFA001"/>
			<stop  offset="1" style="stop-color:#CE8A01"/>
		</linearGradient>
		<path class="st69" d="M1013.4,849.3c-10.8,8.2-21,16.1-27.6,27.7c-2,3.5-3.7,7.5-7.1,9.8c-2.5,1.7-5.5,2.3-8.5,3.1
			c-7.5,2-14.5,5.4-20.8,9.8c-6.9,4.9-14.3,11.6-22.7,10.1c-2.4-0.4-4.6-1.5-6.9-2.1c-3-0.8-6.1-0.8-9.2-0.9
			c-15.8-0.2-31.5-0.4-47.3-0.6c-3.5,0-7-0.1-10.4-1c-4-1.1-7.7-3.2-11.6-4.5c-6.7-2.2-14-1.7-21-2.3c-17.9-1.7-34.8-11.5-44.7-26.1
			c-5.3-7.8-15.3-19.6-15.3-32.1l-0.9-14c11.5,3.4,15.2,15.2,25.2,21.8c7.9,5.2,18.1,5.8,26.6,10.1c4.3,2.2,8.1,5.4,12.7,7
			c4.8,1.7,10.1,1.7,15.2,1.6c13.9-0.3,28-0.6,41.3-4.4c9.5-2.7,19.1-7.2,28.9-5.6c3.5,0.6,6.8,1.9,10.3,2.1
			c7.5,0.4,14.1-4.6,21.2-6.8c5.4-1.7,11.3-1.8,16.6-3.9c10.2-3.9,16.4-13.9,25.5-19.8c9.9-6.4,23.9-7.1,30.6-16.7L1013.4,849.3z"/>
	</g>
	<g class="st5">
		<path class="st1" d="M883.5,925.3c-44.7,0-108.3-11.6-122.7-32.2l0.8,55.5c0.3,3.6,0.5,10.6,6,13.2c15.6,7.2,51.8,22,112.3,24.8
			c38.7,1.8,104.9-15.2,123.4-26c6.2-3.6,9.3-7,10.3-10.6l0.2-60.5C1000.8,905.2,927.2,925.3,883.5,925.3z"/>
	</g>
	<g class="st3">
		<path class="st70" d="M893.4,219.8c52.2,0,87.5,5.5,104.1,10.6l3-2.1c-22.8-6.7-68-10.7-120-10.7c-39.6,0-77.1,2.9-101.3,7.8
			l3.2,2.2C803.9,221.9,846.5,219.8,893.4,219.8z"/>
	</g>
	<g class="st5">
		<path class="st1" d="M1008.5,236.2c0,8.4-35.9,17.1-110.8,17.1s-130.1-3.5-130.1-16.2c0-12.8,58.6-17.2,125.9-17.2
			C968.4,219.8,1008.5,231.1,1008.5,236.2z"/>
	</g>
	<g class="st5">
		<path class="st1" d="M1015,236.2c0.5,0.8,0.8,1.6,0.8,2.5c0,12.8-59.2,16.2-134.2,16.2c-73.3,0-127.7-3.3-130-15.4l0.4,28.1
			c8.2,11.7,77.6,17.4,123.2,17.4c60.8,0,137.8-4.3,140.6-20.1l0.1-28.7H1015z"/>
	</g>
	<path class="st71" d="M782.4,227.6l12.5,8.6L782.4,227.6c-9.4,2.5-14.8,5.6-14.8,9.4c0,12.8,55.2,16.2,130.1,16.2
		s110.8-8.6,110.8-17.1c0-1.5-3.7-3.6-10.9-5.8l-3.5,2.5l3.5-2.5c-16.6-5.1-51.9-10.6-104.1-10.6
		C846.5,219.8,803.9,221.9,782.4,227.6z"/>
	<path class="st71" d="M993.3,312c-0.5,0.2-1,0.5-1.4,0.8C992.4,312.6,992.8,312.3,993.3,312z"/>
	<path class="st71" d="M1008.5,236.2c0-1.5-3.7-3.6-10.9-5.8l1.9-1.3c-3.3-0.6-6.7-1.1-10.1-1.3c-18.4-1.1-37.2,5.5-50.6,17.7
		c-2.4,2.2-4.7,4.6-6.7,7.1C983.6,250.3,1008.5,243.2,1008.5,236.2z"/>
	<g>
		
			<radialGradient id="SVGID_36_" cx="896.1634" cy="429.2103" r="133.251" gradientTransform="matrix(1.057 0 0 1.0273 -45.26 -26.8689)" gradientUnits="userSpaceOnUse">
			<stop  offset="0" style="stop-color:#FED22E"/>
			<stop  offset="1" style="stop-color:#FFA001"/>
		</radialGradient>
		<path class="st72" d="M877.7,366.6c-1.2-5.3-1.5-10.7-1.2-16.1c0.9-14.6,6-29,14.7-40.9c5.7-7.8,13-14.8,16.8-23.7
			c2.7-6.4,3.5-13.4,5.7-20.1c1.3-4,3.2-7.8,5.4-11.4c-11.7,0.2-24.2,0.3-37.1,0.3c-19.1,0-36.8-0.2-52.7-0.8
			c-0.1,0.3-0.3,0.7-0.4,1c-1.7,4-4.1,7.8-6.5,11.4c-8,11.7-17.6,22.3-24.4,34.7c-6.8,12.3-10.7,27.2-5.9,40.4
			c2.2,6.2,6.3,12.4,4.9,18.8c-0.7,3.3-2.9,6.7-1.7,9.9c0.7,2,2.6,3.4,3.8,5.1c5.4,8.1-5.1,18.1-4,27.7c0.1,1.3,0.5,2.7,1.2,3.9
			c1.1,2.1,2.9,3.7,4.7,5.3c11.3,10.5,19.8,23.8,24.7,38.2c1.6,4.6,2.8,9.5,5.7,13.5c2.7,3.8,6.7,6.4,10.6,9
			c27.8,18.6,56,36.5,84.2,54.4c5.8,3.7,11.5,7.3,17.3,11c11.6,7.4,23.2,14.8,35.5,21.1c11.3,5.8,23.1,10.7,35.3,14.6l0.1-116.1
			c-42.6-7.1-82.8-27.2-113.6-56.8C890.4,391.4,880.9,380.1,877.7,366.6z"/>
	</g>
	<g>
		<linearGradient id="SVGID_37_" gradientUnits="userSpaceOnUse" x1="876.3979" y1="400.4968" x2="1014.216" y2="400.4968">
			<stop  offset="0" style="stop-color:#FED22E"/>
			<stop  offset="0.5103" style="stop-color:#FED22E"/>
			<stop  offset="1" style="stop-color:#FEEA9A"/>
		</linearGradient>
		<path class="st73" d="M913.7,265.8c-2.2,6.6-2.9,13.6-5.7,20.1c-3.8,8.9-11.1,15.8-16.8,23.7c-8.7,11.9-13.9,26.3-14.7,40.9
			c-0.3,5.4-0.1,10.8,1.2,16.1c3.2,13.5,12.7,24.9,22.9,34.6c30.8,29.5,71,49.6,113.6,56.8l-0.1,88.8c0,0,0,0,0.1,0l0.1-105
			c-38.5-6.5-74.8-24.6-102.6-51.3c-9.2-8.8-17.7-19.1-20.6-31.3c-1.1-4.8-1.4-9.7-1.1-14.6c0.8-13.2,5.4-26.2,13.3-37
			c5.2-7.1,11.7-13.4,15.2-21.4c2.5-5.8,3.2-12.2,5.1-18.1c1.6-4.9,4.2-9.6,7.3-13.8c-3.8,0.1-7.7,0.2-11.7,0.3
			C916.9,258.1,915.1,261.9,913.7,265.8z"/>
	</g>
	<g>
		<linearGradient id="SVGID_38_" gradientUnits="userSpaceOnUse" x1="990.7809" y1="313.2573" x2="991.9152" y2="313.2573">
			<stop  offset="0" style="stop-color:#FED22E"/>
			<stop  offset="0.5103" style="stop-color:#FED22E"/>
			<stop  offset="1" style="stop-color:#FEEA9A"/>
		</linearGradient>
		<path class="st74" d="M991.9,312.8c-0.4,0.3-0.8,0.5-1.1,0.8v0C991.1,313.4,991.5,313.1,991.9,312.8z"/>
	</g>
	<g class="st3">
		<path class="st70" d="M997.6,230.3c7.2,2.2,10.9,4.3,10.9,5.8c0,7-24.9,14.2-76.4,16.4c-0.4,0.5-0.9,1.1-1.3,1.6
			c50.3-1.5,85.4-5.8,85.4-15.6c0-2.7-2.7-5.2-7.7-7.4c-3-0.8-6-1.6-9.1-2.1L997.6,230.3z"/>
	</g>
	<g class="st3">
		<path class="st70" d="M767.5,237c0-3.9,5.4-7,14.8-9.4l-3.2-2.2c-16.9,3.5-27.2,8-27.2,13.2c0,9.5,30.7,13.9,77.4,15.5
			c0.3-0.7,0.6-1.5,0.9-2.2C791.9,249.9,767.5,245.5,767.5,237z"/>
	</g>
	<g class="st3">
		<path class="st70" d="M919.1,254.5c0.3-0.5,0.7-1,1-1.5c-7.1,0.2-14.5,0.3-22.5,0.3c-25.2,0-48.1-0.4-67.4-1.4
			c-0.3,0.7-0.6,1.5-0.9,2.2c15.9,0.5,33.7,0.8,52.7,0.8C895,254.8,907.4,254.7,919.1,254.5z"/>
	</g>
	<g class="st3">
		<path class="st70" d="M920.1,253c-0.3,0.5-0.7,1-1,1.5c4-0.1,7.9-0.2,11.7-0.3c0.4-0.6,0.8-1.1,1.3-1.6
			C928.2,252.7,924.3,252.9,920.1,253z"/>
	</g>
	<g class="st3">
		<path class="st70" d="M999.5,229c3,0.6,6.1,1.3,9.1,2.1c-2.2-1-4.9-2-8-2.9L999.5,229z"/>
	</g>
	<g class="st67">
		
			<radialGradient id="SVGID_39_" cx="881.8529" cy="869.0613" r="151.5057" gradientTransform="matrix(1.0109 -0.3004 0.1309 0.416 -118.25 769.2831)" gradientUnits="userSpaceOnUse">
			<stop  offset="0" style="stop-color:#FEEA9A"/>
			<stop  offset="1" style="stop-color:#FFB801"/>
		</radialGradient>
		<path class="st75" d="M785.4,862.1c7.9,5.2,18.1,5.8,26.6,10.1c4.3,2.2,8.1,5.4,12.7,7c4.8,1.7,10.1,1.7,15.2,1.6
			c13.9-0.3,28-0.6,41.3-4.4c9.5-2.7,19.1-7.2,28.9-5.6c3.5,0.6,6.8,1.9,10.3,2.1c7.5,0.4,14.1-4.6,21.2-6.8
			c5.4-1.7,11.3-1.8,16.6-3.9c10.2-3.9,16.4-13.9,25.5-19.8c9.4-6.1,22.6-7.1,29.6-15.4l0-15.3c-6.7,9.5-20.7,10.3-30.6,16.7
			c-9.1,5.9-15.3,15.9-25.5,19.8c-5.3,2-11.2,2.2-16.6,3.9c-7.2,2.2-13.7,7.2-21.2,6.8c-3.5-0.2-6.9-1.5-10.3-2.1
			c-9.8-1.6-19.4,2.9-28.9,5.6c-13.3,3.8-27.4,4.1-41.3,4.4c-5.1,0.1-10.4,0.2-15.2-1.6c-4.6-1.7-8.4-4.8-12.7-7
			c-8.5-4.3-18.7-4.8-26.6-10.1c-10-6.6-13.6-18.4-25.2-21.8l0.9,26.5c0.2,0.1,0.3,0.1,0.5,0.2l-0.4-12.7
			C771.8,843.7,775.4,855.5,785.4,862.1z"/>
	</g>
	<g class="st35">
		
			<radialGradient id="SVGID_40_" cx="776.357" cy="340.1572" r="588.0682" gradientTransform="matrix(1.057 0 0 1.0273 -45.26 -26.8689)" gradientUnits="userSpaceOnUse">
			<stop  offset="0" style="stop-color:#FEEA9A"/>
			<stop  offset="3.642499e-03" style="stop-color:#FEE998"/>
			<stop  offset="0.1095" style="stop-color:#F1D070"/>
			<stop  offset="0.2205" style="stop-color:#E6BA4E"/>
			<stop  offset="0.3393" style="stop-color:#DDA932"/>
			<stop  offset="0.4665" style="stop-color:#D79B1C"/>
			<stop  offset="0.606" style="stop-color:#D2910D"/>
			<stop  offset="0.7671" style="stop-color:#CF8C04"/>
			<stop  offset="1" style="stop-color:#CE8A01"/>
		</radialGradient>
		<path class="st76" d="M875,285.3c-45.6,0-114.9-5.8-123.2-17.4l9,625.1c14.4,20.6,78,32.2,122.7,32.2
			c43.7,0,117.2-20.1,130.3-35.8l1.8-624.1C1012.8,281,935.8,285.3,875,285.3z"/>
	</g>
	<g>
		<g>
			<linearGradient id="SVGID_41_" gradientUnits="userSpaceOnUse" x1="1077.1707" y1="269.9492" x2="888.9783" y2="330.2439">
				<stop  offset="0" style="stop-color:#FED22E"/>
				<stop  offset="0.5103" style="stop-color:#FFA001"/>
				<stop  offset="1" style="stop-color:#FED22E"/>
			</linearGradient>
			<path class="st77" d="M1134.9,310.1c0.2-2.9-0.7-5.7-1.6-8.5c-3.5-10.7-7-21.4-10.5-32c-3.6-11-7.3-22.3-14.5-31.6
				c-4.4-5.7-9.9-10.5-15.6-14.9c-24.2-18.7-52.6-32.2-82.7-39.1c-2.8-0.6-5.6-1.2-8.5-1c-3.3,0.3-6.4,1.7-9.5,2.6
				c-9.6,2.8-19.9,1.4-29.9,1.6c-16,0.4-23.2,5.6-38,11.6c-9.2,3.7-26.2,5.4-35.1,9.7c-8.9,4.3-16.8,11.8-25.4,16.7
				c-8.6,4.9-17.9,9.3-25.3,15.8c-2.1,1.8-4.2,3.8-5.7,6.1c-1,1.5-1.7,3.1-2.3,4.7c19.4,1,42.3,1.4,67.4,1.4
				c7.9,0,15.4-0.1,22.5-0.3c3-4.4,6.5-8.5,10.5-12c14.9-13.5,35.7-20.8,56.1-19.6c13.2,0.8,25.9,4.9,38.3,9.4
				c2.7,1,5.6,2.1,7.5,4.2c1.8,1.9,2.7,4.6,4.6,6.4c2.2,2.1,5.5,2.7,8.3,4.1c7.1,3.6,10.3,11.9,11.1,19.7
				c1.2,11.3-1.3,23.1-8.2,32.3s-18.3,15.2-30,14.8c-8.4-0.3-17.4-3.8-24.9-0.1c-0.5,0.2-1,0.5-1.4,0.8c-0.4,0.3-0.8,0.5-1.1,0.8v0
				c-7.5,5.9-7.4,18.4-3.5,27.6c4.3,10.2,11.6,19.6,11.8,30.6c0.1,2.9-0.4,6,1,8.6c1.7,3.2,5.5,4.6,8.9,5.7
				c11.6,3.9,23.2,7.7,34.7,11.6c3.2,1.1,6.6,2.2,10,1.7s6.7-3.2,6.6-6.5c16.9,0.9,34.1-6.2,45.1-18.8c4.3-4.9,7.7-10.5,12.7-14.6
				c4.3-3.6,10-6.1,12.5-11.1c4-7.8-1.5-17.3,0.3-25.9C1131.9,318.3,1134.6,314.5,1134.9,310.1z"/>
		</g>
		<g>
			<linearGradient id="SVGID_42_" gradientUnits="userSpaceOnUse" x1="920.1277" y1="267.4336" x2="1056.7349" y2="267.4336">
				<stop  offset="0" style="stop-color:#FED22E"/>
				<stop  offset="0.5103" style="stop-color:#FED22E"/>
				<stop  offset="1" style="stop-color:#FEEA9A"/>
			</linearGradient>
			<path class="st78" d="M993.3,312c7.5-3.7,16.5-0.2,24.9,0.1c11.7,0.5,23.1-5.6,30-14.8s9.5-21,8.2-32.3
				c-0.8-7.8-4-16.1-11.1-19.7c-2.8-1.4-6-2-8.3-4.1c-1.9-1.8-2.8-4.5-4.6-6.4c-1.9-2.1-4.8-3.2-7.5-4.2
				c-12.4-4.5-25.1-8.6-38.3-9.4c-20.4-1.2-41.1,6-56.1,19.6c-4,3.6-7.5,7.6-10.5,12c4.1-0.1,8.1-0.2,12-0.4c2-2.5,4.3-4.9,6.7-7.1
				c13.5-12.2,32.2-18.8,50.6-17.7c3.4,0.2,6.7,0.7,10.1,1.3l1.1-0.7c3.1,0.9,5.8,1.9,8,2.9c5.2,1.5,10.4,3.2,15.5,5.1
				c2.5,0.9,5,1.9,6.8,3.8c1.6,1.8,2.4,4.1,4.2,5.8c2,1.9,5,2.5,7.5,3.7c6.4,3.3,9.3,10.8,10.1,17.8c1.1,10.2-1.2,20.9-7.4,29.2
				c-6.2,8.3-16.5,13.8-27.1,13.4c-7.6-0.3-15.7-3.4-22.5-0.1c-1.9,1-3.5,2.3-4.6,3.9c0.4-0.3,0.7-0.6,1.1-0.8
				C992.4,312.5,992.8,312.3,993.3,312z"/>
		</g>
	</g>
</g>
<g id="High_Ball_d">
	<defs>
		<filter id="Adobe_OpacityMaskFilter_3_" filterUnits="userSpaceOnUse" x="832.3" y="184.1" width="304.7" height="216.6">
			<feColorMatrix  type="matrix" values="1 0 0 0 0  0 1 0 0 0  0 0 1 0 0  0 0 0 1 0"/>
		</filter>
	</defs>
	<mask maskUnits="userSpaceOnUse" x="832.3" y="184.1" width="304.7" height="216.6" id="SVGID_43_">
		<g class="st79">
			<g class="st80">
				
					<use xlink:href="#Stipple_2"  width="71.5" height="45.5" x="-35.7" y="-22.8" transform="matrix(1.5148 0 0 -1.4722 992.2876 388.889)" style="overflow:visible;"/>
				
					<use xlink:href="#Stipple_2"  width="71.5" height="45.5" x="-35.7" y="-22.8" transform="matrix(1.5148 0 0 -1.4722 1040.7842 357.2474)" style="overflow:visible;"/>
				
					<use xlink:href="#Stipple_2"  width="71.5" height="45.5" x="-35.7" y="-22.8" transform="matrix(1.5148 0 0 -1.4722 1077.5541 396.8745)" style="overflow:visible;"/>
				
					<use xlink:href="#Stipple_2"  width="71.5" height="45.5" x="-35.7" y="-22.8" transform="matrix(1.5148 0 0 -1.4722 1103.7329 338.8463)" style="overflow:visible;"/>
				
					<use xlink:href="#Stipple_2"  width="71.5" height="45.5" x="-35.7" y="-22.8" transform="matrix(1.5148 0 0 -1.4722 1107.0778 267.8177)" style="overflow:visible;"/>
				
					<use xlink:href="#Stipple_2"  width="71.5" height="45.5" x="-35.7" y="-22.8" transform="matrix(1.5148 0 0 -1.4722 1068.0864 224.3016)" style="overflow:visible;"/>
				
					<use xlink:href="#Stipple_2"  width="71.5" height="45.5" x="-35.7" y="-22.8" transform="matrix(1.5148 0 0 -1.4722 1056.0765 168.3391)" style="overflow:visible;"/>
				
					<use xlink:href="#Stipple_2"  width="71.5" height="45.5" x="-35.7" y="-22.8" transform="matrix(1.5148 0 0 -1.4722 995.407 182.5268)" style="overflow:visible;"/>
				
					<use xlink:href="#Stipple_2"  width="71.5" height="45.5" x="-35.7" y="-22.8" transform="matrix(1.5148 0 0 -1.4722 938.1101 173.7238)" style="overflow:visible;"/>
				
					<use xlink:href="#Stipple_2"  width="71.5" height="45.5" x="-35.7" y="-22.8" transform="matrix(1.5148 0 0 -1.4722 889.2672 190.882)" style="overflow:visible;"/>
				
					<use xlink:href="#Stipple_2"  width="71.5" height="45.5" x="-35.7" y="-22.8" transform="matrix(1.5148 0 0 -1.4722 857.116 238.5879)" style="overflow:visible;"/>
				
					<use xlink:href="#Stipple_2"  width="71.5" height="45.5" x="-35.7" y="-22.8" transform="matrix(1.5148 0 0 -1.4722 877.225 280.2868)" style="overflow:visible;"/>
			</g>
		</g>
	</mask>
	<g class="st81">
		<path class="st1" d="M1137,311.2c0.2-2.9-0.7-5.7-1.6-8.5c-3.5-10.7-7-21.4-10.5-32c-3.6-11-7.3-22.3-14.5-31.6
			c-4.4-5.7-9.9-10.5-15.6-14.9c-24.2-18.7-52.6-32.2-82.7-39.1c-2.8-0.6-5.6-1.2-8.5-1c-3.3,0.3-6.4,1.7-9.5,2.6
			c-9.6,2.8-19.9,1.4-29.9,1.6c-16,0.4-23.2,5.6-38,11.6c-9.2,3.7-26.2,5.4-35.1,9.7c-8.9,4.3-16.8,11.8-25.4,16.7
			c-8.6,4.9-17.9,9.3-25.3,15.8c-2.1,1.8-4.2,3.8-5.7,6.1c-1,1.5-1.7,3.1-2.3,4.7c19.4,1,42.3,1.4,67.4,1.4c7.9,0,15.4-0.1,22.5-0.3
			c3-4.4,6.5-8.5,10.5-12c14.9-13.5,35.7-20.8,56.1-19.6c13.2,0.8,25.9,4.9,38.3,9.4c2.7,1,5.6,2.1,7.5,4.2c1.8,1.9,2.7,4.6,4.6,6.4
			c2.2,2.1,5.5,2.7,8.3,4.1c7.1,3.6,10.3,11.9,11.1,19.7c1.2,11.3-1.3,23.1-8.2,32.3c-6.9,9.1-18.3,15.2-30,14.8
			c-8.4-0.3-17.4-3.8-24.9-0.1c-0.5,0.2-1,0.5-1.4,0.8c-0.4,0.3-0.8,0.5-1.1,0.8v0c-7.5,5.9-7.4,18.4-3.5,27.6
			c4.3,10.2,11.6,19.6,11.8,30.6c0.1,2.9-0.4,6,1,8.6c1.7,3.2,5.5,4.6,8.9,5.7c11.6,3.9,23.2,7.7,34.7,11.6c3.2,1.1,6.6,2.2,10,1.7
			s6.7-3.2,6.6-6.5c16.9,0.9,34.1-6.2,45.1-18.8c4.3-4.9,7.7-10.5,12.7-14.6c4.3-3.6,10-6.1,12.5-11.1c4-7.8-1.5-17.3,0.3-25.9
			C1134,319.3,1136.7,315.5,1137,311.2z"/>
	</g>
	<defs>
		<filter id="Adobe_OpacityMaskFilter_4_" filterUnits="userSpaceOnUse" x="792" y="255.1" width="224.3" height="320">
			<feColorMatrix  type="matrix" values="1 0 0 0 0  0 1 0 0 0  0 0 1 0 0  0 0 0 1 0"/>
		</filter>
	</defs>
	<mask maskUnits="userSpaceOnUse" x="792" y="255.1" width="224.3" height="320" id="SVGID_44_">
		<g class="st82">
			<g>
				
					<use xlink:href="#Stipple_2"  width="71.5" height="45.5" x="-35.7" y="-22.8" transform="matrix(1.5825 0 0 -1.2405 961.7178 302.017)" style="overflow:visible;"/>
				
					<use xlink:href="#Stipple_2"  width="71.5" height="45.5" x="-35.7" y="-22.8" transform="matrix(1.5825 0 0 -1.2405 927.0057 282.6775)" style="overflow:visible;"/>
				
					<use xlink:href="#Stipple_2"  width="71.5" height="45.5" x="-35.7" y="-22.8" transform="matrix(1.5825 0 0 -1.2405 863.165 300.714)" style="overflow:visible;"/>
				
					<use xlink:href="#Stipple_2"  width="71.5" height="45.5" x="-35.7" y="-22.8" transform="matrix(1.5825 0 0 -1.2405 841.701 365.0962)" style="overflow:visible;"/>
				
					<use xlink:href="#Stipple_2"  width="71.5" height="45.5" x="-35.7" y="-22.8" transform="matrix(1.5825 0 0 -1.2405 859.0422 410.1096)" style="overflow:visible;"/>
				
					<use xlink:href="#Stipple_2"  width="71.5" height="45.5" x="-35.7" y="-22.8" transform="matrix(1.5825 0 0 -1.2405 907.0327 444.6501)" style="overflow:visible;"/>
				
					<use xlink:href="#Stipple_2"  width="71.5" height="45.5" x="-35.7" y="-22.8" transform="matrix(1.5825 0 0 -1.2405 933.2547 483.6851)" style="overflow:visible;"/>
				
					<use xlink:href="#Stipple_2"  width="71.5" height="45.5" x="-35.7" y="-22.8" transform="matrix(1.5825 0 0 -1.2405 963.9131 516.0731)" style="overflow:visible;"/>
				
					<use xlink:href="#Stipple_2"  width="71.5" height="45.5" x="-35.7" y="-22.8" transform="matrix(1.5825 0 0 -1.2405 929.7515 557.0114)" style="overflow:visible;"/>
				
					<use xlink:href="#Stipple_2"  width="71.5" height="45.5" x="-35.7" y="-22.8" transform="matrix(1.5825 0 0 -1.2405 997.1185 590.3625)" style="overflow:visible;"/>
				
					<use xlink:href="#Stipple_2"  width="71.5" height="45.5" x="-35.7" y="-22.8" transform="matrix(1.5825 0 0 -1.2405 1067.3365 583.9557)" style="overflow:visible;"/>
				
					<use xlink:href="#Stipple_2"  width="71.5" height="45.5" x="-35.7" y="-22.8" transform="matrix(1.5825 0 0 -1.2405 1123.0934 573.745)" style="overflow:visible;"/>
				
					<use xlink:href="#Stipple_2"  width="71.5" height="45.5" x="-35.7" y="-22.8" transform="matrix(1.5825 0 0 -1.2405 1169.4929 605.6661)" style="overflow:visible;"/>
				
					<use xlink:href="#Stipple_2"  width="71.5" height="45.5" x="-35.7" y="-22.8" transform="matrix(1.5825 0 0 -1.2405 1179.5671 646.4047)" style="overflow:visible;"/>
			</g>
		</g>
	</mask>
	<g class="st83">
		<path class="st1" d="M879.8,367.6c-1.2-5.3-1.5-10.7-1.2-16.1c0.9-14.6,6-29,14.7-40.9c5.7-7.8,13-14.8,16.8-23.7
			c2.7-6.4,3.5-13.4,5.7-20.1c1.3-4,3.2-7.8,5.4-11.4c-11.7,0.2-24.2,0.3-37.1,0.3c-19.1,0-36.8-0.2-52.7-0.8
			c-0.1,0.3-0.3,0.7-0.4,1c-1.7,4-4.1,7.8-6.5,11.4c-8,11.7-17.6,22.3-24.4,34.7c-6.8,12.3-10.7,27.2-5.9,40.4
			c2.2,6.2,6.3,12.4,4.9,18.8c-0.7,3.3-2.9,6.7-1.7,9.9c0.7,2,2.6,3.4,3.8,5.1c5.4,8.1-5.1,18.1-4,27.7c0.1,1.3,0.5,2.7,1.2,3.9
			c1.1,2.1,2.9,3.7,4.7,5.3c11.3,10.5,19.8,23.8,24.7,38.2c1.6,4.6,2.8,9.5,5.7,13.5c2.7,3.8,6.7,6.4,10.6,9
			c27.8,18.6,56,36.5,84.2,54.4c5.8,3.7,11.5,7.3,17.3,11c11.6,7.4,23.2,14.8,35.5,21.1c11.3,5.8,23.1,10.7,35.3,14.6l0.1-116.1
			c-42.6-7.1-82.8-27.2-113.6-56.8C892.5,392.5,883,381.2,879.8,367.6z"/>
	</g>
	<defs>
		<filter id="Adobe_OpacityMaskFilter_5_" filterUnits="userSpaceOnUse" x="757.6" y="453.7" width="258.7" height="246.5">
			<feColorMatrix  type="matrix" values="1 0 0 0 0  0 1 0 0 0  0 0 1 0 0  0 0 0 1 0"/>
		</filter>
	</defs>
	<mask maskUnits="userSpaceOnUse" x="757.6" y="453.7" width="258.7" height="246.5" id="SVGID_45_">
		<g class="st84">
			<g>
				
					<use xlink:href="#Stipple_2"  width="71.5" height="45.5" x="-35.7" y="-22.8" transform="matrix(1.7019 0 0 -1.3497 801.8893 504.5901)" style="overflow:visible;"/>
				
					<use xlink:href="#Stipple_2"  width="71.5" height="45.5" x="-35.7" y="-22.8" transform="matrix(1.7019 0 0 -1.3497 850.8802 499.7489)" style="overflow:visible;"/>
				
					<use xlink:href="#Stipple_2"  width="71.5" height="45.5" x="-35.7" y="-22.8" transform="matrix(1.7019 0 0 -1.3497 844.2278 549.0428)" style="overflow:visible;"/>
				
					<use xlink:href="#Stipple_2"  width="71.5" height="45.5" x="-35.7" y="-22.8" transform="matrix(1.7019 0 0 -1.3497 786.9681 562.9334)" style="overflow:visible;"/>
				
					<use xlink:href="#Stipple_2"  width="71.5" height="45.5" x="-35.7" y="-22.8" transform="matrix(1.7019 0 0 -1.3497 770.6814 602.1592)" style="overflow:visible;"/>
				
					<use xlink:href="#Stipple_2"  width="71.5" height="45.5" x="-35.7" y="-22.8" transform="matrix(1.7019 0 0 -1.3497 812.4949 633.4747)" style="overflow:visible;"/>
				
					<use xlink:href="#Stipple_2"  width="71.5" height="45.5" x="-35.7" y="-22.8" transform="matrix(1.7019 0 0 -1.3497 878.7786 632.002)" style="overflow:visible;"/>
				
					<use xlink:href="#Stipple_2"  width="71.5" height="45.5" x="-35.7" y="-22.8" transform="matrix(1.7019 0 0 -1.3497 880.3077 683.0858)" style="overflow:visible;"/>
				
					<use xlink:href="#Stipple_2"  width="71.5" height="45.5" x="-35.7" y="-22.8" transform="matrix(1.7019 0 0 -1.3497 937.8442 674.0908)" style="overflow:visible;"/>
				
					<use xlink:href="#Stipple_2"  width="71.5" height="45.5" x="-35.7" y="-22.8" transform="matrix(1.7019 0 0 -1.3497 951.1346 724.3484)" style="overflow:visible;"/>
				
					<use xlink:href="#Stipple_2"  width="71.5" height="45.5" x="-35.7" y="-22.8" transform="matrix(1.7019 0 0 -1.3497 993.9345 753.1024)" style="overflow:visible;"/>
				
					<use xlink:href="#Stipple_2"  width="71.5" height="45.5" x="-35.7" y="-22.8" transform="matrix(1.7019 0 0 -1.3497 1023.3572 570.1348)" style="overflow:visible;"/>
				
					<use xlink:href="#Stipple_2"  width="71.5" height="45.5" x="-35.7" y="-22.8" transform="matrix(1.7019 0 0 -1.3497 1047.4886 536.4589)" style="overflow:visible;"/>
				
					<use xlink:href="#Stipple_2"  width="71.5" height="45.5" x="-35.7" y="-22.8" transform="matrix(1.7019 0 0 -1.3497 1109.3867 558.1729)" style="overflow:visible;"/>
				
					<use xlink:href="#Stipple_2"  width="71.5" height="45.5" x="-35.7" y="-22.8" transform="matrix(1.7019 0 0 -1.3497 1161.7837 568.2484)" style="overflow:visible;"/>
				
					<use xlink:href="#Stipple_2"  width="71.5" height="45.5" x="-35.7" y="-22.8" transform="matrix(1.7019 0 0 -1.3497 1154.2053 611.4581)" style="overflow:visible;"/>
				
					<use xlink:href="#Stipple_2"  width="71.5" height="45.5" x="-35.7" y="-22.8" transform="matrix(1.7019 0 0 -1.3497 1136.9473 659.7039)" style="overflow:visible;"/>
				
					<use xlink:href="#Stipple_2"  width="71.5" height="45.5" x="-35.7" y="-22.8" transform="matrix(1.7019 0 0 -1.3497 1201.306 665.8301)" style="overflow:visible;"/>
				
					<use xlink:href="#Stipple_2"  width="71.5" height="45.5" x="-35.7" y="-22.8" transform="matrix(1.7019 0 0 -1.3497 1192.9523 703.7291)" style="overflow:visible;"/>
				
					<use xlink:href="#Stipple_2"  width="71.5" height="45.5" x="-35.7" y="-22.8" transform="matrix(1.7019 0 0 -1.3497 1210.4086 737.6216)" style="overflow:visible;"/>
				
					<use xlink:href="#Stipple_2"  width="71.5" height="45.5" x="-35.7" y="-22.8" transform="matrix(1.7019 0 0 -1.3497 1173.3909 766.0009)" style="overflow:visible;"/>
			</g>
		</g>
	</mask>
	<g class="st85">
		<path class="st86" d="M1016.2,698.6c-2.4,2.8-6,1.1-9.8,0.5s-7.3-2.6-11.1-2.3c-3.8,0.3-7.5,2.8-11.1,1.7c-3.5-1.1-5.1-5.1-8-7.3
			c-5.1-3.7-12.2-0.9-18.6-0.5c-11.9,0.9-22.4-7-31.4-14.6c-9-7.6-18.8-16-30.7-16.4c-6-0.2-11.9,1.6-17.9,1.9
			c-19.1,0.9-35.8-14.7-41.3-32.5c-1.7-5.3-2.7-11.3-7-15c-2.4-2.1-5.5-3.2-8.6-4.2c-10.4-3.2-21.2-5.1-32.1-5.4
			c-1.9-0.1-4-0.1-5.7-0.9c-1.6-0.8-2.8-2.2-3.9-3.6c-6.4-7.8-12.9-15.7-19.3-23.5l-2.2-122.8c3.5,4.8,9.7,7.7,15.7,7.1
			c3.2-0.3,6.3-1.4,9.5-0.9c6.2,1,9.6,7.7,15,10.8c5,2.8,11.3,2.2,16.6,4.3c15.4,6.2,15.2,31,30.9,36.5c4.5,1.6,9.5,1.2,13.9,2.9
			c10,3.9,13.4,17.1,23.3,21.3c11.2,4.7,25.9-4,35.8,3c3.2,2.3,5.1,5.8,7.6,8.8c14.3,16.7,42.9,11.1,61.5,23.2
			c3.3,2.2,6.3,4.9,9.9,6.7c5.9,2.9,13.1,3,19.1,0.2L1016.2,698.6z"/>
	</g>
	<defs>
		<filter id="Adobe_OpacityMaskFilter_6_" filterUnits="userSpaceOnUse" x="758.1" y="634.3" width="257" height="211.6">
			<feColorMatrix  type="matrix" values="1 0 0 0 0  0 1 0 0 0  0 0 1 0 0  0 0 0 1 0"/>
		</filter>
	</defs>
	<mask maskUnits="userSpaceOnUse" x="758.1" y="634.3" width="257" height="211.6" id="SVGID_46_">
		<g class="st87">
			<g>
				
					<use xlink:href="#Stipple_2"  width="71.5" height="45.5" x="-35.7" y="-22.8" transform="matrix(1.5427 0 0 -1.6292 713.6511 637.6117)" style="overflow:visible;"/>
				
					<use xlink:href="#Stipple_2"  width="71.5" height="45.5" x="-35.7" y="-22.8" transform="matrix(1.5427 0 0 -1.6292 709.2817 689.5552)" style="overflow:visible;"/>
				
					<use xlink:href="#Stipple_2"  width="71.5" height="45.5" x="-35.7" y="-22.8" transform="matrix(1.5427 0 0 -1.6292 721.5441 751.5372)" style="overflow:visible;"/>
				
					<use xlink:href="#Stipple_2"  width="71.5" height="45.5" x="-35.7" y="-22.8" transform="matrix(1.5427 0 0 -1.6292 770.1483 718.381)" style="overflow:visible;"/>
				
					<use xlink:href="#Stipple_2"  width="71.5" height="45.5" x="-35.7" y="-22.8" transform="matrix(1.5427 0 0 -1.6292 775.3012 777.839)" style="overflow:visible;"/>
				
					<use xlink:href="#Stipple_2"  width="71.5" height="45.5" x="-35.7" y="-22.8" transform="matrix(1.5427 0 0 -1.6292 807.4134 819.7903)" style="overflow:visible;"/>
				
					<use xlink:href="#Stipple_2"  width="71.5" height="45.5" x="-35.7" y="-22.8" transform="matrix(1.5427 0 0 -1.6292 851.2513 774.7224)" style="overflow:visible;"/>
				
					<use xlink:href="#Stipple_2"  width="71.5" height="45.5" x="-35.7" y="-22.8" transform="matrix(1.5427 0 0 -1.6292 885.7622 816.2248)" style="overflow:visible;"/>
				
					<use xlink:href="#Stipple_2"  width="71.5" height="45.5" x="-35.7" y="-22.8" transform="matrix(1.5427 0 0 -1.6292 900.0814 742.8963)" style="overflow:visible;"/>
				
					<use xlink:href="#Stipple_2"  width="71.5" height="45.5" x="-35.7" y="-22.8" transform="matrix(1.5427 0 0 -1.6292 936.0457 708.6028)" style="overflow:visible;"/>
				
					<use xlink:href="#Stipple_2"  width="71.5" height="45.5" x="-35.7" y="-22.8" transform="matrix(1.5427 0 0 -1.6292 975.0696 745.193)" style="overflow:visible;"/>
				
					<use xlink:href="#Stipple_2"  width="71.5" height="45.5" x="-35.7" y="-22.8" transform="matrix(1.5427 0 0 -1.6292 980.3882 807.9591)" style="overflow:visible;"/>
				
					<use xlink:href="#Stipple_2"  width="71.5" height="45.5" x="-35.7" y="-22.8" transform="matrix(1.5427 0 0 -1.6292 1031.7216 765.9794)" style="overflow:visible;"/>
				
					<use xlink:href="#Stipple_2"  width="71.5" height="45.5" x="-35.7" y="-22.8" transform="matrix(1.5427 0 0 -1.6292 1025.5391 847.9773)" style="overflow:visible;"/>
				
					<use xlink:href="#Stipple_2"  width="71.5" height="45.5" x="-35.7" y="-22.8" transform="matrix(1.5427 0 0 -1.6292 1074.6691 785.7212)" style="overflow:visible;"/>
				
					<use xlink:href="#Stipple_2"  width="71.5" height="45.5" x="-35.7" y="-22.8" transform="matrix(1.5427 0 0 -1.6292 1065.7341 832.2206)" style="overflow:visible;"/>
			</g>
		</g>
	</mask>
	<g class="st88">
		<path class="st89" d="M972.2,839.6l42.9-1.5V698.6c-4.4,7.8-25.7,12.8-39.9,12.6c-4.4,0-8.6-1.2-12.9-1.8c-8.3-1.1-16.7,0-25,1
			c-9.1,1.2-18.2,2.4-27.2,3.5c-4.1,0.5-8.3,1.1-12.3,0c-4.7-1.2-8.6-4.4-13-6.7c-13.4-6.9-29.7-3.8-44.9-4c-4.5-0.1-9.2-0.5-12.9-3
			c-4.8-3.2-7-9.3-11.6-12.7c-8.5-6.3-23.3-3-28.7-12c-1.4-2.4-1.8-5.2-2.7-7.8c-4.9-13.6-23.2-19.3-25.9-33.5l1.1,136.5
			c10.3,2.9,18.3,11.3,22.5,20.9c1.6,3.7,2.8,7.6,5.6,10.5c9.8,9.9,30.4-0.8,39.9,9.4c2.5,2.7,3.7,6.5,6.6,8.9
			c4.6,3.9,11.5,2.8,17.6,3.3c14.8,1,27.1,12,41.8,13.8c5.8,0.7,11.8-0.1,17.6,0.9c12,1.9,23.9,11,35.2,6.4
			c3.5-1.5,6.4-4.2,10.1-5.5C959.8,837.9,971.1,836.1,972.2,839.6"/>
	</g>
	<defs>
		<filter id="Adobe_OpacityMaskFilter_7_" filterUnits="userSpaceOnUse" x="758" y="453.9" width="258.7" height="246.5">
			<feColorMatrix  type="matrix" values="1 0 0 0 0  0 1 0 0 0  0 0 1 0 0  0 0 0 1 0"/>
		</filter>
	</defs>
	<mask maskUnits="userSpaceOnUse" x="758" y="453.9" width="258.7" height="246.5" id="SVGID_47_">
		<g class="st90">
			<g>
				
					<use xlink:href="#Stipple_2"  width="71.5" height="45.5" x="-35.7" y="-22.8" transform="matrix(1.4803 0.353 0.3685 -1.4596 1096.334 662.7418)" style="overflow:visible;"/>
				
					<use xlink:href="#Stipple_2"  width="71.5" height="45.5" x="-35.7" y="-22.8" transform="matrix(1.4803 0.353 0.3685 -1.4596 1056.729 681.485)" style="overflow:visible;"/>
				
					<use xlink:href="#Stipple_2"  width="71.5" height="45.5" x="-35.7" y="-22.8" transform="matrix(1.4803 0.353 0.3685 -1.4596 976.1934 621.5695)" style="overflow:visible;"/>
				
					<use xlink:href="#Stipple_2"  width="71.5" height="45.5" x="-35.7" y="-22.8" transform="matrix(1.4803 0.353 0.3685 -1.4596 946.7402 567.735)" style="overflow:visible;"/>
				
					<use xlink:href="#Stipple_2"  width="71.5" height="45.5" x="-35.7" y="-22.8" transform="matrix(1.4803 0.353 0.3685 -1.4596 903.5505 543.365)" style="overflow:visible;"/>
				
					<use xlink:href="#Stipple_2"  width="71.5" height="45.5" x="-35.7" y="-22.8" transform="matrix(1.4803 0.353 0.3685 -1.4596 868.5385 498.8177)" style="overflow:visible;"/>
				
					<use xlink:href="#Stipple_2"  width="71.5" height="45.5" x="-35.7" y="-22.8" transform="matrix(1.4803 0.353 0.3685 -1.4596 889.3315 456.8364)" style="overflow:visible;"/>
				
					<use xlink:href="#Stipple_2"  width="71.5" height="45.5" x="-35.7" y="-22.8" transform="matrix(1.4803 0.353 0.3685 -1.4596 931.66 476.7442)" style="overflow:visible;"/>
				
					<use xlink:href="#Stipple_2"  width="71.5" height="45.5" x="-35.7" y="-22.8" transform="matrix(1.4803 0.353 0.3685 -1.4596 991.3641 532.2361)" style="overflow:visible;"/>
				
					<use xlink:href="#Stipple_2"  width="71.5" height="45.5" x="-35.7" y="-22.8" transform="matrix(1.4803 0.353 0.3685 -1.4596 1028.1964 559.2775)" style="overflow:visible;"/>
				
					<use xlink:href="#Stipple_2"  width="71.5" height="45.5" x="-35.7" y="-22.8" transform="matrix(1.4803 0.353 0.3685 -1.4596 1047.8794 610.1607)" style="overflow:visible;"/>
			</g>
		</g>
	</mask>
	<g class="st91">
		<path class="st92" d="M1016.6,698.8c-2.4,2.8-6,1.1-9.8,0.5s-7.3-2.6-11.1-2.3c-3.8,0.3-7.5,2.8-11.1,1.7c-3.5-1.1-5.1-5.1-8-7.3
			c-5.1-3.7-12.2-0.9-18.6-0.5c-11.9,0.9-22.4-7-31.4-14.6c-9-7.6-18.8-16-30.7-16.4c-6-0.2-11.9,1.6-17.9,1.9
			c-19.1,0.9-35.8-14.7-41.3-32.5c-1.7-5.3-2.7-11.3-7-15c-2.4-2.1-5.5-3.2-8.6-4.2c-10.4-3.2-21.2-5.1-32.1-5.4
			c-1.9-0.1-4-0.1-5.7-0.9c-1.6-0.8-2.8-2.2-3.9-3.6c-6.4-7.8-12.9-15.7-19.3-23.5L758,453.9c3.5,4.8,9.7,7.7,15.7,7.1
			c3.2-0.3,6.3-1.4,9.5-0.9c6.2,1,9.6,7.7,15,10.8c5,2.8,11.3,2.2,16.6,4.3c15.4,6.2,15.2,31,30.9,36.5c4.5,1.6,9.5,1.2,13.9,2.9
			c10,3.9,13.4,17.1,23.3,21.3c11.2,4.7,25.9-4,35.8,3c3.2,2.3,5.1,5.8,7.6,8.8c14.3,16.7,42.9,11.1,61.5,23.2
			c3.3,2.2,6.3,4.9,9.9,6.7c5.9,2.9,13.1,3,19.1,0.2L1016.6,698.8z"/>
	</g>
	<defs>
		<filter id="Adobe_OpacityMaskFilter_8_" filterUnits="userSpaceOnUse" x="762.4" y="813.7" width="254.2" height="98.4">
			<feColorMatrix  type="matrix" values="1 0 0 0 0  0 1 0 0 0  0 0 1 0 0  0 0 0 1 0"/>
		</filter>
	</defs>
	<mask maskUnits="userSpaceOnUse" x="762.4" y="813.7" width="254.2" height="98.4" id="SVGID_48_">
		<g class="st93">
			<g>
				
					<use xlink:href="#Stipple_2"  width="71.5" height="45.5" x="-35.7" y="-22.8" transform="matrix(1.1772 0 0 -1.2939 1061.3003 826.5721)" style="overflow:visible;"/>
				
					<use xlink:href="#Stipple_2"  width="71.5" height="45.5" x="-35.7" y="-22.8" transform="matrix(1.1772 0 0 -1.2939 1035.1372 804.4484)" style="overflow:visible;"/>
				
					<use xlink:href="#Stipple_2"  width="71.5" height="45.5" x="-35.7" y="-22.8" transform="matrix(1.1772 0 0 -1.2939 1025.3069 857.6435)" style="overflow:visible;"/>
				
					<use xlink:href="#Stipple_2"  width="71.5" height="45.5" x="-35.7" y="-22.8" transform="matrix(1.1772 0 0 -1.2939 972.58 900.8635)" style="overflow:visible;"/>
				
					<use xlink:href="#Stipple_2"  width="71.5" height="45.5" x="-35.7" y="-22.8" transform="matrix(1.1772 0 0 -1.2939 938.7729 930.1986)" style="overflow:visible;"/>
				
					<use xlink:href="#Stipple_2"  width="71.5" height="45.5" x="-35.7" y="-22.8" transform="matrix(1.1772 0 0 -1.2939 909.4089 896.8498)" style="overflow:visible;"/>
				
					<use xlink:href="#Stipple_2"  width="71.5" height="45.5" x="-35.7" y="-22.8" transform="matrix(1.1772 0 0 -1.2939 878.4982 936.3903)" style="overflow:visible;"/>
				
					<use xlink:href="#Stipple_2"  width="71.5" height="45.5" x="-35.7" y="-22.8" transform="matrix(1.1772 0 0 -1.2939 842.369 913.0123)" style="overflow:visible;"/>
				
					<use xlink:href="#Stipple_2"  width="71.5" height="45.5" x="-35.7" y="-22.8" transform="matrix(1.1772 0 0 -1.2939 799.1266 927.2487)" style="overflow:visible;"/>
				
					<use xlink:href="#Stipple_2"  width="71.5" height="45.5" x="-35.7" y="-22.8" transform="matrix(1.1772 0 0 -1.2939 768.0244 898.6979)" style="overflow:visible;"/>
			</g>
		</g>
	</mask>
	<g class="st94">
		<path class="st92" d="M1016.4,851.4c-10.8,8.2-21,16.1-27.6,27.7c-2,3.5-3.7,7.5-7.1,9.8c-2.5,1.7-5.5,2.3-8.5,3.1
			c-7.5,2-14.5,5.4-20.8,9.8c-6.9,4.9-14.3,11.6-22.7,10.1c-2.4-0.4-4.6-1.5-6.9-2.1c-3-0.8-6.1-0.8-9.2-0.9
			c-15.8-0.2-31.5-0.4-47.3-0.6c-3.5,0-7-0.1-10.4-1c-4-1.1-7.7-3.2-11.6-4.5c-6.7-2.2-14-1.7-21-2.3c-17.9-1.7-34.8-11.5-44.7-26.1
			c-5.3-7.8-15.3-19.6-15.3-32.1l-0.9-14c11.5,3.4,15.2,15.2,25.2,21.8c7.9,5.2,18.1,5.8,26.6,10.1c4.3,2.2,8.1,5.4,12.7,7
			c4.8,1.7,10.1,1.7,15.2,1.6c13.9-0.3,28-0.6,41.3-4.4c9.5-2.7,19.1-7.2,28.9-5.6c3.5,0.6,6.8,1.9,10.3,2.1
			c7.5,0.4,14.1-4.6,21.2-6.8c5.4-1.7,11.3-1.8,16.6-3.9c10.2-3.9,16.4-13.9,25.5-19.8c9.9-6.4,23.9-7.1,30.6-16.7L1016.4,851.4z"/>
	</g>
</g>
</svg>
