<svg id="Layer_1" data-name="Layer 1" xmlns="http://www.w3.org/2000/svg" viewBox="0 0 1921 1080"><title>lines</title><path d="M1919,1V1079H1V1H1919m1-1H0V1080H1920V0Z" transform="translate(1)" fill="#8494ab"/><path d="M-1,177.5H1919M-1,203.5H1919M-1,229.5H1919M-1,255.5H1919M-1,281.5H1919M-1,433.5H1919M-1,459.5H1919M-1,485.5H1919M-1,511.5H1919M-1,537.5H1919M-1,663.5H1919M-1,689.5H1919M-1,715.5H1919M-1,741.5H1919M-1,767.5H1919M-1,893.5H1919M-1,919.5H1919M-1,945.5H1919M-1,971.5H1919M-1,997.5H1919M558,434V538M543,663V767m512,128V999m423-104V999M795,663V767m460-104V767M596,177V281m643-104V281M1120,434V538m434-104V538" transform="translate(1)" fill="none" stroke="#3a3a3a" stroke-miterlimit="10" stroke-width="2"/></svg>