<svg id="Layer_1" data-name="Layer 1" xmlns="http://www.w3.org/2000/svg" viewBox="0 0 1920 1080"><title>music</title><path d="M1919,1V1079H1V1H1919m1-1H0V1080H1920V0Z" fill="#8494ab"/><path d="M1516,221s1.51-72.27.91-94.53c-.36-13.41-1.91-40.23-1.35-53.63.09-2.18,1.1-6.49.94-8.67-.24-3.29-3.5-13.27-4.5-12.06s1,29.37,1.2,39.17c.43,21-1.54,62.9-1.4,83.87,0,7,2.2,27.76,2.2,27.76" fill="#3a3a3a"/><path d="M947,492s1.51-64.57.91-84.46c-.36-12-1.91-35.95-1.35-47.92.09-2,1.1-5.8.94-7.75-.24-2.94-3.5-11.86-4.5-10.78s1,26.24,1.2,35c.43,18.73-1.54,56.2-1.4,74.94,0,6.22,2.2,24.81,2.2,24.81" fill="#3a3a3a"/><path d="M1551,100.51s-16.37-2.67-25.76,5.89-8.24,25.1-8.24,25.1,16.37,2.67,25.76-5.89S1551,100.51,1551,100.51Zm-20.39,26.73a23.54,23.54,0,0,1-6.65,1.12c-.82,0-2.4.18-2.91-.62-.79-1.26.07-3.16.53-4.39a49.49,49.49,0,0,0,1.59-5.38,19.1,19.1,0,0,1,3-6.89,36.74,36.74,0,0,0,.31,9.28,45.89,45.89,0,0,1,8.31-12.14,28.2,28.2,0,0,0-1.55,7.13c2.7-3.16,10.51-9.92,11.35-9.55l-9.38,10.65,7.34-.71c-1.87,2.43-4.72,3.86-7.47,5.21l-4.54,2.24q3.19.74,6.3,1.76c-.48-.16-2.35.94-2.89,1.15C1532.84,126.51,1531.73,126.9,1530.61,127.24Z" fill="#3a3a3a"/><path d="M1474.51,129a82.76,82.76,0,0,0,12.89,18.76c8.56,9.39,25.1,12.24,25.1,12.24s2.67-16.37-5.89-25.76S1474.51,129,1474.51,129Zm33.73,17.39a23.54,23.54,0,0,1,1.12,6.65c0,.82.18,2.4-.62,2.91-1.26.79-3.16-.07-4.39-.53-1.79-.67-3.53-2.12-5.38-2.59-2.44-.62-4.86-3.45-6.89-5,3.09.29,6.22,3.18,9.28,2.69-4.46-2.09-8.58-5.91-12.14-9.31,2.3.82,4.7,2.35,7.13,2.55-3.16-2.7-9.92-10.51-9.55-11.35l10.65,9.38-.71-7.34c2.43,1.87,3.86,4.72,5.21,7.47l2.24,4.54q.74-3.19,1.76-6.3c-.16.48.94,2.35,1.15,2.89C1507.51,144.16,1507.9,145.27,1508.24,146.39Z" fill="#3a3a3a"/><path d="M1481,66.44s-.52,15.13,8.48,24.09,24.14,8.35,24.14,8.35.52-15.13-8.48-24.09S1481,66.44,1481,66.44Zm27.08,19.67a24.33,24.33,0,0,1,1.82,6.21c.1.76.45,2.24-.23,2.68-1.07.7-2.93-.15-4.11-.61a51.77,51.77,0,0,0-5.15-1.63,20.81,20.81,0,0,1-6.71-3,33.31,33.31,0,0,0,8.52,0,52.52,52.52,0,0,1-12.19-8.06,28.62,28.62,0,0,0,6.76,1.64c-3.23-2.6-10.4-10-10.15-10.8l10.93,9-1.52-6.84c2.46,1.81,4.12,4.49,5.7,7.08l2.6,4.28q.31-2.94.88-5.81c-.09.44,1.15,2.21,1.4,2.72C1507.17,84,1507.67,85.06,1508.11,86.11Z" fill="#3a3a3a"/><path d="M1487.46,58.29s.38,12.88,7.46,16.78,18.16-2.67,18.16-2.67-.38-12.88-7.46-16.78S1487.46,58.29,1487.46,58.29Zm20.9,5.64A15.32,15.32,0,0,1,1510,68.4c.11.6.45,1.69,0,2.34-.75,1-2.16,1-3.05,1.13a31.38,31.38,0,0,0-3.87.7,11,11,0,0,1-5.08.21,30.83,30.83,0,0,0,6.26-3.44,23.21,23.21,0,0,1-9.37-1.87,19.09,19.09,0,0,0,5.05-1.33c-2.51-.88-8.15-4.24-8-5l8.49,3.16-1.47-5.12c1.9.53,3.26,2.11,4.54,3.65l2.13,2.54q.08-2.59.35-5.21c0,.41,1,1.39,1.17,1.71C1507.57,62.55,1508,63.22,1508.36,63.93Z" fill="#3a3a3a"/><path d="M638.84,622.46a39.75,39.75,0,0,0-17.83,7c-8.2,6.1-13.51,12.84-11.86,15.05s9.63-.93,17.83-7A39.75,39.75,0,0,0,638.84,622.46Zm-13.93,11.32c-4.48,3.53-9,7.08-14.07,9.67,1.87-1,3.68-3.12,5.32-4.46q4.85-4,9.87-7.74c1.18-.89,6.59-5.42,9.63-6.27a25.06,25.06,0,0,1-4.25,4.25C628.74,631.34,627.59,631.67,624.91,633.78Z" fill="#3a3a3a"/><path d="M654.82,672.78a66.45,66.45,0,0,0-19-16.56c-11.85-6.75-22.56-10.27-23.92-7.87s7.13,9.81,19,16.56A66.45,66.45,0,0,0,654.82,672.78ZM633.65,661.6c-6.69-3.62-13.42-7.28-19.47-11.82,2.23,1.68,5.73,2.91,8.24,4.22q7.41,3.88,14.7,8c1.72,1,10.09,5.27,12.95,8.2a44,44,0,0,1-7.33-3.17C638.74,664.88,637.64,663.77,633.65,661.6Z" fill="#3a3a3a"/><path d="M405.25,172.11a30.85,30.85,0,0,0,9,11.88c6.26,4.87,12.4,7.45,13.72,5.75s-2.69-7-9-11.88A30.85,30.85,0,0,0,405.25,172.11Zm11.36,8.07a67.56,67.56,0,0,1,10.15,8.52c-1.1-1.2-3.1-2.11-4.44-3.05q-4-2.81-7.83-5.78c-.91-.7-5.42-3.81-6.69-5.91a19.45,19.45,0,0,1,4.06,2.3C414,177.83,414.47,178.62,416.6,180.18Z" fill="#3a3a3a"/><path d="M476.79,98.3a30.85,30.85,0,0,0-14.73,2.05c-7.3,3.11-12.53,7.22-11.69,9.19s7.44,1.05,14.73-2.05A30.85,30.85,0,0,0,476.79,98.3Zm-12.57,6A67.56,67.56,0,0,1,451.84,109c1.59-.38,3.35-1.68,4.83-2.4q4.39-2.11,8.86-4c1.05-.45,6-2.89,8.41-3a19.45,19.45,0,0,1-4,2.43C467.55,103.16,466.62,103.2,464.22,104.31Z" fill="#3a3a3a"/><path d="M421,110.49a59.34,59.34,0,0,0-7.31,4.84c-3.14,2.54-5.27,5.11-4.76,5.74s3.47-.91,6.61-3.45A25.44,25.44,0,0,0,421,110.49Zm-6.07,6.72a40.78,40.78,0,0,1-5.36,3.4,19,19,0,0,0,2.06-1.82q1.87-1.62,3.8-3.19c.45-.37,2.55-2.91,3.66-3.38-1.05,1.18-1.34,2.09-1.67,2.37C416.36,115.47,415.93,116.34,414.91,117.21Z" fill="#3a3a3a"/><path d="M426.3,217s20.72-4.29,33.93-13.12S474.12,185,474.12,185s-23.44,4.63-36.65,13.46S426.3,217,426.3,217Zm3.61-4.28c.86-3.81,4.17-6.63,7.74-8.21s7.48-2.16,11.24-3.22c6.33-1.78,13.42-5.06,18-9.89-3.91,5-8.32,9.06-14.31,11.41-3.9,1.53-8.07,2.26-12.08,3.5S432.52,209.42,429.9,212.7Z" fill="#3a3a3a"/><path d="M610.53,650.82s21,2.33,36.32-2,19-13.64,19-13.64-23.72-2.84-39,1.47S610.53,650.82,610.53,650.82Zm4.75-3c2-3.35,6-5,9.89-5.42s7.78.25,11.68.41c6.58.26,14.32-.66,20.19-3.84-5.25,3.52-10.71,6-17.14,6.43-4.19.25-8.37-.35-12.57-.4S618.77,645.56,615.28,647.87Z" fill="#3a3a3a"/><path d="M947.31,404.42s-13.87-8.69-26-10.82-17.84,3.1-17.84,3.1,15.57,9.95,27.66,12.08S947.31,404.42,947.31,404.42Zm-4.3.46c-2.52,1.66-5.87,1.48-8.71.45s-5.34-2.79-8-4.21c-4.49-2.39-10.2-4.35-15.35-4.11,4.84-.69,9.49-.61,14.09,1.28,3,1.23,5.71,3.06,8.62,4.5S939.8,405.32,943,404.88Z" fill="#3a3a3a"/><path d="M144.11,385.54s-13.62-6.79-25.84-2.39-20.44,12.59-18.39,18.31,13.62,6.79,25.84,2.39S144.11,385.54,144.11,385.54Zm-30.22,17.89a2.45,2.45,0,0,1-.74-.85c-.59-.87-1.15-1.76-1.69-2.67-.31-.53-.56-1.38-1.28-1.45-1-.09-2,.68-2.79,1.2a10.64,10.64,0,0,1-3.14,1.41,22.5,22.5,0,0,0-2.54.19c2.31-2.09,5.39-3.06,8.13-4.55.24-.13.5-.3.56-.57a1,1,0,0,0-.14-.58,15.57,15.57,0,0,1-1.34-4.91c0-.42.09-1,.52-1a.67.67,0,0,1,.39.23,9.37,9.37,0,0,1,1.64,3.26c.47,1.13,1.29,2.3,2.5,2.45a4,4,0,0,0,1.86-.36A53.7,53.7,0,0,0,121,393a1.06,1.06,0,0,0,.44-.33,1,1,0,0,0,.09-.67c-.28-2.64-1.47-5.2-1.14-7.84A3.19,3.19,0,0,1,122,386a15.29,15.29,0,0,1,.6,2.38c.16.74.67,3.67,1.62,3.69s2.49-1,3.37-1.52c.69-.41,1.36-.85,2.08-1.22.43-.22,1.6-.41,1.65-1a24.65,24.65,0,0,0-.45-4.09c0-.26,0-.6.26-.65s.36.15.47.32l2.23,3.29a2.31,2.31,0,0,0,2.31,1.08c.56-.05,4.26-1.89,4-.76-.3,1.48-3.14,1.31-4.06,2.26-1.4,1.45.29,4.38-1.23,5.71a.45.45,0,0,1-.38.14c-.14,0-.22-.18-.28-.3l-2-4c-.14-.28-.32-.59-.62-.64a1,1,0,0,0-.45.07,25.66,25.66,0,0,0-6.18,3l1.18,4.36c.15.57.24,1.32-.26,1.62s-1.32-.37-1.67-1l-1.31-2.36c-.39-.7-.86-1.47-1.64-1.64a2.86,2.86,0,0,0-1.7.35c-1.44.62-2.86,1.3-4.32,1.87-.66.26-1,.34-1.14,1.11a7.27,7.27,0,0,0,.73,3.91c.21.46.44,1,.12,1.41A.84.84,0,0,1,113.89,403.43Z" fill="#3a3a3a"/><path d="M69.75,390.85s-10.88,3.34-15.24,12-4.6,17.35-.54,19.39,10.88-3.34,15.24-12S69.75,390.85,69.75,390.85Zm-7.17,25.26a1.83,1.83,0,0,1-.84-.08c-.77-.17-1.53-.36-2.29-.58-.44-.12-1-.46-1.44-.13a3.65,3.65,0,0,0-.89,2.09,8,8,0,0,1-1,2.38c-.2.31-1.26,1.19-1.28,1.41.18-2.32,1.35-4.44,2.06-6.65a.71.71,0,0,0,0-.59.74.74,0,0,0-.37-.24,11.64,11.64,0,0,1-3.25-2c-.24-.21-.48-.6-.22-.8a.5.5,0,0,1,.33-.08,7,7,0,0,1,2.57.92,2.66,2.66,0,0,0,2.62,0,3,3,0,0,0,.82-1.15,40.15,40.15,0,0,0,1.64-3.9.79.79,0,0,0,.07-.4.77.77,0,0,0-.3-.41c-1.51-1.28-3.47-2.07-4.65-3.66a2.38,2.38,0,0,1,1.78.17,11.43,11.43,0,0,1,1.55,1c.47.32,2.25,1.65,2.78,1.17a5.88,5.88,0,0,0,1-2.56c.16-.58.3-1.16.5-1.73.12-.34.66-1,.39-1.38a18.43,18.43,0,0,0-2.35-2c-.15-.13-.31-.33-.19-.49s.27-.1.42-.07l2.9.64a1.72,1.72,0,0,0,1.81-.6c.28-.32,1.34-3.22,1.79-2.49.6,1-1,2.32-1,3.31,0,1.51,2.42,2.23,2.28,3.73a.33.33,0,0,1-.14.27.38.38,0,0,1-.31,0l-3.12-1.14a.75.75,0,0,0-.66,0,.72.72,0,0,0-.21.27,19.19,19.19,0,0,0-1.82,4.79l2.88,1.76c.38.23.81.59.69,1s-.9.48-1.43.31l-1.92-.61a1.61,1.61,0,0,0-2.48,1c-.46,1.08-.88,2.18-1.38,3.24-.23.48-.36.69-.05,1.19a5.44,5.44,0,0,0,2.41,1.75c.35.14.77.33.79.7A.63.63,0,0,1,62.57,416.11Z" fill="#3a3a3a"/><path d="M32.63,467.44s7.65,14,22,20.84,27.85,8.69,30.06,4.05-7.65-14-22-20.84S32.63,467.44,32.63,467.44Zm40.64,13.23a1.76,1.76,0,0,1,.07,1c-.09.91-.21,1.82-.36,2.71-.09.52-.48,1.17.14,1.75a8.58,8.58,0,0,0,3.43,1.47,18.83,18.83,0,0,1,3.9,1.62c.53.3,2.13,1.76,2.47,1.82-3.63-.62-7.16-2.43-10.74-3.7a1.41,1.41,0,0,0-.92-.11.6.6,0,0,0-.29.42,9.22,9.22,0,0,1-2.3,3.66.89.89,0,0,1-1.18.14.68.68,0,0,1-.19-.41c-.17-1.12.45-2,.83-3a2.83,2.83,0,0,0-.54-3.22,7,7,0,0,0-2-1.21q-3.15-1.47-6.39-2.7a1.74,1.74,0,0,0-.64-.16.82.82,0,0,0-.56.3c-1.63,1.63-2.39,3.91-4.58,5.08a2.32,2.32,0,0,1-.15-2.16,9.06,9.06,0,0,1,1.16-1.74c.38-.52,2-2.48,1.16-3.22s-3-1.35-4.19-1.73c-.93-.3-1.87-.57-2.79-.92-.56-.21-1.77-1-2.22-.72a15.69,15.69,0,0,0-2.52,2.54.58.58,0,0,1-.71.15.52.52,0,0,1-.21-.53l.32-3.46A2.58,2.58,0,0,0,42,472c-.56-.4-5.27-2.2-4.26-2.64,1.34-.57,3.83,1.67,5.35,1.85,2.33.28,2.88-2.58,5.23-2.15a.77.77,0,0,1,.45.21.38.38,0,0,1,0,.38l-1,3.64a.78.78,0,0,0,.12.81,1.66,1.66,0,0,0,.46.3,45.32,45.32,0,0,0,7.81,3.08l2.05-3.24a1.21,1.21,0,0,1,1.41-.67,1.46,1.46,0,0,1,.81,1.81l-.49,2.26a2.25,2.25,0,0,0,.33,2.12A5,5,0,0,0,62,480.9c1.77.75,3.57,1.47,5.32,2.26.8.36,1.15.57,1.85.27a4.5,4.5,0,0,0,2.14-2.66c.14-.4.33-.89.91-.85A1.34,1.34,0,0,1,73.27,480.67Z" fill="#3a3a3a"/><path d="M1516.49,187.64s-14.48,4.9-26.73-2.1-17.63-23.26-17.63-23.26,16.59,14.34,29.61,19.76C1513.83,187.06,1516.49,187.64,1516.49,187.64Z" fill="#3a3a3a"/><path d="M151.61,412.53s-11.9,9.6-25.82,7.25S101.23,404,101.23,404s20.52,7.74,34.61,8.33C148.92,412.91,151.61,412.53,151.61,412.53Z" fill="#3a3a3a"/><path d="M137.05,454.35s-10.21,11.39-24.32,11.3S86,454.05,86,454.05s21.5,4.34,35.5,2.66C134.45,455.15,137.05,454.35,137.05,454.35Z" fill="#3a3a3a"/><path d="M122,472.16s-10.81,4.49-20.53-.23-14.66-16.86-14.66-16.86,13.41,10.1,23.63,13.57C119.93,471.85,122,472.16,122,472.16Z" fill="#3a3a3a"/><path d="M89.81,407.92S86.06,419,76.1,423.2s-22.34-.11-22.34-.11,16.44-3.42,25.78-8.81C88.22,409.27,89.81,407.92,89.81,407.92Z" fill="#3a3a3a"/><ellipse cx="405.33" cy="127.33" rx="1.87" ry="11.71" transform="translate(36.58 338.35) rotate(-47.22)" fill="#3a3a3a"/><ellipse cx="408.33" cy="145.33" rx="1.87" ry="11.71" transform="translate(154.5 496.64) rotate(-73.74)" fill="#3a3a3a"/><path d="M443.15,158.08a76.66,76.66,0,0,1-13.93,5.77s3.32-8,10.62-11.94,13.45-6.65,13.45-6.65S450.45,154.17,443.15,158.08Z" fill="#3a3a3a"/><path d="M442,169.47a76.66,76.66,0,0,1-14.64-3.59s7.42-4.5,15.62-3.34,14.78,2.6,14.78,2.6S450.21,170.63,442,169.47Z" fill="#3a3a3a"/><path d="M440.64,176a76.66,76.66,0,0,1-11.9-9.26s8.61-1.08,15.63,3.33,12.43,8.41,12.43,8.41S447.65,180.37,440.64,176Z" fill="#3a3a3a"/><ellipse cx="437.62" cy="118.89" rx="1.36" ry="7.92" transform="matrix(0.61, -0.79, 0.79, 0.61, 75.14, 391.39)" fill="#3a3a3a"/><path d="M112.55,341.44c-1.63,2-2.16,3.84-3.54,2.54s-1.17-3.94.45-5.9,4.07-2.49,5.44-1.19S114.18,339.49,112.55,341.44Z" fill="#3a3a3a"/><path d="M122.19,343.33a3.45,3.45,0,0,1-3.33,3.55c-1.84,0-3.33-2.77-3.33-4.73s2.6-4.73,4.45-4.73S122.19,341.37,122.19,343.33Z" fill="#3a3a3a"/><path d="M111.07,332.28c0,1.31-1.49,2.37-3.33,2.37s-3.33,2.37-3.33-2.37c0-1.31,1.49-2.37,3.33-2.37S111.07,331,111.07,332.28Z" fill="#3a3a3a"/><path d="M120,353c0,2.61.23,4.73-2.22,4.73s-6.67-2.12-6.67-4.73a4.45,4.45,0,1,1,8.89,0Z" fill="#3a3a3a"/><path d="M106.63,345.5a2.3,2.3,0,0,1-2.22,2.37c-1.23,0-4.45,1.31-4.45,0s3.22-4.73,4.45-4.73A2.3,2.3,0,0,1,106.63,345.5Z" fill="#3a3a3a"/><path d="M97.74,338.19c0,2,1,3.55,2.22,3.55s4.45-.41,4.45-2.37-3.22-4.73-4.45-4.73S97.74,336.23,97.74,338.19Z" fill="#3a3a3a"/><path d="M104.41,324.77c0,1.31,2.22,2.37-2.22,4.73-1.1.58-2.22-3.43-2.22-4.73a2.23,2.23,0,1,1,4.45,0Z" fill="#3a3a3a"/><path d="M124.57,330.4c0,2-3.22,2.37-4.45,2.37s-2.22-1.59-2.22-3.55,1-3.55,2.22-3.55S124.57,328.44,124.57,330.4Z" fill="#3a3a3a"/><path d="M110.17,355.62c-.58,1.86-3.76,1.16-4.92.74s-1.63-2.26-1-4.12,2-3,3.17-2.61S110.75,353.76,110.17,355.62Z" fill="#3a3a3a"/><path d="M113.3,324.77a2.3,2.3,0,0,1-2.22,2.37c-1.23,0-4.45-1.06-4.45-2.37,0-4.73,3.22-2.37,4.45-2.37A2.3,2.3,0,0,1,113.3,324.77Z" fill="#3a3a3a"/><ellipse cx="115.29" cy="333.09" rx="2.22" ry="2.37" fill="#3a3a3a"/><path d="M126.79,348.88c0,2-1,3.55-2.22,3.55s-2.22-.41-2.22-2.37,1-4.73,2.22-4.73S126.79,346.92,126.79,348.88Z" fill="#3a3a3a"/><ellipse cx="100.34" cy="353" rx="2.22" ry="2.37" fill="#3a3a3a"/><path d="M124.67,335.09a6.84,6.84,0,0,0-.24,3.07,2.35,2.35,0,0,0,.18.88,4.48,4.48,0,0,0,.78.87c.55.62.74,1.57,1.41,2a2.79,2.79,0,0,0,1.78.31.76.76,0,0,0,.35-.08.85.85,0,0,0,.3-.42,7.14,7.14,0,0,0,.82-3,7,7,0,0,0-.6-2.27C128.64,334.41,126,331.77,124.67,335.09Z" fill="#3a3a3a"/><path d="M97,327.94a2,2,0,0,0-1.63.19,1.78,1.78,0,0,0-.53,1.47,3.46,3.46,0,0,0,.81,2.09,2.06,2.06,0,0,0,1.09.71,1.21,1.21,0,0,0,1.19-.38,3.43,3.43,0,0,0,.16-2.77,2.1,2.1,0,0,0-.49-.48l-1.09-.85" fill="#3a3a3a"/><path d="M93.64,345a1.71,1.71,0,0,0-.74.62,1.92,1.92,0,0,0-.05,1.26,3.88,3.88,0,0,0,1,2.3,6.23,6.23,0,0,1,.5.41,3.16,3.16,0,0,1,.55,1.3,1.45,1.45,0,0,0,.83,1.07l-.45-.32a5.12,5.12,0,0,0,1.59-.48.7.7,0,0,0,.33-.26,1,1,0,0,0,.08-.41c0-.71.37-1.37.44-2.08a4.87,4.87,0,0,0-1.39-3.54C95.3,343.84,94.83,344.38,93.64,345Z" fill="#3a3a3a"/><path d="M92.89,339.36a2.86,2.86,0,0,0,.23,1.67.94.94,0,0,0,1.38.36,1.58,1.58,0,0,0,.36-.92l.32-2a6.2,6.2,0,0,0,.09-2.23c-.21-1-.93-1.87-1.59-1.08S93,338.37,92.89,339.36Z" fill="#3a3a3a"/><path d="M116.78,324.71a1.74,1.74,0,0,0-1.61.4,2,2,0,0,0-.61,1.64,1.52,1.52,0,0,0,.72,1.2,1,1,0,0,0,1.25-.3,1.86,1.86,0,0,0,.2-.61L117,326a1.42,1.42,0,0,0,0-.64.44.44,0,0,0-.44-.36" fill="#3a3a3a"/><ellipse cx="96.82" cy="323.55" rx="1.3" ry="1.39" fill="#3a3a3a"/><ellipse cx="94.21" cy="331.87" rx="1.3" ry="1.39" fill="#3a3a3a"/><ellipse cx="90.3" cy="344.35" rx="1.3" ry="1.39" fill="#3a3a3a"/><ellipse cx="95.52" cy="354.06" rx="1.3" ry="1.39" fill="#3a3a3a"/><ellipse cx="104.64" cy="359.61" rx="1.3" ry="1.39" fill="#3a3a3a"/><ellipse cx="111.15" cy="358.23" rx="1.3" ry="1.39" fill="#3a3a3a"/><ellipse cx="122.88" cy="354.06" rx="1.3" ry="1.39" fill="#3a3a3a"/><ellipse cx="130.7" cy="345.74" rx="1.3" ry="1.39" fill="#3a3a3a"/><ellipse cx="126.79" cy="330.48" rx="1.3" ry="1.39" fill="#3a3a3a"/><ellipse cx="120.27" cy="323.55" rx="1.3" ry="1.39" fill="#3a3a3a"/><ellipse cx="115.06" cy="319.39" rx="1.3" ry="1.39" fill="#3a3a3a"/><ellipse cx="105.94" cy="322.16" rx="1.3" ry="1.39" fill="#3a3a3a"/><path d="M30,389.89c-1.17,1.4-1.55,2.75-2.53,1.82s-.84-2.82.33-4.23,2.91-1.78,3.9-.85S31.14,388.49,30,389.89Z" fill="#3a3a3a"/><path d="M36.88,391.25a2.47,2.47,0,0,1-2.39,2.54c-1.32,0-2.39-2-2.39-3.39S34,387,35.28,387,36.88,389.84,36.88,391.25Z" fill="#3a3a3a"/><path d="M28.91,383.32c0,.94-1.07,1.7-2.39,1.7s-2.39,1.7-2.39-1.7c0-.94,1.07-1.7,2.39-1.7S28.91,382.39,28.91,383.32Z" fill="#3a3a3a"/><path d="M35.28,398.18c0,1.87.17,3.39-1.59,3.39s-4.78-1.52-4.78-3.39a3.19,3.19,0,1,1,6.37,0Z" fill="#3a3a3a"/><path d="M25.73,392.8a1.65,1.65,0,0,1-1.59,1.7c-.88,0-3.19.94-3.19,0s2.31-3.39,3.19-3.39A1.65,1.65,0,0,1,25.73,392.8Z" fill="#3a3a3a"/><path d="M19.35,387.56c0,1.4.71,2.54,1.59,2.54s3.19-.29,3.19-1.7S21.83,385,20.95,385,19.35,386.16,19.35,387.56Z" fill="#3a3a3a"/><path d="M24.13,377.95c0,.94,1.59,1.7-1.59,3.39-.79.42-1.59-2.46-1.59-3.39a1.6,1.6,0,1,1,3.19,0Z" fill="#3a3a3a"/><path d="M38.58,382c0,1.4-2.31,1.7-3.19,1.7s-1.59-1.14-1.59-2.54.71-2.54,1.59-2.54S38.58,380.58,38.58,382Z" fill="#3a3a3a"/><path d="M28.26,400.05c-.42,1.33-2.69.83-3.53.53s-1.17-1.62-.75-3,1.43-2.17,2.27-1.87S28.68,398.72,28.26,400.05Z" fill="#3a3a3a"/><path d="M30.51,377.95a1.65,1.65,0,0,1-1.59,1.7c-.88,0-3.19-.76-3.19-1.7,0-3.39,2.31-1.7,3.19-1.7A1.65,1.65,0,0,1,30.51,377.95Z" fill="#3a3a3a"/><ellipse cx="31.93" cy="383.91" rx="1.59" ry="1.7" fill="#3a3a3a"/><path d="M40.17,395.22c0,1.4-.71,2.54-1.59,2.54s-1.59-.29-1.59-1.7.71-3.39,1.59-3.39S40.17,393.82,40.17,395.22Z" fill="#3a3a3a"/><ellipse cx="21.22" cy="398.18" rx="1.59" ry="1.7" fill="#3a3a3a"/><path d="M38.65,385.34a4.9,4.9,0,0,0-.17,2.2,1.68,1.68,0,0,0,.13.63,3.21,3.21,0,0,0,.56.63c.39.44.53,1.12,1,1.46a2,2,0,0,0,1.28.22.54.54,0,0,0,.25-.05.61.61,0,0,0,.21-.3,5.12,5.12,0,0,0,.59-2.18,5,5,0,0,0-.43-1.63C41.5,384.85,39.62,383,38.65,385.34Z" fill="#3a3a3a"/><path d="M18.81,380.22a1.46,1.46,0,0,0-1.17.13,1.27,1.27,0,0,0-.38,1.05,2.48,2.48,0,0,0,.58,1.5,1.48,1.48,0,0,0,.78.51.87.87,0,0,0,.85-.27,2.46,2.46,0,0,0,.12-2,1.51,1.51,0,0,0-.35-.34l-.78-.61" fill="#3a3a3a"/><path d="M16.42,392.46a1.23,1.23,0,0,0-.53.44,1.38,1.38,0,0,0,0,.9,2.78,2.78,0,0,0,.7,1.65,4.47,4.47,0,0,1,.36.29,2.26,2.26,0,0,1,.4.93,1,1,0,0,0,.59.76l-.32-.23a3.67,3.67,0,0,0,1.14-.34.5.5,0,0,0,.23-.19.69.69,0,0,0,.06-.29c0-.51.26-1,.31-1.49a3.49,3.49,0,0,0-1-2.54C17.61,391.61,17.27,392,16.42,392.46Z" fill="#3a3a3a"/><path d="M15.88,388.4a2,2,0,0,0,.17,1.2.68.68,0,0,0,1,.25,1.13,1.13,0,0,0,.26-.66l.23-1.4a4.44,4.44,0,0,0,.07-1.6c-.15-.74-.66-1.34-1.14-.77S15.94,387.69,15.88,388.4Z" fill="#3a3a3a"/><path d="M33,377.9a1.25,1.25,0,0,0-1.16.29,1.44,1.44,0,0,0-.44,1.18,1.09,1.09,0,0,0,.51.86.69.69,0,0,0,.89-.21,1.33,1.33,0,0,0,.15-.44l.16-.78a1,1,0,0,0,0-.46.31.31,0,0,0-.31-.26" fill="#3a3a3a"/><ellipse cx="18.69" cy="377.07" rx="0.93" ry="0.99" fill="#3a3a3a"/><ellipse cx="16.83" cy="383.03" rx="0.93" ry="0.99" fill="#3a3a3a"/><ellipse cx="14.03" cy="391.98" rx="0.93" ry="0.99" fill="#3a3a3a"/><ellipse cx="17.76" cy="398.94" rx="0.93" ry="0.99" fill="#3a3a3a"/><ellipse cx="24.3" cy="402.91" rx="0.93" ry="0.99" fill="#3a3a3a"/><ellipse cx="28.97" cy="401.92" rx="0.93" ry="0.99" fill="#3a3a3a"/><ellipse cx="37.37" cy="398.94" rx="0.93" ry="0.99" fill="#3a3a3a"/><ellipse cx="42.97" cy="392.97" rx="0.93" ry="0.99" fill="#3a3a3a"/><ellipse cx="40.17" cy="382.04" rx="0.93" ry="0.99" fill="#3a3a3a"/><ellipse cx="35.5" cy="377.07" rx="0.93" ry="0.99" fill="#3a3a3a"/><ellipse cx="31.77" cy="374.09" rx="0.93" ry="0.99" fill="#3a3a3a"/><ellipse cx="25.23" cy="376.07" rx="0.93" ry="0.99" fill="#3a3a3a"/><path d="M1584.91,30.7a15.15,15.15,0,0,0-10.41-4.33c1.69-2.62,2.77-5.82,2.15-8.88s-3.3-5.81-6.42-5.78c-5.33.06-4.69,5.84-6.76,9.67-2.59-2.49-6.13-9.14-10.82-7.27-2.76,1.1-3.92,4.58-3.36,7.5s2.41,5.4,4.21,7.76c-3.67.57-8,1.65-9.23,5.16-1.07,3.06,1.12,6.57,4.13,7.77s6.48.52,9.41-.86A9.89,9.89,0,0,0,1573.4,52c2.13-1.5,1.63-6.5-.36-11.37l8.35,1.18a8.17,8.17,0,0,0,2.83.07c2.25-.48,3.72-2.89,3.67-5.18A9.08,9.08,0,0,0,1584.91,30.7Zm-16.57,3.94a4.56,4.56,0,0,1-2,2,3.84,3.84,0,0,1-3.54-.39,6.27,6.27,0,0,1-2.28-2.85C1556.53,24.11,1574,25,1568.33,34.64Z" fill="#3a3a3a"/><path d="M1562.61,52.52a7.61,7.61,0,0,0-3.16,4.69,6.16,6.16,0,0,0-4.16-1.94,3.52,3.52,0,0,0-3.48,2.59c-.5,2.63,2.41,2.89,4.09,4.29-1.48,1-5.11,2.11-4.65,4.6a3.35,3.35,0,0,0,3.36,2.4,9.79,9.79,0,0,0,4.24-1.3c-.09,1.86,0,4.1,1.62,5.06a3.31,3.31,0,0,0,4.24-1.26,6,6,0,0,0,.51-4.72,5,5,0,0,0,6.75-6.62c-.53-1.2-3-1.45-5.63-1l1.41-4a4.1,4.1,0,0,0,.31-1.38,2.58,2.58,0,0,0-2.19-2.32A4.56,4.56,0,0,0,1562.61,52.52Zm.29,8.55a2.29,2.29,0,0,1,.76,1.18,1.93,1.93,0,0,1-.54,1.7,3.15,3.15,0,0,1-1.63.84C1556.55,65.84,1558.72,57.35,1562.91,61.07Z" fill="#3a3a3a"/><path d="M1523.61,150.52a7.61,7.61,0,0,0-3.16,4.69,6.16,6.16,0,0,0-4.16-1.94,3.52,3.52,0,0,0-3.48,2.59c-.5,2.63,2.41,2.89,4.09,4.29-1.48,1-5.11,2.11-4.65,4.6a3.35,3.35,0,0,0,3.36,2.4,9.79,9.79,0,0,0,4.24-1.3c-.09,1.86,0,4.1,1.62,5.06a3.31,3.31,0,0,0,4.24-1.26,6,6,0,0,0,.51-4.72,5,5,0,0,0,6.75-6.62c-.53-1.2-3-1.45-5.63-1l1.41-4a4.1,4.1,0,0,0,.31-1.38,2.58,2.58,0,0,0-2.19-2.32A4.56,4.56,0,0,0,1523.61,150.52Zm.29,8.55a2.29,2.29,0,0,1,.76,1.18,1.93,1.93,0,0,1-.54,1.7,3.15,3.15,0,0,1-1.63.84C1517.55,163.84,1519.72,155.35,1523.91,159.07Z" fill="#3a3a3a"/><path d="M1537.93,43.59a7.61,7.61,0,0,0,2.48,5.09,6.16,6.16,0,0,0-3.76,2.63,3.52,3.52,0,0,0,.5,4.31c2,1.75,3.71-.64,5.76-1.4.15,1.8-.73,5.48,1.66,6.33a3.35,3.35,0,0,0,3.76-1.71,9.79,9.79,0,0,0,1-4.32c1.57,1,3.56,2,5.19,1.12a3.31,3.31,0,0,0,1-4.3,6,6,0,0,0-3.83-2.8,5,5,0,0,0-2.36-9.16c-1.3-.14-2.77,1.91-3.64,4.4L1543,40.56a4.1,4.1,0,0,0-1-1,2.58,2.58,0,0,0-3.1.73A4.56,4.56,0,0,0,1537.93,43.59Zm7.55,4a2.29,2.29,0,0,1,1.4-.07,1.93,1.93,0,0,1,1.2,1.32,3.15,3.15,0,0,1-.09,1.83C1546.43,55.5,1540.16,49.37,1545.48,47.61Z" fill="#3a3a3a"/><path d="M1498.93,109.59a7.61,7.61,0,0,0,2.48,5.09,6.16,6.16,0,0,0-3.76,2.63,3.52,3.52,0,0,0,.5,4.31c2,1.75,3.71-.64,5.76-1.4.15,1.8-.73,5.48,1.66,6.33a3.35,3.35,0,0,0,3.76-1.71,9.79,9.79,0,0,0,1-4.32c1.57,1,3.56,2,5.19,1.12a3.31,3.31,0,0,0,1-4.3,6,6,0,0,0-3.83-2.8,5,5,0,0,0-2.36-9.16c-1.3-.14-2.77,1.91-3.64,4.4l-2.75-3.22a4.1,4.1,0,0,0-1-1,2.58,2.58,0,0,0-3.1.73A4.56,4.56,0,0,0,1498.93,109.59Zm7.55,4a2.29,2.29,0,0,1,1.4-.07,1.93,1.93,0,0,1,1.2,1.32,3.15,3.15,0,0,1-.09,1.83C1507.43,121.5,1501.16,115.37,1506.48,113.61Z" fill="#3a3a3a"/><path d="M1530.35,76.34A12.06,12.06,0,0,0,1538,81a9.76,9.76,0,0,0-2.79,6.71c.11,2.48,1.87,5,4.33,5.34,4.2.62,4.41-4,6.51-6.77,1.72,2.27,3.69,7.95,7.6,7.05,2.31-.53,3.65-3.12,3.57-5.48s-1.23-4.54-2.35-6.62c3,0,6.49-.31,7.89-2.91,1.22-2.27-.07-5.3-2.29-6.62a9.57,9.57,0,0,0-7.5-.49A7.87,7.87,0,0,0,1542,61c-1.86.92-2.09,4.9-1.12,9l-6.42-2a6.5,6.5,0,0,0-2.21-.4,4.09,4.09,0,0,0-3.53,3.62A7.23,7.23,0,0,0,1530.35,76.34Zm13.52-1a3.63,3.63,0,0,1,1.81-1.29,3.06,3.06,0,0,1,2.73.74,5,5,0,0,1,1.44,2.52C1551.84,85,1538.25,82.17,1543.86,75.29Z" fill="#3a3a3a"/><path d="M497,619.8c2.53,1.38,5.51,2.74,6.32,5.43-3.14.73-7,2.4-6.9,5.49.07,2.5,3.05,4.1,5.65,3.8s4.82-1.91,6.9-3.45c.08,5.75,2,15.36,10.33,12.7-.08-8.93,4.07-8.27,7.56-9.47,4.27-1.47,13.1,2,12.61-2.73-.35-3.37-6.86-4.1-4.82-8.78.84-1.92,12.75-3.23,12.75-3.84,0-5.58-10.85-6.87-10.08-12.42.25-1.84,1.81-3.23,3-4.73s1.92-3.74.61-5.08a4.23,4.23,0,0,0-2.52-1,14.4,14.4,0,0,0-11,3.23L524,590.52c-.53-1.31-1.16-2.74-2.48-3.34-2.32-1.05-5,1.26-5.61,3.68s.11,4.94,0,7.42c-.07,1.34-.64,2.95-2,3.23-1.07.22-2.05-.49-3-1.06a14,14,0,0,0-7.54-2.11c-2.13,3.6,3.8,10.76,1.55,13.87s-8.56,1.64-12.42,1.11C491.88,616.08,494.51,618.43,497,619.8ZM518.2,618a4.41,4.41,0,0,1-2.58-2,6.85,6.85,0,0,1,3.4.2c.21-.53-.15-1.08-.32-1.62s.09-1.34.67-1.27a1,1,0,0,1,.53.3,5.26,5.26,0,0,1,1.3,1.95l1.28-1.53q1.58,1.69,3.11,3.44L522,618.51l2.9,1.69-3.33.82-.75.2.24,1.28a1.17,1.17,0,0,1-1.6-.46,3.09,3.09,0,0,1-.24-1.78,2.45,2.45,0,0,1-3.82-1.25A18.49,18.49,0,0,1,518.2,618Z" fill="#3a3a3a"/><path d="M589.3,561.38c.8,1.7,1.84,3.57,1.22,5.3-1.94-.83-4.6-1.44-5.75.22-.93,1.34,0,3.34,1.5,4.18a9.82,9.82,0,0,0,5,.85c-2.18,3.05-4.91,8.84.53,10.67,3.41-4.73,5.34-2.77,7.64-2.06,2.81.88,6.11,6.13,7.68,3.44,1.12-1.91-2-4.81.86-6.48,1.18-.69,7.95,3.23,8.19,2.91,2.15-2.94-3-7.81-.5-10.43.84-.87,2.2-1,3.39-1.34s2.46-1.23,2.29-2.44a2.76,2.76,0,0,0-.93-1.51,9.4,9.4,0,0,0-7-2.56l1.47-5.73a3.67,3.67,0,0,0,0-2.71c-.81-1.45-3.13-1.28-4.37-.23s-1.85,2.64-2.87,3.89c-.55.68-1.48,1.3-2.31.92-.65-.3-.89-1.05-1.14-1.7a9.11,9.11,0,0,0-3.15-4c-2.51,1.07-2.16,7.13-4.55,7.89s-5.14-2.44-7-4.21C588,557.43,588.5,559.68,589.3,561.38Zm11.82,7.24a2.88,2.88,0,0,1-.57-2.07,4.47,4.47,0,0,1,1.71,1.42c.31-.2.34-.63.46-1s.56-.67.85-.41a.63.63,0,0,1,.16.36,3.43,3.43,0,0,1-.07,1.53l1.26-.31q.18,1.5.31,3l-2.3-.82.87,2-2.07-.85-.47-.19-.37.77a.77.77,0,0,1-.66-.86,2,2,0,0,1,.56-1,1.6,1.6,0,0,1-1.52-2.13A12.07,12.07,0,0,1,601.12,568.62Z" fill="#3a3a3a"/><path d="M624.28,568.93c-1.41,1.24-2.92,2.76-4.75,2.65.26-2.09.1-4.82-1.81-5.46-1.55-.52-3.2.95-3.6,2.6a9.82,9.82,0,0,0,.56,5c-3.54-1.25-9.85-2.26-10.1,3.47,5.49,2,4.15,4.36,4.1,6.76-.06,2.94-4.19,7.57-1.17,8.34,2.14.54,4.06-3.28,6.46-1,1,.95-.89,8.53-.52,8.67,3.42,1.25,6.65-5.1,9.88-3.38,1.07.57,1.57,1.84,2.23,2.89s1.86,2,3,1.52a2.76,2.76,0,0,0,1.19-1.31,9.4,9.4,0,0,0,.5-7.48l5.91-.18a3.67,3.67,0,0,0,2.6-.77c1.17-1.18.36-3.36-1-4.26s-3-1-4.54-1.68c-.81-.34-1.66-1.06-1.52-2,.11-.71.76-1.15,1.32-1.57a9.11,9.11,0,0,0,3-4.15c-1.72-2.12-7.45-.1-8.84-2.17s.92-5.61,2.11-7.86C627.72,566.61,625.69,567.69,624.28,568.93Zm-3.67,13.37a2.88,2.88,0,0,1,1.83-1.12,4.47,4.47,0,0,1-.89,2c.28.25.7.15,1.06.17s.8.36.63.7a.63.63,0,0,1-.31.26,3.43,3.43,0,0,1-1.49.36l.65,1.13q-1.39.59-2.8,1.13l.15-2.44-1.69,1.4.24-2.23,0-.51-.84-.14a.77.77,0,0,1,.64-.88,2,2,0,0,1,1.15.26,1.6,1.6,0,0,1,1.63-2.06A12.07,12.07,0,0,1,620.61,582.3Z" fill="#3a3a3a"/><path d="M451.37,85.2c2.64,2.14,6.85,4.27,9.62,1.88a61.05,61.05,0,0,0-3.09-35.25L454,72.22a44.54,44.54,0,0,0-9.83-16,71.07,71.07,0,0,1,3,19.63c0-1.4-11.07-9.62-12.82-10.37C437.36,72,445.61,80.52,451.37,85.2Z" fill="#3a3a3a"/><path d="M458,79.84c-1.42,2.29-2.75,6.11-.91,9.06,8.7,3.74,17.47,4.11,25.15,1.06L467.4,83.84a23.86,23.86,0,0,0,11-7.64,36.17,36.17,0,0,1-13.95.64c1,.14,6.39-9.57,6.85-11.17C466.76,67.85,461.06,74.83,458,79.84Z" fill="#3a3a3a"/><path d="M402.55,113.76c1.77,1.47,4.54,2.93,6.22,1.28a45.8,45.8,0,0,0-3.33-24.24l-1.72,14a33.39,33.39,0,0,0-6.9-11,53.77,53.77,0,0,1,2.67,13.5c-.06-1-7.45-6.6-8.59-7.12C393.09,104.73,398.69,110.54,402.55,113.76Z" fill="#3a3a3a"/><path d="M1286.89,607.32a7.61,7.61,0,0,0,2.86,2.22c1.75.62,5-1,6.69-1.68a1.8,1.8,0,0,0,1.05-.79,28,28,0,0,0,.14-5.17c-2-5.65-8.11-10-12.94-13.59,3.65-3.67,9.07-4.78,14.16-5.71a15.35,15.35,0,0,0-15.21.84c1.9-4.85,5.13-9.63,5.7-14.55a12.06,12.06,0,0,0-7,5.61c-1.19,2.13-1.71,4.6-3,6.69-.93,1.54-1.78,3.44-3.25,4.47-1.84,1.3-4.39,1.61-6.5,2.4-3.79,1.43-7.8,2.54-11.05,5,5.8.59,9.9-.72,14.86-1.08-1.9,2.59-1.79,4.15-2.66,6.3-1.17,2.89-.2,6.16.87,9.09q1.08-3.52,2.34-7c.42-1.16,1.49-5.91,2.62-6.4C1278.35,593.19,1285.45,605.77,1286.89,607.32Z" fill="#3a3a3a"/><path d="M1354.32,600.95a5.7,5.7,0,0,0-.13,2.71c.37,1.34,2.73,2.64,3.9,3.38a1.35,1.35,0,0,0,.94.3,21,21,0,0,0,3.23-2.13c2.62-3.64,2.68-9.28,2.79-13.76,3.82.66,6.82,3.52,9.58,6.24a11.49,11.49,0,0,0-7-9c3.79-.91,8.11-1,11.37-2.74a9,9,0,0,0-6.45-1.9c-1.82.18-3.56.92-5.38,1A10.59,10.59,0,0,1,1363,585c-1.58-.57-2.87-2-4.27-3-2.51-1.71-4.9-3.7-7.78-4.65,2.12,3.81,4.69,5.77,7,8.65-2.4-.06-3.31.69-5,1.07-2.28.52-3.87,2.52-5.2,4.43q2.62-.85,5.28-1.56c.9-.24,4.27-1.62,5.05-1.14C1359.33,589.65,1354.65,599.4,1354.32,600.95Z" fill="#3a3a3a"/><path d="M965.66,330.74c4.15,4,6.25,9.21,9.67,13.85,2.8-4.92,2.52-8.14,7.26-11.25-1.66,5.26-1.88,7.54-5.69,11.52,4.12-2.11,11.07-4.23,15.24-2.22l-13.3,3.93A33.21,33.21,0,0,1,989.4,356c-4.59.21-7.88-4.46-12.27-5.84a24.53,24.53,0,0,1,2.73,14.52,17.83,17.83,0,0,1-5.35-12.92,18.42,18.42,0,0,1-13.36,1.58A81.1,81.1,0,0,0,971.82,349a42.34,42.34,0,0,1-13-6.33c.85.61,5.84.46,8.19.88s2.67.88,6.45,2.36C968,340.06,967,334.62,965.66,330.74Z" fill="#3a3a3a"/><path d="M957,356.09c-5.45-4.28-8.6-10.32-13.25-15.5-2.78,6.25-2.07,10.08-7.4,14.37,1.38-6.51,1.37-9.28,5.48-14.52-4.7,3-12.8,6.39-18,4.47l15.51-6.29a40.1,40.1,0,0,1-13.79-10c5.49-.79,10,4.43,15.43,5.57a29.62,29.62,0,0,1-5-17.13,21.52,21.52,0,0,1,7.95,14.89,22.24,22.24,0,0,1,15.86-3.47,97.9,97.9,0,0,0-12.3,6.49A51.11,51.11,0,0,1,963.78,341c-1.09-.64-7.07.14-9.94-.09-3-.24-3.32-.74-8-2.08C953,345.18,954.93,351.59,957,356.09Z" fill="#3a3a3a"/><path d="M890.21,354.81c4-3.18,8.79-4.44,13.25-6.9-4-3-6.85-3.14-9-7.65,4.42,2.06,6.4,2.51,9.46,6.31-1.38-3.85-2.45-10.19-.21-13.62l1.94,12.11a29.38,29.38,0,0,1,9.45-8.19c-.34,4.05-4.81,6.4-6.52,10.09a21.7,21.7,0,0,1,13-.74,15.77,15.77,0,0,1-11.94,3.22,16.29,16.29,0,0,1-.14,11.89,71.73,71.73,0,0,0-2.6-9.85,37.45,37.45,0,0,1-7,10.67c.63-.67,1.07-5.07,1.7-7.08s1.08-2.25,2.81-5.39C898.66,353.78,893.76,354.08,890.21,354.81Z" fill="#3a3a3a"/><path d="M196.79,234.58v1.2c0,18-.07,36.09,0,54.13A15,15,0,0,1,191,302.22c-5.18,4.22-11.09,6.08-17.74,4.6-4.25-.95-7.45-3.31-8.74-7.69a11,11,0,0,1,1.19-8.68c3-5.36,7.72-8.39,13.57-9.77a16.75,16.75,0,0,1,10.48.66,39.75,39.75,0,0,1,3.69,2v-71h3.39c.12,1.07.23,2.17.38,3.25a17.42,17.42,0,0,0,4.82,9.87c2.66,2.72,5.49,5.27,8.26,7.89a33,33,0,0,1,10,16.6c1.68,7.12.22,13.78-3.1,20.13a37.4,37.4,0,0,1-2.26,3.6c-.19.28-.62.41-.94.61a3.06,3.06,0,0,1,.09-1.09,28.86,28.86,0,0,0,3.21-14.07,23,23,0,0,0-5.7-14.36A36.13,36.13,0,0,0,196.79,234.58Z" fill="#3a3a3a"/><path d="M296.79,234.58v1.2c0,18-.07,36.09,0,54.13A15,15,0,0,1,291,302.22c-5.18,4.22-11.09,6.08-17.74,4.6-4.25-.95-7.45-3.31-8.74-7.69a11,11,0,0,1,1.19-8.68c3-5.36,7.72-8.39,13.57-9.77a16.75,16.75,0,0,1,10.48.66,39.75,39.75,0,0,1,3.69,2v-71h3.39c.12,1.07.23,2.17.38,3.25a17.42,17.42,0,0,0,4.82,9.87c2.66,2.72,5.49,5.27,8.26,7.89a33,33,0,0,1,10,16.6c1.68,7.12.22,13.78-3.1,20.13a37.4,37.4,0,0,1-2.26,3.6c-.19.28-.62.41-.94.61a3.06,3.06,0,0,1,.09-1.09,28.86,28.86,0,0,0,3.21-14.07,23,23,0,0,0-5.7-14.36A36.13,36.13,0,0,0,296.79,234.58Z" fill="#3a3a3a"/><path d="M375.79,438.58v1.2c0,18-.07,36.09,0,54.13A15,15,0,0,1,370,506.22c-5.18,4.22-11.09,6.08-17.74,4.6-4.25-.95-7.45-3.31-8.74-7.69a11,11,0,0,1,1.19-8.68c3-5.36,7.72-8.39,13.57-9.77a16.75,16.75,0,0,1,10.48.66,39.75,39.75,0,0,1,3.69,2v-71h3.39c.12,1.07.23,2.17.38,3.25a17.42,17.42,0,0,0,4.82,9.87c2.66,2.72,5.49,5.27,8.26,7.89a33,33,0,0,1,10,16.6c1.68,7.12.22,13.78-3.1,20.13a37.4,37.4,0,0,1-2.26,3.6c-.19.28-.62.41-.94.61a3.06,3.06,0,0,1,.09-1.09,28.86,28.86,0,0,0,3.21-14.07,23,23,0,0,0-5.7-14.36A36.13,36.13,0,0,0,375.79,438.58Z" fill="#3a3a3a"/><path d="M243.79,693.58v1.2c0,18-.07,36.09,0,54.13A15,15,0,0,1,238,761.22c-5.18,4.22-11.09,6.08-17.74,4.6-4.25-.95-7.45-3.31-8.74-7.69a11,11,0,0,1,1.19-8.68c3-5.36,7.72-8.39,13.57-9.77a16.75,16.75,0,0,1,10.48.66,39.75,39.75,0,0,1,3.69,2v-71h3.39c.12,1.07.23,2.17.38,3.25a17.42,17.42,0,0,0,4.82,9.87c2.66,2.72,5.49,5.27,8.26,7.89a33,33,0,0,1,10,16.6c1.68,7.12.22,13.78-3.1,20.13a37.4,37.4,0,0,1-2.26,3.6c-.19.28-.62.41-.94.61a3.06,3.06,0,0,1,.09-1.09,28.86,28.86,0,0,0,3.21-14.07,23,23,0,0,0-5.7-14.36A36.13,36.13,0,0,0,243.79,693.58Z" fill="#3a3a3a"/><path d="M351.79,711.58v1.2c0,18-.07,36.09,0,54.13A15,15,0,0,1,346,779.22c-5.18,4.22-11.09,6.08-17.74,4.6-4.25-.95-7.45-3.31-8.74-7.69a11,11,0,0,1,1.19-8.68c3-5.36,7.72-8.39,13.57-9.77a16.75,16.75,0,0,1,10.48.66,39.75,39.75,0,0,1,3.69,2v-71h3.39c.12,1.07.23,2.17.38,3.25a17.42,17.42,0,0,0,4.82,9.87c2.66,2.72,5.49,5.27,8.26,7.89a33,33,0,0,1,10,16.6c1.68,7.12.22,13.78-3.1,20.13a37.4,37.4,0,0,1-2.26,3.6c-.19.28-.62.41-.94.61a3.06,3.06,0,0,1,.09-1.09,28.86,28.86,0,0,0,3.21-14.07,23,23,0,0,0-5.7-14.36A36.13,36.13,0,0,0,351.79,711.58Z" fill="#3a3a3a"/><path d="M992.79,711.58v1.2c0,18-.07,36.09,0,54.13A15,15,0,0,1,987,779.22c-5.18,4.22-11.09,6.08-17.74,4.6-4.25-.95-7.45-3.31-8.74-7.69a11,11,0,0,1,1.19-8.68c3-5.36,7.72-8.39,13.57-9.77a16.75,16.75,0,0,1,10.48.66,39.75,39.75,0,0,1,3.69,2v-71h3.39c.12,1.07.23,2.17.38,3.25a17.42,17.42,0,0,0,4.82,9.87c2.66,2.72,5.49,5.27,8.26,7.89a33,33,0,0,1,10,16.6c1.68,7.12.22,13.78-3.1,20.13a37.4,37.4,0,0,1-2.26,3.6c-.19.28-.62.41-.94.61a3.06,3.06,0,0,1,.09-1.09,28.86,28.86,0,0,0,3.21-14.07,23,23,0,0,0-5.7-14.36A36.13,36.13,0,0,0,992.79,711.58Z" fill="#3a3a3a"/><path d="M1335.79,668.58v1.2c0,18-.07,36.09,0,54.13a15,15,0,0,1-5.85,12.31c-5.18,4.22-11.09,6.08-17.74,4.6-4.25-.95-7.45-3.31-8.74-7.69a11,11,0,0,1,1.19-8.68c3-5.36,7.72-8.39,13.57-9.77a16.75,16.75,0,0,1,10.48.66,39.75,39.75,0,0,1,3.69,2v-71h3.39c.12,1.07.23,2.17.38,3.25a17.42,17.42,0,0,0,4.82,9.87c2.66,2.72,5.49,5.27,8.26,7.89a33,33,0,0,1,10,16.6c1.68,7.12.22,13.78-3.1,20.13a37.4,37.4,0,0,1-2.26,3.6c-.19.28-.62.41-.94.61a3.06,3.06,0,0,1,.09-1.09,28.86,28.86,0,0,0,3.21-14.07,23,23,0,0,0-5.7-14.36A36.13,36.13,0,0,0,1335.79,668.58Z" fill="#3a3a3a"/><path d="M459.79,693.58v1.2c0,18-.07,36.09,0,54.13A15,15,0,0,1,454,761.22c-5.18,4.22-11.09,6.08-17.74,4.6-4.25-.95-7.45-3.31-8.74-7.69a11,11,0,0,1,1.19-8.68c3-5.36,7.72-8.39,13.57-9.77a16.75,16.75,0,0,1,10.48.66,39.75,39.75,0,0,1,3.69,2v-71h3.39c.12,1.07.23,2.17.38,3.25a17.42,17.42,0,0,0,4.82,9.87c2.66,2.72,5.49,5.27,8.26,7.89a33,33,0,0,1,10,16.6c1.68,7.12.22,13.78-3.1,20.13a37.4,37.4,0,0,1-2.26,3.6c-.19.28-.62.41-.94.61a3.06,3.06,0,0,1,.09-1.09,28.86,28.86,0,0,0,3.21-14.07,23,23,0,0,0-5.7-14.36A36.13,36.13,0,0,0,459.79,693.58Z" fill="#3a3a3a"/><path d="M840.79,450.58v1.2c0,18-.07,36.09,0,54.13A15,15,0,0,1,835,518.22c-5.18,4.22-11.09,6.08-17.74,4.6-4.25-.95-7.45-3.31-8.74-7.69a11,11,0,0,1,1.19-8.68c3-5.36,7.72-8.39,13.57-9.77a16.75,16.75,0,0,1,10.48.66,39.75,39.75,0,0,1,3.69,2v-71h3.39c.12,1.07.23,2.17.38,3.25a17.42,17.42,0,0,0,4.82,9.87c2.66,2.72,5.49,5.27,8.26,7.89a33,33,0,0,1,10,16.6c1.68,7.12.22,13.78-3.1,20.13a37.4,37.4,0,0,1-2.26,3.6c-.19.28-.62.41-.94.61a3.06,3.06,0,0,1,.09-1.09,28.86,28.86,0,0,0,3.21-14.07,23,23,0,0,0-5.7-14.36A36.13,36.13,0,0,0,840.79,450.58Z" fill="#3a3a3a"/><path d="M1450.79,450.58v1.2c0,18-.07,36.09,0,54.13a15,15,0,0,1-5.85,12.31c-5.18,4.22-11.09,6.08-17.74,4.6-4.25-.95-7.45-3.31-8.74-7.69a11,11,0,0,1,1.19-8.68c3-5.36,7.72-8.39,13.57-9.77a16.75,16.75,0,0,1,10.48.66,39.75,39.75,0,0,1,3.69,2v-71h3.39c.12,1.07.23,2.17.38,3.25a17.42,17.42,0,0,0,4.82,9.87c2.66,2.72,5.49,5.27,8.26,7.89a33,33,0,0,1,10,16.6c1.68,7.12.22,13.78-3.1,20.13a37.4,37.4,0,0,1-2.26,3.6c-.19.28-.62.41-.94.61a3.06,3.06,0,0,1,.09-1.09,28.86,28.86,0,0,0,3.21-14.07,23,23,0,0,0-5.7-14.36A36.13,36.13,0,0,0,1450.79,450.58Z" fill="#3a3a3a"/><path d="M946.79,438.58v1.2c0,18-.07,36.09,0,54.13A15,15,0,0,1,941,506.22c-5.18,4.22-11.09,6.08-17.74,4.6-4.25-.95-7.45-3.31-8.74-7.69a11,11,0,0,1,1.19-8.68c3-5.36,7.72-8.39,13.57-9.77a16.75,16.75,0,0,1,10.48.66,39.75,39.75,0,0,1,3.69,2v-71h3.39c.12,1.07.23,2.17.38,3.25a17.42,17.42,0,0,0,4.82,9.87c2.66,2.72,5.49,5.27,8.26,7.89a33,33,0,0,1,10,16.6c1.68,7.12.22,13.78-3.1,20.13a37.4,37.4,0,0,1-2.26,3.6c-.19.28-.62.41-.94.61a3.06,3.06,0,0,1,.09-1.09,28.86,28.86,0,0,0,3.21-14.07,23,23,0,0,0-5.7-14.36A36.13,36.13,0,0,0,946.79,438.58Z" fill="#3a3a3a"/><path d="M475.79,438.58v1.2c0,18-.07,36.09,0,54.13A15,15,0,0,1,470,506.22c-5.18,4.22-11.09,6.08-17.74,4.6-4.25-.95-7.45-3.31-8.74-7.69a11,11,0,0,1,1.19-8.68c3-5.36,7.72-8.39,13.57-9.77a16.75,16.75,0,0,1,10.48.66,39.75,39.75,0,0,1,3.69,2v-71h3.39c.12,1.07.23,2.17.38,3.25a17.42,17.42,0,0,0,4.82,9.87c2.66,2.72,5.49,5.27,8.26,7.89a33,33,0,0,1,10,16.6c1.68,7.12.22,13.78-3.1,20.13a37.4,37.4,0,0,1-2.26,3.6c-.19.28-.62.41-.94.61a3.06,3.06,0,0,1,.09-1.09,28.86,28.86,0,0,0,3.21-14.07,23,23,0,0,0-5.7-14.36A36.13,36.13,0,0,0,475.79,438.58Z" fill="#3a3a3a"/><path d="M683.79,182.58v1.2c0,18-.07,36.09,0,54.13A15,15,0,0,1,678,250.22c-5.18,4.22-11.09,6.08-17.74,4.6-4.25-.95-7.45-3.31-8.74-7.69a11,11,0,0,1,1.19-8.68c3-5.36,7.72-8.39,13.57-9.77a16.75,16.75,0,0,1,10.48.66,39.75,39.75,0,0,1,3.69,2v-71h3.39c.12,1.07.23,2.17.38,3.25a17.42,17.42,0,0,0,4.82,9.87c2.66,2.72,5.49,5.27,8.26,7.89a33,33,0,0,1,10,16.6c1.68,7.12.22,13.78-3.1,20.13a37.4,37.4,0,0,1-2.26,3.6c-.19.28-.62.41-.94.61a3.06,3.06,0,0,1,.09-1.09,28.86,28.86,0,0,0,3.21-14.07,23,23,0,0,0-5.7-14.36A36.13,36.13,0,0,0,683.79,182.58Z" fill="#3a3a3a"/><path d="M821.79,197.58v1.2c0,18-.07,36.09,0,54.13A15,15,0,0,1,816,265.22c-5.18,4.22-11.09,6.08-17.74,4.6-4.25-.95-7.45-3.31-8.74-7.69a11,11,0,0,1,1.19-8.68c3-5.36,7.72-8.39,13.57-9.77a16.75,16.75,0,0,1,10.48.66,39.75,39.75,0,0,1,3.69,2v-71h3.39c.12,1.07.23,2.17.38,3.25a17.42,17.42,0,0,0,4.82,9.87c2.66,2.72,5.49,5.27,8.26,7.89a33,33,0,0,1,10,16.6c1.68,7.12.22,13.78-3.1,20.13a37.4,37.4,0,0,1-2.26,3.6c-.19.28-.62.41-.94.61a3.06,3.06,0,0,1,.09-1.09,28.86,28.86,0,0,0,3.21-14.07,23,23,0,0,0-5.7-14.36A36.13,36.13,0,0,0,821.79,197.58Z" fill="#3a3a3a"/><path d="M929.79,197.58v1.2c0,18-.07,36.09,0,54.13A15,15,0,0,1,924,265.22c-5.18,4.22-11.09,6.08-17.74,4.6-4.25-.95-7.45-3.31-8.74-7.69a11,11,0,0,1,1.19-8.68c3-5.36,7.72-8.39,13.57-9.77a16.75,16.75,0,0,1,10.48.66,39.75,39.75,0,0,1,3.69,2v-71h3.39c.12,1.07.23,2.17.38,3.25a17.42,17.42,0,0,0,4.82,9.87c2.66,2.72,5.49,5.27,8.26,7.89a33,33,0,0,1,10,16.6c1.68,7.12.22,13.78-3.1,20.13a37.4,37.4,0,0,1-2.26,3.6c-.19.28-.62.41-.94.61a3.06,3.06,0,0,1,.09-1.09,28.86,28.86,0,0,0,3.21-14.07,23,23,0,0,0-5.7-14.36A36.13,36.13,0,0,0,929.79,197.58Z" fill="#3a3a3a"/><path d="M1516.79,182.58v1.2c0,18-.07,36.09,0,54.13a15,15,0,0,1-5.85,12.31c-5.18,4.22-11.09,6.08-17.74,4.6-4.25-.95-7.45-3.31-8.74-7.69a11,11,0,0,1,1.19-8.68c3-5.36,7.72-8.39,13.57-9.77a16.75,16.75,0,0,1,10.48.66,39.75,39.75,0,0,1,3.69,2v-71h3.39c.12,1.07.23,2.17.38,3.25a17.42,17.42,0,0,0,4.82,9.87c2.66,2.72,5.49,5.27,8.26,7.89a33,33,0,0,1,10,16.6c1.68,7.12.22,13.78-3.1,20.13a37.4,37.4,0,0,1-2.26,3.6c-.19.28-.62.41-.94.61a3.06,3.06,0,0,1,.09-1.09,28.86,28.86,0,0,0,3.21-14.07,23,23,0,0,0-5.7-14.36A36.13,36.13,0,0,0,1516.79,182.58Z" fill="#3a3a3a"/><path d="M1742.79,182.58v1.2c0,18-.07,36.09,0,54.13a15,15,0,0,1-5.85,12.31c-5.18,4.22-11.09,6.08-17.74,4.6-4.25-.95-7.45-3.31-8.74-7.69a11,11,0,0,1,1.19-8.68c3-5.36,7.72-8.39,13.57-9.77a16.75,16.75,0,0,1,10.48.66,39.75,39.75,0,0,1,3.69,2v-71h3.39c.12,1.07.23,2.17.38,3.25a17.42,17.42,0,0,0,4.82,9.87c2.66,2.72,5.49,5.27,8.26,7.89a33,33,0,0,1,10,16.6c1.68,7.12.22,13.78-3.1,20.13a37.4,37.4,0,0,1-2.26,3.6c-.19.28-.62.41-.94.61a3.06,3.06,0,0,1,.09-1.09,28.86,28.86,0,0,0,3.21-14.07,23,23,0,0,0-5.7-14.36A36.13,36.13,0,0,0,1742.79,182.58Z" fill="#3a3a3a"/><path d="M440,141c0,7.42-8,13.05-10,29,0,0-.23,57.29-.16,67.91A15,15,0,0,1,424,250.22c-5.18,4.22-11.09,6.08-17.74,4.6-4.25-.95-7.45-3.31-8.74-7.69a11,11,0,0,1,1.19-8.68c3-5.36,7.72-8.39,13.57-9.77a16.75,16.75,0,0,1,10.48.66,39.75,39.75,0,0,1,3.69,2c0-6.41.53-21.14.12-34.71C426.27,186.4,425,176.84,425,172c0-9-14-25.94-14-35,0-3.37-5-20.63-5-24,.56,0,21.54,47.31,22.07,47.31.19,0,3.54-8.2,8-19.3,4-10,7.59-27.19,11.92-38,5.72-14.25,11.77-21,12-21C460.12,83.07,440,140.64,440,141Z" fill="#3a3a3a"/><path d="M97.3,218.69l-.57.45a15.58,15.58,0,0,1-5.12,2.56,22.06,22.06,0,0,1-7.7,1.09,7.89,7.89,0,0,1-6.7-3.61,7.59,7.59,0,1,1,14-3.57,7.26,7.26,0,0,1-.94,3.12l-.23.43,1.16-.36a11.41,11.41,0,0,0,6.11-4.7,29.69,29.69,0,0,0,2.54-4.57l.2-.44,2.78.72L90.89,252l-2.79-.77Z" fill="#3a3a3a"/><path d="M262.3,474.69l-.57.45a15.58,15.58,0,0,1-5.12,2.56,22.06,22.06,0,0,1-7.7,1.09,7.89,7.89,0,0,1-6.7-3.61,7.59,7.59,0,1,1,14-3.57,7.26,7.26,0,0,1-.94,3.12l-.23.43,1.16-.36a11.41,11.41,0,0,0,6.11-4.7,29.69,29.69,0,0,0,2.54-4.57l.2-.44,2.78.72L255.89,508l-2.79-.77Z" fill="#3a3a3a"/><path d="M849.63,681.54c.24-.19.46-.36.67-.54.38-.34.67-.24.95.15.67.94,1.36,1.86,2,2.8l11.42,15.73c.11.15.21.31.36.53-1.24,1.39-2.46,2.77-3.7,4.13-.88,1-1.78,1.92-2.66,2.89-.35.38-.66.8-1,1.21a4.88,4.88,0,0,0-.61,5.47,34.67,34.67,0,0,0,2.74,4.66c2.28,3.17,4.68,6.25,7,9.37l.57.75c-.88-.22-1.63-.43-2.38-.59a16.68,16.68,0,0,0-6.86-.44c-3.3.64-4.89,3-4.27,6.26a15.07,15.07,0,0,0,4.15,7.64l.45.47a1.3,1.3,0,0,1-1.67.12,23,23,0,0,1-7.78-7,12.71,12.71,0,0,1-2.06-5.57,7.72,7.72,0,0,1,9.44-8.74c.91.18,1.8.48,2.79.75l-11.86-14.91,1.28-1.13a19.88,19.88,0,0,0,4.52-5.2,12.88,12.88,0,0,0,.73-10.76,28.89,28.89,0,0,0-4-7.61Z" fill="#3a3a3a"/><path d="M1307.63,909.54c.24-.19.46-.36.67-.54.38-.34.67-.24.95.15.67.94,1.36,1.86,2,2.8l11.42,15.73c.11.15.21.31.36.53-1.24,1.39-2.46,2.77-3.7,4.13-.88,1-1.78,1.92-2.66,2.89-.35.38-.66.8-1,1.21a4.88,4.88,0,0,0-.61,5.47,34.67,34.67,0,0,0,2.74,4.66c2.28,3.17,4.68,6.25,7,9.37l.57.75c-.88-.22-1.63-.43-2.38-.59a16.68,16.68,0,0,0-6.86-.44c-3.3.64-4.89,3-4.27,6.26a15.07,15.07,0,0,0,4.15,7.64l.45.47a1.3,1.3,0,0,1-1.67.12,23,23,0,0,1-7.78-7,12.71,12.71,0,0,1-2.06-5.57,7.72,7.72,0,0,1,9.44-8.74c.91.18,1.8.48,2.79.75l-11.86-14.91,1.28-1.13a19.88,19.88,0,0,0,4.52-5.2,12.88,12.88,0,0,0,.73-10.76,28.89,28.89,0,0,0-4-7.61Z" fill="#3a3a3a"/><path d="M601.13,489h1.74v13.28l10-2.26v34H611V521.29l-9.87,2.13ZM611,506.22,602.91,508v9.35l8.07-1.78Z" fill="#3a3a3a"/><path d="M503.13,947h1.74v13.28l10-2.26v34H513V979.29l-9.87,2.13ZM513,964.22,504.91,966v9.35l8.07-1.78Z" fill="#3a3a3a"/><path d="M1761.13,502h1.74v13.28l10-2.26v34H1771V534.29l-9.87,2.13Zm9.85,17.22-8.07,1.78v9.35l8.07-1.78Z" fill="#3a3a3a"/><path d="M768.45,245.28l2.65-.7a5.72,5.72,0,0,1,.67-.17c.3,0,.35-.19.35-.47q0-5.08,0-10.15v-.44h1.61v10.53l2.51-.65c0,.13,0,.22,0,.32,0,1.63,0,3.26,0,4.88,0,.25-.07.37-.32.43-.65.16-1.3.35-2,.52a.29.29,0,0,0-.26.33q0,3.94,0,7.89c0,.06,0,.11,0,.21l2.48-.64c0,.14,0,.24,0,.34,0,1.63,0,3.26,0,4.88,0,.24-.06.35-.3.4-.6.14-1.18.33-1.78.47-.34.08-.46.21-.45.58,0,3.09,0,6.19,0,9.28v.47h-1.61v-9.72l-.31,0c-1,.27-2,.55-3,.8a.42.42,0,0,0-.38.49c0,3.12,0,6.23,0,9.35V275h-1.61v-9.73L764,266v-5.65c.79-.21,1.59-.44,2.39-.62a.47.47,0,0,0,.44-.55c0-2.47,0-4.93,0-7.4v-.47l-2.81.75c0-.14,0-.24,0-.35,0-1.65,0-3.3,0-5a.37.37,0,0,1,.35-.44c.82-.2,1.64-.43,2.49-.65V234.77h1.61Zm3.67,4.62c-1.14.31-2.24.62-3.34.9-.27.07-.34.18-.33.45,0,2.53,0,5.07,0,7.6,0,.11,0,.22,0,.36,1.12-.29,2.21-.59,3.3-.86.28-.07.36-.18.36-.47,0-2.53,0-5.07,0-7.6Z" fill="#3a3a3a"/><path d="M1637.79,197.58v1.2c0,18-.07,36.09,0,54.13a15,15,0,0,1-5.85,12.31c-5.18,4.22-11.09,6.08-17.74,4.6-4.25-.95-7.45-3.31-8.74-7.69a11,11,0,0,1,1.19-8.68c3-5.36,7.72-8.39,13.57-9.77a16.75,16.75,0,0,1,10.48.66,39.75,39.75,0,0,1,3.69,2v-71h3.39c.12,1.07.23,2.17.38,3.25a17.42,17.42,0,0,0,4.82,9.87c2.66,2.72,5.49,5.27,8.26,7.89a33,33,0,0,1,10,16.6c1.68,7.12.22,13.78-3.1,20.13a37.4,37.4,0,0,1-2.26,3.6c-.19.28-.62.41-.94.61a3.06,3.06,0,0,1,.09-1.09,28.86,28.86,0,0,0,3.21-14.07,23,23,0,0,0-5.7-14.36A36.13,36.13,0,0,0,1637.79,197.58Z" fill="#3a3a3a"/><path d="M1584.45,245.28l2.65-.7a5.72,5.72,0,0,1,.67-.17c.3,0,.35-.19.35-.47q0-5.08,0-10.15v-.44h1.61v10.53l2.51-.65c0,.13,0,.22,0,.32,0,1.63,0,3.26,0,4.88,0,.25-.07.37-.32.43-.65.16-1.3.35-2,.52a.29.29,0,0,0-.26.33q0,3.94,0,7.89c0,.06,0,.11,0,.21l2.48-.64c0,.14,0,.24,0,.34,0,1.63,0,3.26,0,4.88,0,.24-.06.35-.3.4-.6.14-1.18.33-1.78.47-.34.08-.46.21-.45.58,0,3.09,0,6.19,0,9.28v.47h-1.61v-9.72l-.31,0c-1,.27-2,.55-3,.8a.42.42,0,0,0-.38.49c0,3.12,0,6.23,0,9.35V275h-1.61v-9.73L1580,266v-5.65c.79-.21,1.59-.44,2.39-.62a.47.47,0,0,0,.44-.55c0-2.47,0-4.93,0-7.4v-.47l-2.81.75c0-.14,0-.24,0-.35,0-1.65,0-3.3,0-5a.37.37,0,0,1,.35-.44c.82-.2,1.64-.43,2.49-.65V234.77h1.61Zm3.67,4.62c-1.14.31-2.24.62-3.34.9-.27.07-.34.18-.33.45,0,2.53,0,5.07,0,7.6,0,.11,0,.22,0,.36,1.12-.29,2.21-.59,3.3-.86.28-.07.36-.18.36-.47,0-2.53,0-5.07,0-7.6Z" fill="#3a3a3a"/><circle cx="437.5" cy="242.5" r="3.5" fill="#3a3a3a"/><path d="M1202.79,439.78c0,18-.07,36.09,0,54.13a15,15,0,0,1-5.85,12.31c-5.18,4.22-11.09,6.08-17.74,4.6-4.25-.95-7.45-3.31-8.74-7.69a11,11,0,0,1,1.19-8.68c3-5.36,7.72-8.39,13.57-9.77a16.75,16.75,0,0,1,10.48.66,39.75,39.75,0,0,1,3.69,2v-71h3.39C1203,417.38,1202.79,439.42,1202.79,439.78Z" fill="#3a3a3a"/><path d="M1358.34,451.47c0,18-.07,36.09,0,54.13a15,15,0,0,1-5.85,12.31c-5.18,4.22-11.09,6.08-17.74,4.6-4.25-.95-7.45-3.31-8.74-7.69a11,11,0,0,1,1.19-8.68c3-5.36,7.72-8.39,13.57-9.77a16.75,16.75,0,0,1,10.48.66,39.75,39.75,0,0,1,3.69,2V428h3.39C1358.51,429.07,1358.34,451.11,1358.34,451.47Z" fill="#3a3a3a"/><circle cx="1210.5" cy="498.5" r="3.5" fill="#3a3a3a"/><path d="M1116.79,669.78c0,18-.07,36.09,0,54.13a15,15,0,0,1-5.85,12.31c-5.18,4.22-11.09,6.08-17.74,4.6-4.25-.95-7.45-3.31-8.74-7.69a11,11,0,0,1,1.19-8.68c3-5.36,7.72-8.39,13.57-9.77a16.75,16.75,0,0,1,10.48.66,39.75,39.75,0,0,1,3.69,2v-71h3.39C1117,647.38,1116.79,669.42,1116.79,669.78Z" fill="#3a3a3a"/><circle cx="1124.5" cy="728.5" r="3.5" fill="#3a3a3a"/><circle cx="1160.5" cy="1009.5" r="3.5" fill="#3a3a3a"/><circle cx="1331.5" cy="932.5" r="3.5" fill="#3a3a3a"/><path d="M1644.79,465.78c0,18-.07,36.09,0,54.13a15,15,0,0,1-5.85,12.31c-5.18,4.22-11.09,6.08-17.74,4.6-4.25-.95-7.45-3.31-8.74-7.69a11,11,0,0,1,1.19-8.68c3-5.36,7.72-8.39,13.57-9.77a16.75,16.75,0,0,1,10.48.66,39.75,39.75,0,0,1,3.69,2v-71h3.39C1645,443.38,1644.79,465.42,1644.79,465.78Z" fill="#3a3a3a"/><circle cx="1652.5" cy="524.5" r="3.5" fill="#3a3a3a"/><path d="M1822.79,465.78c0,18-.07,36.09,0,54.13a15,15,0,0,1-5.85,12.31c-5.18,4.22-11.09,6.08-17.74,4.6-4.25-.95-7.45-3.31-8.74-7.69a11,11,0,0,1,1.19-8.68c3-5.36,7.72-8.39,13.57-9.77a16.75,16.75,0,0,1,10.48.66,39.75,39.75,0,0,1,3.69,2v-71h3.39C1823,443.38,1822.79,465.42,1822.79,465.78Z" fill="#3a3a3a"/><circle cx="1830.5" cy="524.5" r="3.5" fill="#3a3a3a"/><path d="M32.13,731h1.74v13.28l10-2.26v34H42V763.29l-9.87,2.13ZM42,748.22,33.91,750v9.35L42,757.57Z" fill="#3a3a3a"/><path d="M93.79,694.78c0,18-.07,36.09,0,54.13A15,15,0,0,1,88,761.22c-5.18,4.22-11.09,6.08-17.74,4.6-4.25-.95-7.45-3.31-8.74-7.69a11,11,0,0,1,1.19-8.68c3-5.36,7.72-8.39,13.57-9.77a16.75,16.75,0,0,1,10.48.66,39.75,39.75,0,0,1,3.69,2v-71h3.39C94,672.38,93.79,694.42,93.79,694.78Z" fill="#3a3a3a"/><circle cx="101.5" cy="753.5" r="3.5" fill="#3a3a3a"/><circle cx="623.5" cy="757.5" r="3.5" fill="#3a3a3a"/><path d="M95,447c0,7.29-8.22,12.71-8.22,20,0,10.76,0,58.16.06,68.91A15,15,0,0,1,81,548.22c-5.18,4.22-11.09,6.08-17.74,4.6-4.25-.95-7.45-3.31-8.74-7.69a11,11,0,0,1,1.19-8.68c3-5.36,7.72-8.39,13.57-9.77a16.75,16.75,0,0,1,10.48.66,39.75,39.75,0,0,1,3.69,2c0-5.12-2-19.11-2-32.74,0-12.58,2-24.85,2-29.59,0-10.95-42.45-34-42.45-45,0-2.86-12-29.14-12-32,.29,0,14.77,18.81,28.94,36.25,13.58,16.7,26.88,32.06,27.13,32.06s8.19-48.17,15.84-81.81C106.67,351.18,112.74,338,113,338c.06.52-13,78.47-13,84C100,427.85,95,446.82,95,447Z" fill="#3a3a3a"/><circle cx="94.5" cy="529.5" r="3.5" fill="#3a3a3a"/><path d="M86.79,937.78c0,18-.07,36.09,0,54.13A15,15,0,0,1,81,1004.22c-5.18,4.22-11.09,6.08-17.74,4.6-4.25-.95-7.45-3.31-8.74-7.69a11,11,0,0,1,1.19-8.68c3-5.36,7.72-8.39,13.57-9.77a16.75,16.75,0,0,1,10.48.66,39.75,39.75,0,0,1,3.69,2v-71h3.39C87,915.38,86.79,937.42,86.79,937.78Z" fill="#3a3a3a"/><circle cx="94.5" cy="985.5" r="3.5" fill="#3a3a3a"/><path d="M240.79,926.78c0,18-.07,36.09,0,54.13A15,15,0,0,1,235,993.22c-5.18,4.22-11.09,6.08-17.74,4.6-4.25-.95-7.45-3.31-8.74-7.69a11,11,0,0,1,1.19-8.68c3-5.36,7.72-8.39,13.57-9.77a16.75,16.75,0,0,1,10.48.66,39.75,39.75,0,0,1,3.69,2v-71h3.39C241,904.38,240.79,926.42,240.79,926.78Z" fill="#3a3a3a"/><circle cx="248.5" cy="982.5" r="3.5" fill="#3a3a3a"/><path d="M665.79,451.78c0,18-.07,36.09,0,54.13A15,15,0,0,1,660,518.22c-5.18,4.22-11.09,6.08-17.74,4.6-4.25-.95-7.45-3.31-8.74-7.69a11,11,0,0,1,1.19-8.68c3-5.36,7.72-8.39,13.57-9.77a16.75,16.75,0,0,1,10.48.66,39.75,39.75,0,0,1,3.69,2v-71h3.39C666,429.38,665.79,451.42,665.79,451.78Z" fill="#3a3a3a"/><circle cx="673.5" cy="499.5" r="3.5" fill="#3a3a3a"/><path d="M1035.3,263.85c0-18,.07-36.09,0-54.13a15,15,0,0,1,5.85-12.31c5.18-4.22,11.09-6.08,17.74-4.6,4.25.95,7.45,3.31,8.74,7.69a11,11,0,0,1-1.19,8.68c-3,5.36-7.72,8.39-13.57,9.77a16.75,16.75,0,0,1-10.48-.66,39.75,39.75,0,0,1-3.69-2v71h-3.39C1035.12,286.26,1035.3,264.21,1035.3,263.85Z" fill="#3a3a3a"/><path d="M1329.94,200.17c-1.29-4.38-4.49-6.74-8.74-7.69-6.65-1.48-12.56.38-17.74,4.6a15,15,0,0,0-5.85,12.31c.11,18,0,36.09,0,54.13,0,.36-.17,22.4,0,23.47H1301c.12-1.07.23-2.17.38-3.25a17.43,17.43,0,0,1,4.82-9.87c2.66-2.72,5.49-5.27,8.26-7.89a33,33,0,0,0,10-16.6c1.68-7.12.22-13.78-3.1-20.13a37.37,37.37,0,0,0-2.26-3.6c-.19-.28-.62-.41-.94-.61a3.06,3.06,0,0,0,.09,1.09,28.86,28.86,0,0,1,3.21,14.07,23,23,0,0,1-5.7,14.36A36.13,36.13,0,0,1,1301,264.73V216a39.76,39.76,0,0,0,3.69,2,16.75,16.75,0,0,0,10.48.66c5.86-1.38,10.59-4.41,13.57-9.77A11,11,0,0,0,1329.94,200.17Z" fill="#3a3a3a"/><path d="M1422.94,225.17c-1.29-4.38-4.49-6.74-8.74-7.69-6.65-1.48-12.56.38-17.74,4.6a15,15,0,0,0-5.85,12.31c.11,18,0,36.09,0,54.13,0,.36-.17,22.4,0,23.47H1394c.12-1.07.23-2.17.38-3.25a17.43,17.43,0,0,1,4.82-9.87c2.66-2.72,5.49-5.27,8.26-7.89a33,33,0,0,0,10-16.6c1.68-7.12.22-13.78-3.1-20.13a37.37,37.37,0,0,0-2.26-3.6c-.19-.28-.62-.41-.94-.61a3.06,3.06,0,0,0,.09,1.09,28.86,28.86,0,0,1,3.21,14.07,23,23,0,0,1-5.7,14.36A36.13,36.13,0,0,1,1394,289.73V241a39.76,39.76,0,0,0,3.69,2,16.75,16.75,0,0,0,10.48.66c5.86-1.38,10.59-4.41,13.57-9.77A11,11,0,0,0,1422.94,225.17Z" fill="#3a3a3a"/><path d="M1054.94,484.17c-1.29-4.38-4.49-6.74-8.74-7.69-6.65-1.48-12.56.38-17.74,4.6a15,15,0,0,0-5.85,12.31c.11,18,0,36.09,0,54.13,0,.36-.17,22.4,0,23.47H1026c.12-1.07.23-2.17.38-3.25a17.43,17.43,0,0,1,4.82-9.87c2.66-2.72,5.49-5.27,8.26-7.89a33,33,0,0,0,10-16.6c1.68-7.12.22-13.78-3.1-20.13a37.37,37.37,0,0,0-2.26-3.6c-.19-.28-.62-.41-.94-.61a3.06,3.06,0,0,0,.09,1.09,28.86,28.86,0,0,1,3.21,14.07,23,23,0,0,1-5.7,14.36A36.13,36.13,0,0,1,1026,548.73V500a39.76,39.76,0,0,0,3.69,2,16.75,16.75,0,0,0,10.48.66c5.86-1.38,10.59-4.41,13.57-9.77A11,11,0,0,0,1054.94,484.17Z" fill="#3a3a3a"/><path d="M1843.94,225.17c-1.29-4.38-4.49-6.74-8.74-7.69-6.65-1.48-12.56.38-17.74,4.6a15,15,0,0,0-5.85,12.31c.11,18,0,36.09,0,54.13,0,.36-.17,22.4,0,23.47H1815c.12-1.07.23-2.17.38-3.25a17.43,17.43,0,0,1,4.82-9.87c2.66-2.72,5.49-5.27,8.26-7.89a33,33,0,0,0,10-16.6c1.68-7.12.22-13.78-3.1-20.13a37.37,37.37,0,0,0-2.26-3.6c-.19-.28-.62-.41-.94-.61a3.06,3.06,0,0,0,.09,1.09,28.86,28.86,0,0,1,3.21,14.07,23,23,0,0,1-5.7,14.36A36.13,36.13,0,0,1,1815,289.73V241a39.76,39.76,0,0,0,3.69,2,16.75,16.75,0,0,0,10.48.66c5.86-1.38,10.59-4.41,13.57-9.77A11,11,0,0,0,1843.94,225.17Z" fill="#3a3a3a"/><path d="M1534.79,669.58v1.2c0,18-.07,36.09,0,54.13a15,15,0,0,1-5.85,12.31c-5.18,4.22-11.09,6.08-17.74,4.6-4.25-.95-7.45-3.31-8.74-7.69a11,11,0,0,1,1.19-8.68c3-5.36,7.72-8.39,13.57-9.77a16.75,16.75,0,0,1,10.48.66,39.75,39.75,0,0,1,3.69,2v-71h3.39c.12,1.07.23,2.17.38,3.25a17.42,17.42,0,0,0,4.82,9.87c2.66,2.72,5.49,5.27,8.26,7.89a33,33,0,0,1,10,16.6c1.68,7.12.22,13.78-3.1,20.13a37.4,37.4,0,0,1-2.26,3.6c-.19.28-.62.41-.94.61a3.06,3.06,0,0,1,.09-1.09,28.86,28.86,0,0,0,3.21-14.07,23,23,0,0,0-5.7-14.36A36.13,36.13,0,0,0,1534.79,669.58Z" fill="#3a3a3a"/><path d="M1760.79,669.58v1.2c0,18-.07,36.09,0,54.13a15,15,0,0,1-5.85,12.31c-5.18,4.22-11.09,6.08-17.74,4.6-4.25-.95-7.45-3.31-8.74-7.69a11,11,0,0,1,1.19-8.68c3-5.36,7.72-8.39,13.57-9.77a16.75,16.75,0,0,1,10.48.66,39.75,39.75,0,0,1,3.69,2v-71h3.39c.12,1.07.23,2.17.38,3.25a17.42,17.42,0,0,0,4.82,9.87c2.66,2.72,5.49,5.27,8.26,7.89a33,33,0,0,1,10,16.6c1.68,7.12.22,13.78-3.1,20.13a37.4,37.4,0,0,1-2.26,3.6c-.19.28-.62.41-.94.61a3.06,3.06,0,0,1,.09-1.09,28.86,28.86,0,0,0,3.21-14.07,23,23,0,0,0-5.7-14.36A36.13,36.13,0,0,0,1760.79,669.58Z" fill="#3a3a3a"/><path d="M1655.79,684.58v1.2c0,18-.07,36.09,0,54.13a15,15,0,0,1-5.85,12.31c-5.18,4.22-11.09,6.08-17.74,4.6-4.25-.95-7.45-3.31-8.74-7.69a11,11,0,0,1,1.19-8.68c3-5.36,7.72-8.39,13.57-9.77a16.75,16.75,0,0,1,10.48.66,39.75,39.75,0,0,1,3.69,2v-71h3.39c.12,1.07.23,2.17.38,3.25a17.42,17.42,0,0,0,4.82,9.87c2.66,2.72,5.49,5.27,8.26,7.89a33,33,0,0,1,10,16.6c1.68,7.12.22,13.78-3.1,20.13a37.4,37.4,0,0,1-2.26,3.6c-.19.28-.62.41-.94.61a3.06,3.06,0,0,1,.09-1.09,28.86,28.86,0,0,0,3.21-14.07,23,23,0,0,0-5.7-14.36A36.13,36.13,0,0,0,1655.79,684.58Z" fill="#3a3a3a"/><path d="M1602.45,732.28l2.65-.7a5.72,5.72,0,0,1,.67-.17c.3,0,.35-.19.35-.47q0-5.08,0-10.15v-.44h1.61v10.53l2.51-.65c0,.13,0,.22,0,.32,0,1.63,0,3.26,0,4.88,0,.25-.07.37-.32.43-.65.16-1.3.35-2,.52a.29.29,0,0,0-.26.33q0,3.94,0,7.89c0,.06,0,.11,0,.21l2.48-.64c0,.14,0,.24,0,.34,0,1.63,0,3.26,0,4.88,0,.24-.06.35-.3.4-.6.14-1.18.33-1.78.47-.34.08-.46.21-.45.58,0,3.09,0,6.19,0,9.28v.47h-1.61v-9.72l-.31,0c-1,.27-2,.55-3,.8a.42.42,0,0,0-.38.49c0,3.12,0,6.23,0,9.35V762h-1.61v-9.73L1598,753v-5.65c.79-.21,1.59-.44,2.39-.62a.47.47,0,0,0,.44-.55c0-2.47,0-4.93,0-7.4v-.47l-2.81.75c0-.14,0-.24,0-.35,0-1.65,0-3.3,0-5a.37.37,0,0,1,.35-.44c.82-.2,1.64-.43,2.49-.65V721.77h1.61Zm3.67,4.62c-1.14.31-2.24.62-3.34.9-.27.07-.34.18-.33.45,0,2.53,0,5.07,0,7.6,0,.11,0,.22,0,.36,1.12-.29,2.21-.59,3.3-.86.28-.07.36-.18.36-.47,0-2.53,0-5.07,0-7.6Z" fill="#3a3a3a"/><path d="M1440.94,712.17c-1.29-4.38-4.49-6.74-8.74-7.69-6.65-1.48-12.56.38-17.74,4.6a15,15,0,0,0-5.85,12.31c.11,18,0,36.09,0,54.13,0,.36-.17,22.4,0,23.47H1412c.12-1.07.23-2.17.38-3.25a17.43,17.43,0,0,1,4.82-9.87c2.66-2.72,5.49-5.27,8.26-7.89a33,33,0,0,0,10-16.6c1.68-7.12.22-13.78-3.1-20.13a37.37,37.37,0,0,0-2.26-3.6c-.19-.28-.62-.41-.94-.61a3.06,3.06,0,0,0,.09,1.09,28.86,28.86,0,0,1,3.21,14.07,23,23,0,0,1-5.7,14.36A36.13,36.13,0,0,1,1412,776.73V728a39.76,39.76,0,0,0,3.69,2,16.75,16.75,0,0,0,10.48.66c5.86-1.38,10.59-4.41,13.57-9.77A11,11,0,0,0,1440.94,712.17Z" fill="#3a3a3a"/><path d="M1861.94,712.17c-1.29-4.38-4.49-6.74-8.74-7.69-6.65-1.48-12.56.38-17.74,4.6a15,15,0,0,0-5.85,12.31c.11,18,0,36.09,0,54.13,0,.36-.17,22.4,0,23.47H1833c.12-1.07.23-2.17.38-3.25a17.43,17.43,0,0,1,4.82-9.87c2.66-2.72,5.49-5.27,8.26-7.89a33,33,0,0,0,10-16.6c1.68-7.12.22-13.78-3.1-20.13a37.37,37.37,0,0,0-2.26-3.6c-.19-.28-.62-.41-.94-.61a3.06,3.06,0,0,0,.09,1.09,28.86,28.86,0,0,1,3.21,14.07,23,23,0,0,1-5.7,14.36A36.13,36.13,0,0,1,1833,776.73V728a39.76,39.76,0,0,0,3.69,2,16.75,16.75,0,0,0,10.48.66c5.86-1.38,10.59-4.41,13.57-9.77A11,11,0,0,0,1861.94,712.17Z" fill="#3a3a3a"/><circle cx="1078.5" cy="209.5" r="3.5" fill="#3a3a3a"/><path d="M613.34,711.47c0-.36.17-22.4,0-23.47H610v71a39.74,39.74,0,0,0-3.69-2,16.75,16.75,0,0,0-10.48-.66c-5.86,1.38-10.59,4.41-13.57,9.77a11,11,0,0,0-1.19,8.68c1.29,4.38,4.49,6.74,8.74,7.69,6.65,1.48,12.56-.38,17.74-4.6a15,15,0,0,0,5.85-12.31C613.27,747.56,613.34,729.52,613.34,711.47Zm-13.63,63.17c-6.26,3.27-12.49,3.7-13.91,1s2.5-7.59,8.76-10.86,12.49-3.7,13.91-1S606,771.37,599.71,774.64Z" fill="#3a3a3a"/><path d="M1157,1018h-9.17a16.47,16.47,0,0,0,.56-4.39c-.11-18,0-36.09,0-54.13,0-.36.17-22.4,0-23.47H1145v71a39.74,39.74,0,0,0-3.69-2,16.75,16.75,0,0,0-10.48-.66c-5.86,1.38-10.59,4.41-13.57,9.77a12.79,12.79,0,0,0-1.43,3.86H1107v2h8.65a10.23,10.23,0,0,0,.41,2.83c1.29,4.38,4.49,6.74,8.74,7.69,6.65,1.48,12.56-.38,17.74-4.6a15.62,15.62,0,0,0,4.6-5.92H1157Z" fill="#3a3a3a"/><path d="M652.34,926.47c0-.36.17-22.4,0-23.47-.13,0-.39-13-.39-13H454v84a39.74,39.74,0,0,0-3.69-2,16.75,16.75,0,0,0-10.48-.66c-5.86,1.38-10.59,4.41-13.57,9.77a11,11,0,0,0-1.19,8.68c1.29,4.38,4.49,6.74,8.74,7.69,6.65,1.48,12.56-.38,17.74-4.6a15,15,0,0,0,5.85-12.31c-.11-18,0-36.09,0-54.13,0-.36.17-22.4,0-23.47H558v58a39.74,39.74,0,0,0-3.69-2,16.75,16.75,0,0,0-10.48-.66c-5.86,1.38-10.59,4.41-13.57,9.77a11,11,0,0,0-1.19,8.68c1.29,4.38,4.49,6.74,8.74,7.69,6.65,1.48,12.56-.38,17.74-4.6a15,15,0,0,0,5.85-12.31c-.11-18,0-36.09,0-54.13,0-.17,0-5.14.07-10.47H649v71a39.74,39.74,0,0,0-3.69-2,16.75,16.75,0,0,0-10.48-.66c-5.86,1.38-10.59,4.41-13.57,9.77a11,11,0,0,0-1.19,8.68c1.29,4.38,4.49,6.74,8.74,7.69,6.65,1.48,12.56-.38,17.74-4.6a15,15,0,0,0,5.85-12.31C652.27,962.56,652.34,944.52,652.34,926.47Z" fill="#3a3a3a"/><path d="M960,877,752,905v84a39.74,39.74,0,0,0-3.69-2,16.75,16.75,0,0,0-10.48-.66c-5.86,1.38-10.59,4.41-13.57,9.77a11,11,0,0,0-1.19,8.68c1.29,4.38,4.49,6.74,8.74,7.69,6.65,1.48,12.56-.38,17.74-4.6a15,15,0,0,0,5.85-12.31c-.11-18,0-36.09,0-54.13,0-.31.13-18.43.08-23.93L859,903.6V974a39.74,39.74,0,0,0-3.69-2,16.75,16.75,0,0,0-10.48-.66c-5.86,1.38-10.59,4.41-13.57,9.77a11,11,0,0,0-1.19,8.68c1.29,4.38,4.49,6.74,8.74,7.69,6.65,1.48,12.56-.38,17.74-4.6a15,15,0,0,0,5.85-12.31c-.11-18,0-36.09,0-54.13,0-.35.16-21.22.06-23.33l93.6-12.6V961a39.74,39.74,0,0,0-3.69-2,16.75,16.75,0,0,0-10.48-.66c-5.86,1.38-10.59,4.41-13.57,9.77a11,11,0,0,0-1.19,8.68c1.29,4.38,4.49,6.74,8.74,7.69,6.65,1.48,12.56-.38,17.74-4.6a15,15,0,0,0,5.85-12.31c-.11-18,0-36.09,0-54.13,0-.35.17-21.69.05-23.39L960,890Z" fill="#3a3a3a"/><rect x="1673" y="919" width="46" height="14" fill="#3a3a3a"/><path d="M413,263a7.85,7.85,0,0,0,2.05,3.56,19.1,19.1,0,0,0,3.14,2.7,39.21,39.21,0,0,0,7.27,4,92.06,92.06,0,0,0,15.86,5c5.4,1.29,10.89,2.27,16.39,3.08s11,1.46,16.57,2q16.64,1.55,33.37,2.1t33.47.55c11.16,0,22.32-.16,33.47-.54s22.28-1.05,33.38-2.05c5.54-.55,11.08-1.17,16.58-2s11-1.76,16.4-3a90.84,90.84,0,0,0,15.87-5,36.33,36.33,0,0,0,7.25-4,18.45,18.45,0,0,0,3.08-2.76,10.07,10.07,0,0,0,1.19-1.7,5,5,0,0,0,.67-2,5,5,0,0,1-.53,2,10.29,10.29,0,0,1-1.09,1.82,18.89,18.89,0,0,1-2.94,3.05,36.67,36.67,0,0,1-7.17,4.5,92.28,92.28,0,0,1-15.83,5.89C636,281.81,630.51,283,625,284s-11.1,1.78-16.67,2.51c-11.15,1.38-22.35,2.16-33.56,2.73s-22.42.7-33.63.76-22.42-.25-33.63-.77-22.41-1.37-33.55-2.78a229.09,229.09,0,0,1-33.11-6.31A93.5,93.5,0,0,1,425,274.2a39.37,39.37,0,0,1-7.19-4.46,19.54,19.54,0,0,1-3-3A8,8,0,0,1,413,263Z" fill="#3a3a3a"/><path d="M648,528a4.83,4.83,0,0,0,.17.74,3.68,3.68,0,0,0,.25.71,7.2,7.2,0,0,0,.66,1.35,10.4,10.4,0,0,0,.8,1.26l.93,1.16a8.48,8.48,0,0,0,1,1.08l1.07,1c.73.66,1.58,1.2,2.36,1.81a20.77,20.77,0,0,0,2.52,1.58l1.29.75.64.37.68.31,2.72,1.22,1.36.61,1.41.49,2.82,1a25.22,25.22,0,0,0,2.85.9l5.78,1.53,5.88,1.17,2.94.58,3,.41,5.95.82c2,.29,4,.4,6,.61l6,.55c2,.18,4,.21,6,.32,4,.15,8,.52,12,.49l12,.17c8,0,16.07-.17,24.09-.6s16-1.14,23.93-2.27a117.15,117.15,0,0,0,23.26-5.52A45.63,45.63,0,0,0,819,537.28a21.71,21.71,0,0,0,4.4-4A10.56,10.56,0,0,0,826,528a10.85,10.85,0,0,1-2.11,5.67,22.34,22.34,0,0,1-4.21,4.49,45.34,45.34,0,0,1-10.55,6.28,93.45,93.45,0,0,1-11.56,4.07c-2,.52-3.94,1.06-5.94,1.48s-4,.85-6,1.23a217,217,0,0,1-24.2,3c-8.1.55-16.21.76-24.32.82-16.2-.16-32.49-.93-48.52-3.89l-3-.53-3-.71c-2-.48-4-.93-5.94-1.46l-5.84-1.88a26.42,26.42,0,0,1-2.87-1.08l-2.84-1.18-1.41-.6-1.36-.72-2.71-1.45-.67-.37-.64-.43-1.28-.86A19.15,19.15,0,0,1,654.6,538c-.76-.69-1.58-1.32-2.28-2.07l-1-1.16a8.29,8.29,0,0,1-1-1.2l-.84-1.29a10.82,10.82,0,0,1-.69-1.37,7.4,7.4,0,0,1-.53-1.43,3.74,3.74,0,0,1-.18-.74A4.86,4.86,0,0,1,648,528Z" fill="#3a3a3a"/><path d="M1097,749c.58,2.49,2.46,4.34,4.3,5.94a36.31,36.31,0,0,0,6.28,4l3.4,1.54.85.39.88.31,1.76.62L1118,763l3.62,1a189.94,189.94,0,0,0,29.48,5.23l7.46.8,7.49.54,7.49.54,7.51.28c10,.53,20,.5,30.08.63s20.06-.16,30.08-.56,20-1.07,30-2.1c5-.57,9.94-1.19,14.86-2a146.77,146.77,0,0,0,14.65-3.11,72.87,72.87,0,0,0,14-5.09,31,31,0,0,0,6.25-4,15.05,15.05,0,0,0,2.56-2.69A7.28,7.28,0,0,0,1325,749a7.42,7.42,0,0,1-1.24,3.55,15.49,15.49,0,0,1-2.4,3,31.54,31.54,0,0,1-6.13,4.55,71.46,71.46,0,0,1-14,6,182.34,182.34,0,0,1-29.68,6.36l-7.52,1-7.54.75-7.55.61-7.56.48c-10.08.52-20.17.71-30.26.77-20.17-.17-40.39-.88-60.43-3.69-5-.6-10-1.6-15-2.55-1.25-.21-2.48-.52-3.7-.84l-3.69-.93c-1.23-.32-2.46-.6-3.68-.95l-3.62-1.17-3.61-1.19-3.53-1.46-1.76-.73-.88-.37-.85-.44-3.37-1.79a36.67,36.67,0,0,1-6.15-4.51,10.86,10.86,0,0,1-1.3-1.4,9.41,9.41,0,0,1-1.16-1.51,9.23,9.23,0,0,1-.92-1.66A5.64,5.64,0,0,1,1097,749Z" fill="#3a3a3a"/><path d="M224,1006c.51,2.35,2.19,4.17,3.85,5.77l1.37,1.1a10.2,10.2,0,0,0,1.41,1c1,.61,2,1.25,3,1.84a62.41,62.41,0,0,0,6.42,2.88l3.3,1.24c1.11.38,2.26.66,3.39,1l3.39,1c1.12.34,2.3.53,3.44.81l3.45.76c1.15.24,2.29.54,3.46.7,4.67.71,9.29,1.63,14,2.06l7,.8,7.07.55,7.07.54,7.09.29c9.44.53,18.92.51,28.39.63s18.94-.16,28.4-.57,18.89-1.07,28.27-2.14a178.78,178.78,0,0,0,27.77-5.22,65.45,65.45,0,0,0,13.08-5.16,28.73,28.73,0,0,0,5.73-4,14.35,14.35,0,0,0,2.3-2.64A7.37,7.37,0,0,0,438,1006a7.52,7.52,0,0,1-1.06,3.4,14.79,14.79,0,0,1-2.13,2.91,29.29,29.29,0,0,1-5.6,4.55,64.32,64.32,0,0,1-13,6.08,160.78,160.78,0,0,1-28,6.44c-9.45,1.45-19,2.24-28.5,2.83s-19.06.72-28.59.79c-19.05-.17-38.16-.89-57.08-3.74-4.74-.6-9.42-1.64-14.11-2.58-1.18-.21-2.33-.57-3.49-.87l-3.47-.93c-1.15-.33-2.32-.57-3.46-1l-3.4-1.17c-1.13-.41-2.27-.76-3.38-1.22l-3.3-1.46a55.93,55.93,0,0,1-6.38-3.35c-1-.68-2-1.41-2.94-2.1a10.71,10.71,0,0,1-1.37-1.17l-1.32-1.23a17.79,17.79,0,0,1-1.16-1.39l-.56-.7c-.18-.24-.31-.52-.47-.77a8.17,8.17,0,0,1-.8-1.61A5.69,5.69,0,0,1,224,1006Z" fill="#3a3a3a"/><path d="M74,773a9.31,9.31,0,0,0,.83,2.53l.62,1.17c.23.38.51.73.76,1.09a14.31,14.31,0,0,0,1.68,2,10.18,10.18,0,0,0,.91.94l1,.85a36,36,0,0,0,4.27,3.06c.75.46,1.56.82,2.33,1.24s1.55.83,2.36,1.18l4.91,2,5.07,1.54c.42.12.84.27,1.27.37l1.3.29,2.59.59c1.73.39,3.43.84,5.2,1.06,3.51.53,7,1.19,10.53,1.49l5.3.56,1.32.14,1.33.07,2.67.14,5.33.32c.89.05,1.77.12,2.66.16l2.67,0,10.69.17,10.69-.17,2.67,0,2.66-.16,5.33-.31,2.67-.14c.89,0,1.78-.09,2.66-.2l5.3-.56c3.55-.29,7-.93,10.54-1.46,6.94-1.3,13.92-2.82,20.34-5.75a7.94,7.94,0,0,0,1.2-.55l1.17-.61,2.34-1.22,2.18-1.48c.36-.25.74-.48,1.08-.75l1-.86a19.36,19.36,0,0,0,3.55-3.87c.24-.37.5-.73.73-1.11l.58-1.19A8.85,8.85,0,0,0,229,773a9,9,0,0,1-.44,2.66L228.1,777c-.19.41-.41.81-.62,1.22a14.41,14.41,0,0,1-1.5,2.29,15.06,15.06,0,0,1-1.8,2.07l-1,1c-.33.32-.71.58-1.06.87L220,786.11l-2.32,1.46-1.17.73a8.54,8.54,0,0,1-1.2.67c-1.65.78-3.28,1.61-5,2.33l-5.12,1.9a24.66,24.66,0,0,1-2.61.8l-2.63.72-2.63.72c-.88.25-1.77.38-2.66.57l-5.33,1.08c-1.78.4-3.58.54-5.37.8l-5.38.71c-.9.14-1.8.22-2.7.28l-2.7.21-5.41.39-2.7.18-2.7.07-10.82.27c-14.41-.15-28.91-1-43.11-4-7.05-1.65-14.12-3.63-20.58-7.11-.81-.42-1.57-.94-2.36-1.41S84,786.51,83.25,786a32.6,32.6,0,0,1-4.18-3.55l-1-1a10.91,10.91,0,0,1-.86-1.07,14.4,14.4,0,0,1-1.54-2.26c-.22-.4-.45-.79-.65-1.2l-.5-1.27A9.45,9.45,0,0,1,74,773Z" fill="#3a3a3a"/><path d="M1307,185a7.85,7.85,0,0,0-2.05-3.56,19.11,19.11,0,0,0-3.14-2.7,39.2,39.2,0,0,0-7.27-4,92.06,92.06,0,0,0-15.86-5c-5.4-1.29-10.89-2.27-16.39-3.08s-11-1.46-16.57-2q-16.64-1.55-33.37-2.1t-33.47-.55c-11.16,0-22.32.16-33.47.54s-22.28,1.05-33.38,2.05c-5.54.55-11.08,1.17-16.58,2s-11,1.76-16.4,3a90.84,90.84,0,0,0-15.87,5,36.34,36.34,0,0,0-7.25,4,18.45,18.45,0,0,0-3.08,2.76,10.07,10.07,0,0,0-1.19,1.7,5,5,0,0,0-.67,2,5,5,0,0,1,.53-2,10.3,10.3,0,0,1,1.09-1.82,18.89,18.89,0,0,1,2.94-3.05,36.68,36.68,0,0,1,7.17-4.5,92.28,92.28,0,0,1,15.83-5.89c5.42-1.52,10.93-2.71,16.46-3.72s11.1-1.78,16.67-2.51c11.15-1.38,22.35-2.16,33.56-2.73s22.42-.7,33.63-.76,22.42.25,33.63.77,22.41,1.37,33.55,2.78a229.09,229.09,0,0,1,33.11,6.31A93.5,93.5,0,0,1,1295,173.8a39.37,39.37,0,0,1,7.19,4.46,19.55,19.55,0,0,1,3,3A8,8,0,0,1,1307,185Z" fill="#3a3a3a"/><path d="M1125,1043c-21.92,2.29-43.92,3.8-65.91,5.25s-44,2.6-66,3.65Q927,1055,860.89,1056.6c-11,.28-22,.63-33.05.85l-33.06.63q-16.53.34-33.06.53l-33.06.45c-22,.28-44.08.4-66.12.61s-44.08.19-66.12.29q-66.12,0-132.25-1l-33.06-.62-33.06-.8-33.05-1-33-1.33c-44-2-88.08-4.53-132-8.54-22-2.08-43.87-4.54-65.69-7.76-10.9-1.63-21.79-3.42-32.59-5.67-5.4-1.13-10.77-2.38-16.1-3.79l-4-1.13c-1.32-.4-2.64-.81-3.95-1.24s-2.61-.89-3.89-1.4A29.34,29.34,0,0,1,70,1024a29.33,29.33,0,0,0,3.79,1.64c1.29.48,2.6.9,3.91,1.32s2.64.78,4,1.16l4,1.05c5.35,1.32,10.73,2.47,16.14,3.5,10.81,2.08,21.71,3.73,32.62,5.21,21.83,2.92,43.76,5.09,65.71,6.86,43.91,3.6,87.92,5.81,132,7.42s88.09,2.61,132.15,3.2,88.13.72,132.2.6l66.11-.11c22-.15,44.07-.21,66.1-.43q66.1-.62,132.19-1.89c22-.36,44.06-.94,66.09-1.47s44.05-1.29,66.07-2.12C1037,1048.37,1081.06,1046.49,1125,1043Z" fill="#3a3a3a"/><path d="M1170.09,182" fill="none" stroke="#3a3a3a" stroke-miterlimit="10" stroke-width="2"/><path d="M1544.53,61.84a23.65,23.65,0,0,0,10.29-17.71,70,70,0,0,1,.39-7.29c.42-2.4,1.64-4.83,3.83-5.9a69.29,69.29,0,0,0-.9,14,27.38,27.38,0,0,1-.29,7.62,17.43,17.43,0,0,1-3,6c-3,4.15-6.88,7.6-10.71,11-4.73,4.23-24.15,19-30.1,21.48C1511.06,82.49,1538.83,65.65,1544.53,61.84Z" fill="#3a3a3a"/><path d="M238.17,972s-1.51-72.27-.91-94.53c.36-13.41,1.91-40.23,1.35-53.63-.09-2.18-1.1-6.49-.94-8.67.24-3.29,3.5-13.27,4.5-12.06s-1,29.37-1.2,39.17c-.43,21,1.54,62.9,1.4,83.87,0,7-2.2,27.76-2.2,27.76" fill="#3a3a3a"/><path d="M211.41,876.61c9.39,8.56,25.76,5.89,25.76,5.89s1.15-16.54-8.24-25.1-25.76-5.89-25.76-5.89S202,868.05,211.41,876.61Zm8.82.49c-.54-.2-2.41-1.3-2.89-1.15q3.11-1,6.3-1.76l-4.54-2.24c-2.75-1.35-5.6-2.79-7.47-5.21l7.34.71L209.6,856.8c.84-.37,8.64,6.39,11.35,9.55a28.2,28.2,0,0,0-1.55-7.13,45.89,45.89,0,0,1,8.31,12.14,36.74,36.74,0,0,0,.31-9.28,19.1,19.1,0,0,1,3,6.89,49.49,49.49,0,0,0,1.59,5.38c.46,1.22,1.32,3.13.53,4.39-.5.8-2.09.62-2.91.62a23.54,23.54,0,0,1-6.65-1.12C222.44,877.9,221.33,877.51,220.24,877.09Z" fill="#3a3a3a"/><path d="M247.56,885.24C239,894.63,241.68,911,241.68,911s16.54-2.85,25.1-12.24A82.76,82.76,0,0,0,279.66,880S256.12,875.85,247.56,885.24Zm-.49,8.82c.2-.54,1.3-2.41,1.15-2.89q1,3.11,1.76,6.3l2.24-4.54c1.35-2.75,2.79-5.6,5.21-7.47l-.71,7.34,10.65-9.38c.37.84-6.39,8.64-9.55,11.35,2.43-.21,4.83-1.73,7.13-2.55-3.56,3.4-7.68,7.22-12.14,9.31,3.06.5,6.19-2.4,9.28-2.69-2,1.53-4.45,4.35-6.89,5-1.86.47-3.6,1.92-5.38,2.59-1.22.46-3.13,1.32-4.39.53-.8-.5-.62-2.09-.62-2.91a23.54,23.54,0,0,1,1.12-6.65C246.27,896.27,246.66,895.16,247.08,894.07Z" fill="#3a3a3a"/><path d="M249,825.78c-9,9-8.48,24.09-8.48,24.09s15.13.61,24.14-8.35,8.48-24.09,8.48-24.09S258,816.83,249,825.78ZM247.51,834c.25-.5,1.49-2.27,1.4-2.72q.57,2.86.88,5.81l2.6-4.28c1.58-2.59,3.24-5.28,5.7-7.08l-1.52,6.84,10.93-9c.24.77-6.92,8.21-10.15,10.8a28.62,28.62,0,0,0,6.76-1.64,52.52,52.52,0,0,1-12.19,8.06,33.31,33.31,0,0,0,8.52,0,20.81,20.81,0,0,1-6.71,3,51.77,51.77,0,0,0-5.15,1.63c-1.18.46-3,1.31-4.11.61-.68-.45-.33-1.93-.23-2.68a24.33,24.33,0,0,1,1.82-6.21C246.5,836.06,247,835,247.51,834Z" fill="#3a3a3a"/><path d="M248.54,806.62c-7.07,3.9-7.46,16.78-7.46,16.78s11.09,6.56,18.16,2.67,7.46-16.78,7.46-16.78S255.62,802.72,248.54,806.62ZM247,812.9c.21-.32,1.21-1.31,1.17-1.71q.27,2.62.35,5.21l2.13-2.54c1.29-1.54,2.65-3.12,4.54-3.65l-1.47,5.12,8.49-3.16c.14.74-5.5,4.1-8,5a19.09,19.09,0,0,0,5.05,1.33,23.21,23.21,0,0,1-9.37,1.87,30.83,30.83,0,0,0,6.26,3.44,11,11,0,0,1-5.08-.21,31.38,31.38,0,0,0-3.87-.7c-.89-.09-2.3-.12-3.05-1.13-.48-.65-.14-1.74,0-2.34a15.32,15.32,0,0,1,1.65-4.47C246.19,814.22,246.6,813.55,247,812.9Z" fill="#3a3a3a"/><path d="M237.68,938.64s14.48,4.9,26.73-2.1S282,913.27,282,913.27,265.45,927.62,252.43,933C240.34,938.06,237.68,938.64,237.68,938.64Z" fill="#3a3a3a"/><path d="M930.48,364.25a31.57,31.57,0,0,0-7-6.36l-13.22-9.71a63.72,63.72,0,0,0,23.54,29.47,30.11,30.11,0,0,0,10.57,4.89c1.79.37,3.82.44,5.29-.64a13.15,13.15,0,0,0,2.25-2.67c2.44-3.09,6.42-4.42,9.83-6.36a28.26,28.26,0,0,0,14-23.68c0-1.16-.17-2.53-1.19-3.07-1.56-.81-3.13,1-3.94,2.59-3.33,6.42-.86,9.81-5.67,15.22-3.48,3.92-17.1,14.31-22.93,13.85C935.41,377.25,933.71,368.63,930.48,364.25Z" fill="#3a3a3a"/><path d="M1634.2,417.12c-5.51-7.22-13.08-12.54-20.53-17.74-14.84-10.37-30.14-20.95-47.75-25.13,24-3.69,49.65,7.29,63.55,27.18-11-24.23-22.23-49.64-20.92-76.21q19.7,43.82,35.22,89.36c-1.29-11.12-2.49-22.87,2.06-33.1,5.62-12.62,19-20.49,24.58-33.11,1,7.57-3.16,14.72-6.7,21.49A157.67,157.67,0,0,0,1648.08,416c7.51-4.71,17.29-2.34,26-3.94,7.9-1.46,14.75-6.17,21.34-10.76a37.76,37.76,0,0,1-11.31,11.34c-8.12,5.23-17.92,7.15-26.54,11.51-3.73,1.89-11.91,30.64-14.72,29.59S1636.51,420.15,1634.2,417.12Z" fill="#3a3a3a"/><path d="M609.39,671.54c-1.28-9.53-5.41-19.06-13.08-24.85-6.93-5.24-15.82-6.87-24.25-8.92a195.17,195.17,0,0,1-50.49-20.09,405.27,405.27,0,0,1,64,13.49c7.32,2.18,15.06,4.88,19.64,11,2-9.9-2.51-19.79-4.52-29.68a61,61,0,0,1,12.52-50.22c2.25,12.2-2.24,24.52-3.58,36.86-1.15,10.52,0,21.13,1.16,31.65l5,45.93c1.45,13.22,2.78,27.24-2.92,39.26.7-1.47-4.4-14.61-4.35-18.15C608.66,688.91,610.6,680.52,609.39,671.54Z" fill="#3a3a3a"/><path d="M1311.73,626.68A85,85,0,0,1,1287,598c8.48,4.77,14.38,11.57,21.47,18.22a88.73,88.73,0,0,0,9.24,7.25c2.94,2,6.29,6.26,9.19,8.28s8.07,10.73,8.13,14.26c-.89-4.58,5.6-14.42,8.65-18,4.35-5,6.44-9.67,9.1-13.5,5.25-7.55,4.72-12,5-19.23a33.55,33.55,0,0,1-9,34.3c-3.13,2.87-10.82,26.55-13.77,26.38s-9.16-18.67-11.24-20.54C1320.07,632.14,1315.72,629.61,1311.73,626.68Z" fill="#3a3a3a"/><path d="M1272.61,583c-2.65.34-5.52.64-7.83-.69a12,12,0,0,1-2.91-2.63c1.6,1.18,3.8.84,5.79.81s4.42.69,4.81,2.64" fill="#3a3a3a"/><path d="M1269.71,574.51c-1.15-1.22-3.13-1.74-3.65-3.34,3,1,9,4.25,9.13,7.86C1272.4,579.43,1271.31,576.2,1269.71,574.51Z" fill="#3a3a3a"/><path d="M1277.48,576.62a5.1,5.1,0,0,0-.33-4.11,31.51,31.51,0,0,1-1.79-3.85c1.59,1.06,2.47,2.89,3.27,4.63.55,1.2.93,3-.26,3.55l-1,.13-.06-.87" fill="#3a3a3a"/><path d="M1290.26,576.06a1.44,1.44,0,0,1,.55-1.66,7.79,7.79,0,0,1,1.71-.82,6.09,6.09,0,0,0,2.7-2.37,2.2,2.2,0,0,1-.29,2.89,6.4,6.4,0,0,1-2.84,1.42l-2.52.77" fill="#3a3a3a"/><path d="M1363.25,582.38a2.84,2.84,0,0,1-.77-1.91,9.85,9.85,0,0,0-4.45-6.63l1-.85a18.09,18.09,0,0,1,5.44,9.41,1.51,1.51,0,0,1-2-.75" fill="#3a3a3a"/><path d="M1370.22,574.57a31.92,31.92,0,0,0-3.84,8.27l1.74-.14c1.6-2.35,3.26-5.28,2.1-7.88" fill="#3a3a3a"/><path d="M1320.18,637a23.79,23.79,0,0,1-12.89-6.42c-.68,1.44.23,3.14,1.36,4.26,3.24,3.23,8.07,4.15,12.59,4.89.92-.62.66-2.16-.23-2.81a4.25,4.25,0,0,0-3.19-.44" fill="#3a3a3a"/><path d="M1322.42,643.33a3.85,3.85,0,0,1-.28,3.79,18.37,18.37,0,0,0-1.88,3.5c-.33,1.17-.2,2.42-.42,3.62s-1,2.46-2.22,2.57c-2.2-2.7-.83-6.8,1.23-9.61a24.09,24.09,0,0,1,3.94-4.19l-.47,1.81" fill="#3a3a3a"/><path d="M1306.61,644.23a31.73,31.73,0,0,0,12.59-3.4A9.37,9.37,0,0,1,1312,647c-2.29.37-5-.44-5.86-2.6a1.56,1.56,0,0,1,1.65-.3" fill="#3a3a3a"/><path d="M1142.94,895.39c-4.21-12.1-12.1-23.57-11.31-36.35.38-6.11,2.75-11.9,5.09-17.56,2.09-5,4.46-10.43,9.15-13.22a25,25,0,0,1,11.62-3.49c7.18-.24,10.37-1.08,17.53-.53a45.81,45.81,0,0,1,12.77,4.06c3.85,2.18,6,6.42,7.57,10.56,2.68,7.12,4.24,14.92,2.65,22.35s-6.85,14.4-14.18,16.43-16.29-2.2-18-9.6c-.79-3.34.53-7.68,3.9-8.35,1.29,4,6.58,5.71,10.44,4.06s6.22-5.78,6.84-9.93-.23-8.38-1.19-12.47c-.48-2-1.1-4.24-2.78-5.49a9.22,9.22,0,0,0-4.06-1.36c-8.7-1.46-18.29-2.77-25.79,1.87s-10.8,14.43-10.59,23.39,3.14,17.59,5,26.35c3.09,14.19,3.48,28.81,3.87,43.33.23,8.59-6.46,31.55-7.47,6.28C1143.42,921.46,1147.82,909.39,1142.94,895.39Z" fill="#3a3a3a"/><ellipse cx="1125.25" cy="880.75" rx="11.25" ry="7.25" transform="translate(-280.67 625.2) rotate(-27.75)" fill="#3a3a3a"/><ellipse cx="1133.5" cy="889.76" rx="7.4" ry="4.77" transform="translate(-283.91 630.08) rotate(-27.75)" fill="#3a3a3a"/><ellipse cx="1139.35" cy="895.48" rx="4.23" ry="2.73" transform="translate(-285.9 633.46) rotate(-27.75)" fill="#3a3a3a"/><ellipse cx="1122.25" cy="864.75" rx="11.25" ry="7.25" transform="translate(-85.82 124.61) rotate(-6.12)" fill="#3a3a3a"/><ellipse cx="1124.26" cy="850.26" rx="6.64" ry="10.3" transform="translate(146.24 1865.32) rotate(-83.16)" fill="#3a3a3a"/><ellipse cx="1128.26" cy="836.26" rx="6.64" ry="10.3" transform="translate(28.78 1710) rotate(-75.02)" fill="#3a3a3a"/><ellipse cx="1135.26" cy="824.26" rx="6.64" ry="10.3" transform="translate(-250.33 1044.17) rotate(-45)" fill="#3a3a3a"/><ellipse cx="1146.59" cy="818.78" rx="5.79" ry="8.99" transform="translate(-225.06 496.85) rotate(-22.32)" fill="#3a3a3a"/><ellipse cx="1157.59" cy="815.78" rx="5.79" ry="8.99" transform="translate(-80.39 128.09) rotate(-6.12)" fill="#3a3a3a"/><ellipse cx="1169.59" cy="815.78" rx="8.99" ry="5.79" transform="translate(286.89 1935.73) rotate(-86.65)" fill="#3a3a3a"/><ellipse cx="1181.59" cy="816.78" rx="8.99" ry="5.79" transform="translate(137.44 1803.2) rotate(-78.03)" fill="#3a3a3a"/><ellipse cx="1191.75" cy="823.63" rx="7.99" ry="5.15" transform="translate(-171.93 1312.5) rotate(-54.37)" fill="#3a3a3a"/><ellipse cx="1198.75" cy="832.63" rx="7.99" ry="5.15" transform="translate(-249.81 653.89) rotate(-27.75)" fill="#3a3a3a"/><ellipse cx="1203.75" cy="842.63" rx="7.99" ry="5.15" transform="translate(-197.39 400.09) rotate(-17.46)" fill="#3a3a3a"/><ellipse cx="1205.75" cy="853.63" rx="7.99" ry="5.15" transform="matrix(0.99, -0.15, 0.15, 0.99, -114.23, 190.17)" fill="#3a3a3a"/><ellipse cx="1204.21" cy="863.58" rx="4.51" ry="7" transform="translate(-145.78 1474.66) rotate(-60)" fill="#3a3a3a"/><ellipse cx="1199.85" cy="870.89" rx="4.09" ry="6.34" transform="translate(-206.96 1338.82) rotate(-54.37)" fill="#3a3a3a"/><ellipse cx="1194.73" cy="877.06" rx="3.63" ry="5.64" transform="translate(-281.56 1008.1) rotate(-41.36)" fill="#3a3a3a"/><ellipse cx="1187.73" cy="881.06" rx="3.63" ry="5.64" transform="translate(-245.63 517.14) rotate(-22.32)" fill="#3a3a3a"/><ellipse cx="1180.73" cy="883.06" rx="3.63" ry="5.64" transform="translate(-87.43 130.95) rotate(-6.12)" fill="#3a3a3a"/><ellipse cx="1172.73" cy="882.06" rx="5.64" ry="3.63" transform="translate(-147.24 1523.14) rotate(-62.85)" fill="#3a3a3a"/><ellipse cx="1166.73" cy="878.06" rx="5.64" ry="3.63" transform="translate(-279.15 1082.18) rotate(-45)" fill="#3a3a3a"/></svg>